Unageo-Light.ufo
<glyph name="exclam" format="2">
  <advance width="291"/>
  <unicode hex="0021"/>
  <outline>
    <contour>
      <point x="116" y="700" type="line"/>
      <point x="176" y="700" type="line"/>
      <point x="176" y="193" type="line"/>
      <point x="116" y="193" type="line"/>
    </contour>
    <contour>
      <point x="146" y="78" type="curve" smooth="yes"/>
      <point x="159" y="78"/>
      <point x="170" y="73"/>
      <point x="179" y="64" type="curve" smooth="yes"/>
      <point x="188" y="55"/>
      <point x="192" y="45"/>
      <point x="192" y="32" type="curve" smooth="yes"/>
      <point x="192" y="19"/>
      <point x="188" y="9"/>
      <point x="179" y="-0" type="curve" smooth="yes"/>
      <point x="170" y="-9"/>
      <point x="159" y="-14"/>
      <point x="146" y="-14" type="curve" smooth="yes"/>
      <point x="133" y="-14"/>
      <point x="122" y="-9"/>
      <point x="113" y="-0" type="curve" smooth="yes"/>
      <point x="104" y="9"/>
      <point x="100" y="19"/>
      <point x="100" y="32" type="curve" smooth="yes"/>
      <point x="100" y="45"/>
      <point x="104" y="55"/>
      <point x="113" y="64" type="curve" smooth="yes"/>
      <point x="122" y="73"/>
      <point x="133" y="78"/>
    </contour>
  </outline>
</glyph>
<glyph name="quotedbl" format="2">
  <advance width="319"/>
  <unicode hex="0022"/>
  <outline>
    <contour>
      <point x="182" y="716" type="line"/>
      <point x="252" y="716" type="line"/>
      <point x="242" y="510" type="line"/>
      <point x="192" y="510" type="line"/>
    </contour>
    <contour>
      <point x="58" y="716" type="line"/>
      <point x="128" y="716" type="line"/>
      <point x="118" y="510" type="line"/>
      <point x="68" y="510" type="line"/>
    </contour>
  </outline>
</glyph>
<glyph name="numbersign" format="2">
  <advance width="633"/>
  <unicode hex="0023"/>
  <outline>
    <contour>
      <point x="452" y="700" type="line"/>
      <point x="513" y="700" type="line"/>
      <point x="480" y="508" type="line"/>
      <point x="620" y="508" type="line"/>
      <point x="609" y="448" type="line"/>
      <point x="469" y="448" type="line"/>
      <point x="437" y="269" type="line"/>
      <point x="577" y="269" type="line"/>
      <point x="567" y="208" type="line"/>
      <point x="426" y="208" type="line"/>
      <point x="390" y="0" type="line"/>
      <point x="329" y="0" type="line"/>
      <point x="366" y="208" type="line"/>
      <point x="196" y="208" type="line"/>
      <point x="160" y="0" type="line"/>
      <point x="99" y="0" type="line"/>
      <point x="135" y="208" type="line"/>
      <point x="13" y="208" type="line"/>
      <point x="24" y="269" type="line"/>
      <point x="146" y="269" type="line"/>
      <point x="178" y="448" type="line"/>
      <point x="55" y="448" type="line"/>
      <point x="65" y="508" type="line"/>
      <point x="189" y="508" type="line"/>
      <point x="222" y="700" type="line"/>
      <point x="283" y="700" type="line"/>
      <point x="249" y="508" type="line"/>
      <point x="419" y="508" type="line"/>
    </contour>
    <contour>
      <point x="408" y="448" type="line"/>
      <point x="239" y="448" type="line"/>
      <point x="207" y="269" type="line"/>
      <point x="376" y="269" type="line"/>
    </contour>
  </outline>
</glyph>
<glyph name="dollar" format="2">
  <advance width="538"/>
  <unicode hex="0024"/>
  <outline>
    <contour>
      <point x="233" y="791" type="line"/>
      <point x="293" y="791" type="line"/>
      <point x="293" y="710" type="line"/>
      <point x="327" y="706"/>
      <point x="357" y="697"/>
      <point x="383" y="680" type="curve" smooth="yes"/>
      <point x="416" y="659"/>
      <point x="440" y="630"/>
      <point x="453" y="593" type="curve"/>
      <point x="396" y="572" type="line"/>
      <point x="387" y="597"/>
      <point x="372" y="617"/>
      <point x="349" y="631" type="curve" smooth="yes"/>
      <point x="326" y="645"/>
      <point x="298" y="652"/>
      <point x="263" y="652" type="curve" smooth="yes"/>
      <point x="221" y="652"/>
      <point x="187" y="641"/>
      <point x="161" y="618" type="curve" smooth="yes"/>
      <point x="135" y="595"/>
      <point x="122" y="566"/>
      <point x="122" y="531" type="curve" smooth="yes"/>
      <point x="122" y="501"/>
      <point x="132" y="477"/>
      <point x="153" y="457" type="curve" smooth="yes"/>
      <point x="176" y="435"/>
      <point x="213" y="419"/>
      <point x="263" y="410" type="curve" smooth="yes"/>
      <point x="327" y="399"/>
      <point x="380" y="375"/>
      <point x="422" y="338" type="curve" smooth="yes"/>
      <point x="464" y="301"/>
      <point x="484" y="255"/>
      <point x="484" y="199" type="curve" smooth="yes"/>
      <point x="484" y="140"/>
      <point x="462" y="90"/>
      <point x="420" y="49" type="curve" smooth="yes"/>
      <point x="385" y="15"/>
      <point x="343" y="-4"/>
      <point x="293" y="-10" type="curve"/>
      <point x="293" y="-91" type="line"/>
      <point x="233" y="-91" type="line"/>
      <point x="233" y="-10" type="line"/>
      <point x="196" y="-6"/>
      <point x="163" y="6"/>
      <point x="134" y="26" type="curve" smooth="yes"/>
      <point x="97" y="51"/>
      <point x="70" y="85"/>
      <point x="55" y="127" type="curve"/>
      <point x="112" y="147" type="line"/>
      <point x="123" y="117"/>
      <point x="141" y="93"/>
      <point x="168" y="75" type="curve" smooth="yes"/>
      <point x="195" y="57"/>
      <point x="227" y="48"/>
      <point x="263" y="48" type="curve" smooth="yes"/>
      <point x="309" y="48"/>
      <point x="347" y="63"/>
      <point x="378" y="92" type="curve" smooth="yes"/>
      <point x="409" y="121"/>
      <point x="424" y="157"/>
      <point x="424" y="199" type="curve" smooth="yes"/>
      <point x="424" y="239"/>
      <point x="408" y="272"/>
      <point x="378" y="298" type="curve" smooth="yes"/>
      <point x="348" y="324"/>
      <point x="310" y="342"/>
      <point x="263" y="350" type="curve" smooth="yes"/>
      <point x="203" y="361"/>
      <point x="155" y="381"/>
      <point x="118" y="410" type="curve" smooth="yes"/>
      <point x="81" y="439"/>
      <point x="62" y="480"/>
      <point x="62" y="531" type="curve" smooth="yes"/>
      <point x="62" y="582"/>
      <point x="81" y="625"/>
      <point x="119" y="660" type="curve" smooth="yes"/>
      <point x="150" y="689"/>
      <point x="188" y="705"/>
      <point x="233" y="710" type="curve"/>
    </contour>
  </outline>
</glyph>
<glyph name="percent" format="2">
  <advance width="856"/>
  <unicode hex="0025"/>
  <outline>
    <contour>
      <point x="649" y="304" type="curve" smooth="yes"/>
      <point x="692" y="304"/>
      <point x="730" y="288"/>
      <point x="761" y="257" type="curve" smooth="yes"/>
      <point x="792" y="226"/>
      <point x="807" y="189"/>
      <point x="807" y="146" type="curve" smooth="yes"/>
      <point x="807" y="103"/>
      <point x="792" y="66"/>
      <point x="761" y="35" type="curve" smooth="yes"/>
      <point x="730" y="4"/>
      <point x="692" y="-12"/>
      <point x="649" y="-12" type="curve" smooth="yes"/>
      <point x="606" y="-12"/>
      <point x="569" y="4"/>
      <point x="538" y="35" type="curve" smooth="yes"/>
      <point x="507" y="66"/>
      <point x="491" y="103"/>
      <point x="491" y="146" type="curve" smooth="yes"/>
      <point x="491" y="189"/>
      <point x="507" y="226"/>
      <point x="538" y="257" type="curve" smooth="yes"/>
      <point x="569" y="288"/>
      <point x="606" y="304"/>
    </contour>
    <contour>
      <point x="649" y="244" type="curve" smooth="yes"/>
      <point x="622" y="244"/>
      <point x="599" y="234"/>
      <point x="580" y="215" type="curve" smooth="yes"/>
      <point x="561" y="196"/>
      <point x="551" y="173"/>
      <point x="551" y="146" type="curve" smooth="yes"/>
      <point x="551" y="119"/>
      <point x="561" y="96"/>
      <point x="580" y="77" type="curve" smooth="yes"/>
      <point x="599" y="58"/>
      <point x="622" y="48"/>
      <point x="649" y="48" type="curve" smooth="yes"/>
      <point x="676" y="48"/>
      <point x="699" y="58"/>
      <point x="718" y="77" type="curve" smooth="yes"/>
      <point x="737" y="96"/>
      <point x="747" y="119"/>
      <point x="747" y="146" type="curve" smooth="yes"/>
      <point x="747" y="173"/>
      <point x="737" y="196"/>
      <point x="718" y="215" type="curve" smooth="yes"/>
      <point x="699" y="234"/>
      <point x="676" y="244"/>
    </contour>
    <contour>
      <point x="637" y="700" type="line"/>
      <point x="686" y="666" type="line"/>
      <point x="220" y="0" type="line"/>
      <point x="171" y="34" type="line"/>
    </contour>
    <contour>
      <point x="208" y="712" type="curve" smooth="yes"/>
      <point x="251" y="712"/>
      <point x="288" y="697"/>
      <point x="319" y="666" type="curve" smooth="yes"/>
      <point x="350" y="635"/>
      <point x="366" y="597"/>
      <point x="366" y="554" type="curve" smooth="yes"/>
      <point x="366" y="511"/>
      <point x="350" y="473"/>
      <point x="319" y="442" type="curve" smooth="yes"/>
      <point x="288" y="411"/>
      <point x="251" y="396"/>
      <point x="208" y="396" type="curve" smooth="yes"/>
      <point x="165" y="396"/>
      <point x="128" y="411"/>
      <point x="97" y="442" type="curve" smooth="yes"/>
      <point x="66" y="473"/>
      <point x="50" y="511"/>
      <point x="50" y="554" type="curve" smooth="yes"/>
      <point x="50" y="597"/>
      <point x="66" y="635"/>
      <point x="97" y="666" type="curve" smooth="yes"/>
      <point x="128" y="697"/>
      <point x="165" y="712"/>
    </contour>
    <contour>
      <point x="208" y="652" type="curve" smooth="yes"/>
      <point x="181" y="652"/>
      <point x="158" y="643"/>
      <point x="139" y="624" type="curve" smooth="yes"/>
      <point x="120" y="605"/>
      <point x="110" y="581"/>
      <point x="110" y="554" type="curve" smooth="yes"/>
      <point x="110" y="527"/>
      <point x="120" y="503"/>
      <point x="139" y="484" type="curve" smooth="yes"/>
      <point x="158" y="465"/>
      <point x="181" y="456"/>
      <point x="208" y="456" type="curve" smooth="yes"/>
      <point x="235" y="456"/>
      <point x="258" y="465"/>
      <point x="277" y="484" type="curve" smooth="yes"/>
      <point x="296" y="503"/>
      <point x="306" y="527"/>
      <point x="306" y="554" type="curve" smooth="yes"/>
      <point x="306" y="581"/>
      <point x="296" y="605"/>
      <point x="277" y="624" type="curve" smooth="yes"/>
      <point x="258" y="643"/>
      <point x="235" y="652"/>
    </contour>
  </outline>
</glyph>
<glyph name="ampersand" format="2">
  <advance width="647"/>
  <unicode hex="0026"/>
  <outline>
    <contour>
      <point x="264" y="-12" type="curve" smooth="yes"/>
      <point x="208" y="-12"/>
      <point x="161" y="5"/>
      <point x="122" y="39" type="curve" smooth="yes"/>
      <point x="83" y="73"/>
      <point x="63" y="115"/>
      <point x="63" y="167" type="curve" smooth="yes"/>
      <point x="63" y="203"/>
      <point x="73" y="236"/>
      <point x="94" y="269" type="curve" smooth="yes"/>
      <point x="116" y="304"/>
      <point x="149" y="337"/>
      <point x="194" y="368" type="curve" smooth="yes"/>
      <point x="228" y="391"/>
      <point x="254" y="410"/>
      <point x="275" y="424" type="curve" smooth="yes"/>
      <point x="302" y="443"/>
      <point x="318" y="455"/>
      <point x="321" y="457" type="curve" smooth="yes"/>
      <point x="365" y="492"/>
      <point x="386" y="526"/>
      <point x="386" y="559" type="curve" smooth="yes"/>
      <point x="386" y="588"/>
      <point x="375" y="610"/>
      <point x="355" y="627" type="curve" smooth="yes"/>
      <point x="335" y="644"/>
      <point x="312" y="652"/>
      <point x="285" y="652" type="curve" smooth="yes"/>
      <point x="259" y="652"/>
      <point x="237" y="642"/>
      <point x="217" y="624" type="curve" smooth="yes"/>
      <point x="197" y="606"/>
      <point x="188" y="585"/>
      <point x="188" y="561" type="curve" smooth="yes"/>
      <point x="188" y="539"/>
      <point x="197" y="516"/>
      <point x="216" y="494" type="curve" smooth="yes"/>
      <point x="630" y="0" type="line"/>
      <point x="552" y="0" type="line"/>
      <point x="169" y="457" type="line" smooth="yes"/>
      <point x="142" y="490"/>
      <point x="128" y="524"/>
      <point x="128" y="561" type="curve" smooth="yes"/>
      <point x="128" y="604"/>
      <point x="145" y="640"/>
      <point x="176" y="669" type="curve" smooth="yes"/>
      <point x="207" y="698"/>
      <point x="243" y="712"/>
      <point x="285" y="712" type="curve" smooth="yes"/>
      <point x="331" y="712"/>
      <point x="369" y="697"/>
      <point x="400" y="668" type="curve" smooth="yes"/>
      <point x="431" y="639"/>
      <point x="446" y="603"/>
      <point x="446" y="559" type="curve" smooth="yes"/>
      <point x="446" y="534"/>
      <point x="439" y="509"/>
      <point x="426" y="486" type="curve" smooth="yes"/>
      <point x="414" y="464"/>
      <point x="395" y="443"/>
      <point x="372" y="422" type="curve" smooth="yes"/>
      <point x="358" y="410"/>
      <point x="340" y="397"/>
      <point x="317" y="380" type="curve" smooth="yes"/>
      <point x="293" y="362"/>
      <point x="264" y="342"/>
      <point x="229" y="319" type="curve" smooth="yes"/>
      <point x="191" y="294"/>
      <point x="164" y="268"/>
      <point x="146" y="241" type="curve" smooth="yes"/>
      <point x="130" y="217"/>
      <point x="123" y="192"/>
      <point x="123" y="167" type="curve" smooth="yes"/>
      <point x="123" y="130"/>
      <point x="139" y="101"/>
      <point x="167" y="80" type="curve" smooth="yes"/>
      <point x="195" y="59"/>
      <point x="227" y="48"/>
      <point x="264" y="48" type="curve" smooth="yes"/>
      <point x="304" y="48"/>
      <point x="338" y="53"/>
      <point x="369" y="65" type="curve" smooth="yes"/>
      <point x="399" y="77"/>
      <point x="425" y="95"/>
      <point x="447" y="118" type="curve" smooth="yes"/>
      <point x="494" y="167"/>
      <point x="525" y="231"/>
      <point x="539" y="309" type="curve"/>
      <point x="599" y="309" type="line"/>
      <point x="581" y="207"/>
      <point x="546" y="130"/>
      <point x="493" y="76" type="curve" smooth="yes"/>
      <point x="465" y="47"/>
      <point x="430" y="25"/>
      <point x="388" y="10" type="curve" smooth="yes"/>
      <point x="346" y="-5"/>
      <point x="305" y="-12"/>
    </contour>
  </outline>
</glyph>
<glyph name="quotesingle" format="2">
  <advance width="189"/>
  <unicode hex="0027"/>
  <outline>
    <contour>
      <point x="60" y="716" type="line"/>
      <point x="130" y="716" type="line"/>
      <point x="120" y="510" type="line"/>
      <point x="70" y="510" type="line"/>
    </contour>
  </outline>
</glyph>
<glyph name="parenleft" format="2">
  <advance width="319"/>
  <unicode hex="0028"/>
  <outline>
    <contour>
      <point x="227" y="799" type="curve"/>
      <point x="270" y="757" type="line"/>
      <point x="222" y="701"/>
      <point x="185" y="638"/>
      <point x="159" y="567" type="curve" smooth="yes"/>
      <point x="133" y="496"/>
      <point x="120" y="424"/>
      <point x="120" y="350" type="curve" smooth="yes"/>
      <point x="120" y="276"/>
      <point x="133" y="204"/>
      <point x="159" y="134" type="curve" smooth="yes"/>
      <point x="185" y="64"/>
      <point x="222" y="0"/>
      <point x="269" y="-56" type="curve"/>
      <point x="227" y="-99" type="line"/>
      <point x="173" y="-37"/>
      <point x="132" y="33"/>
      <point x="103" y="110" type="curve" smooth="yes"/>
      <point x="74" y="187"/>
      <point x="60" y="267"/>
      <point x="60" y="350" type="curve" smooth="yes"/>
      <point x="60" y="433"/>
      <point x="74" y="512"/>
      <point x="103" y="589" type="curve" smooth="yes"/>
      <point x="132" y="666"/>
      <point x="173" y="737"/>
    </contour>
  </outline>
</glyph>
<glyph name="parenright" format="2">
  <advance width="319"/>
  <unicode hex="0029"/>
  <outline>
    <contour>
      <point x="93" y="799" type="curve"/>
      <point x="147" y="737"/>
      <point x="188" y="666"/>
      <point x="217" y="589" type="curve" smooth="yes"/>
      <point x="246" y="512"/>
      <point x="260" y="433"/>
      <point x="260" y="350" type="curve" smooth="yes"/>
      <point x="260" y="267"/>
      <point x="246" y="187"/>
      <point x="217" y="110" type="curve" smooth="yes"/>
      <point x="188" y="33"/>
      <point x="147" y="-37"/>
      <point x="93" y="-99" type="curve"/>
      <point x="93" y="-99"/>
      <point x="93" y="-99"/>
      <point x="51" y="-56" type="curve"/>
      <point x="98" y="0"/>
      <point x="135" y="64"/>
      <point x="161" y="134" type="curve" smooth="yes"/>
      <point x="187" y="204"/>
      <point x="200" y="276"/>
      <point x="200" y="350" type="curve" smooth="yes"/>
      <point x="200" y="424"/>
      <point x="187" y="496"/>
      <point x="161" y="567" type="curve" smooth="yes"/>
      <point x="135" y="638"/>
      <point x="98" y="701"/>
      <point x="50" y="757" type="curve"/>
      <point x="50" y="757"/>
      <point x="50" y="757"/>
    </contour>
  </outline>
</glyph>
<glyph name="asterisk" format="2">
  <advance width="475"/>
  <unicode hex="002A"/>
  <outline>
    <contour>
      <point x="69" y="571" type="line"/>
      <point x="87" y="628" type="line"/>
      <point x="247" y="577" type="line"/>
      <point x="229" y="520" type="line"/>
    </contour>
    <contour>
      <point x="164" y="395" type="line"/>
      <point x="115" y="430" type="line"/>
      <point x="214" y="565" type="line"/>
      <point x="262" y="530" type="line"/>
    </contour>
    <contour>
      <point x="361" y="430" type="line"/>
      <point x="312" y="395" type="line"/>
      <point x="214" y="530" type="line"/>
      <point x="262" y="565" type="line"/>
    </contour>
    <contour>
      <point x="389" y="628" type="line"/>
      <point x="407" y="571" type="line"/>
      <point x="247" y="520" type="line"/>
      <point x="229" y="577" type="line"/>
    </contour>
    <contour>
      <point x="208" y="716" type="line"/>
      <point x="268" y="716" type="line"/>
      <point x="268" y="548" type="line"/>
      <point x="208" y="548" type="line"/>
    </contour>
  </outline>
</glyph>
<glyph name="plus" format="2">
  <advance width="619"/>
  <unicode hex="002B"/>
  <outline>
    <contour>
      <point x="280" y="523" type="line"/>
      <point x="340" y="523" type="line"/>
      <point x="340" y="329" type="line"/>
      <point x="535" y="329" type="line"/>
      <point x="535" y="269" type="line"/>
      <point x="340" y="269" type="line"/>
      <point x="340" y="73" type="line"/>
      <point x="280" y="73" type="line"/>
      <point x="280" y="269" type="line"/>
      <point x="85" y="269" type="line"/>
      <point x="85" y="329" type="line"/>
      <point x="280" y="329" type="line"/>
    </contour>
  </outline>
</glyph>
<glyph name="comma" format="2">
  <advance width="209"/>
  <unicode hex="002C"/>
  <outline>
    <contour>
      <point x="103" y="86" type="curve"/>
      <point x="164" y="86" type="line"/>
      <point x="164" y="9"/>
      <point x="146" y="-59"/>
      <point x="109" y="-116" type="curve"/>
      <point x="48" y="-116" type="line"/>
      <point x="85" y="-55"/>
      <point x="103" y="12"/>
    </contour>
  </outline>
</glyph>
<glyph name="period" format="2">
  <advance width="191"/>
  <unicode hex="002E"/>
  <outline>
    <contour>
      <point x="142" y="32" type="curve" smooth="yes"/>
      <point x="142" y="19"/>
      <point x="137" y="9"/>
      <point x="128" y="-0" type="curve" smooth="yes"/>
      <point x="119" y="-9"/>
      <point x="109" y="-14"/>
      <point x="96" y="-14" type="curve" smooth="yes"/>
      <point x="83" y="-14"/>
      <point x="72" y="-9"/>
      <point x="63" y="-0" type="curve" smooth="yes"/>
      <point x="54" y="9"/>
      <point x="50" y="19"/>
      <point x="50" y="32" type="curve" smooth="yes"/>
      <point x="50" y="45"/>
      <point x="54" y="55"/>
      <point x="63" y="64" type="curve" smooth="yes"/>
      <point x="72" y="73"/>
      <point x="83" y="78"/>
      <point x="96" y="78" type="curve" smooth="yes"/>
      <point x="109" y="78"/>
      <point x="119" y="73"/>
      <point x="128" y="64" type="curve" smooth="yes"/>
      <point x="137" y="55"/>
      <point x="142" y="45"/>
    </contour>
  </outline>
</glyph>
<glyph name="zero" format="2">
  <advance width="635"/>
  <unicode hex="0030"/>
  <outline>
    <contour>
      <point x="318" y="652" type="curve" smooth="yes"/>
      <point x="283" y="652"/>
      <point x="252" y="643"/>
      <point x="225" y="625" type="curve" smooth="yes"/>
      <point x="198" y="607"/>
      <point x="175" y="584"/>
      <point x="159" y="555" type="curve" smooth="yes"/>
      <point x="143" y="526"/>
      <point x="131" y="493"/>
      <point x="123" y="458" type="curve" smooth="yes"/>
      <point x="115" y="423"/>
      <point x="110" y="388"/>
      <point x="110" y="350" type="curve" smooth="yes"/>
      <point x="110" y="312"/>
      <point x="115" y="277"/>
      <point x="123" y="242" type="curve" smooth="yes"/>
      <point x="131" y="207"/>
      <point x="143" y="174"/>
      <point x="159" y="145" type="curve" smooth="yes"/>
      <point x="175" y="116"/>
      <point x="198" y="93"/>
      <point x="225" y="75" type="curve" smooth="yes"/>
      <point x="252" y="57"/>
      <point x="283" y="48"/>
      <point x="318" y="48" type="curve" smooth="yes"/>
      <point x="353" y="48"/>
      <point x="384" y="57"/>
      <point x="411" y="75" type="curve" smooth="yes"/>
      <point x="438" y="93"/>
      <point x="461" y="116"/>
      <point x="477" y="145" type="curve" smooth="yes"/>
      <point x="493" y="174"/>
      <point x="506" y="207"/>
      <point x="514" y="242" type="curve" smooth="yes"/>
      <point x="522" y="277"/>
      <point x="526" y="312"/>
      <point x="526" y="350" type="curve" smooth="yes"/>
      <point x="526" y="388"/>
      <point x="522" y="423"/>
      <point x="514" y="458" type="curve" smooth="yes"/>
      <point x="506" y="493"/>
      <point x="493" y="526"/>
      <point x="477" y="555" type="curve" smooth="yes"/>
      <point x="461" y="584"/>
      <point x="438" y="607"/>
      <point x="411" y="625" type="curve" smooth="yes"/>
      <point x="384" y="643"/>
      <point x="353" y="652"/>
    </contour>
    <contour>
      <point x="318" y="712" type="curve" smooth="yes"/>
      <point x="375" y="712"/>
      <point x="424" y="694"/>
      <point x="466" y="658" type="curve" smooth="yes"/>
      <point x="508" y="622"/>
      <point x="539" y="577"/>
      <point x="558" y="524" type="curve" smooth="yes"/>
      <point x="577" y="471"/>
      <point x="586" y="412"/>
      <point x="586" y="350" type="curve" smooth="yes"/>
      <point x="586" y="288"/>
      <point x="577" y="229"/>
      <point x="558" y="176" type="curve" smooth="yes"/>
      <point x="539" y="123"/>
      <point x="508" y="78"/>
      <point x="466" y="42" type="curve" smooth="yes"/>
      <point x="424" y="6"/>
      <point x="375" y="-12"/>
      <point x="318" y="-12" type="curve" smooth="yes"/>
      <point x="261" y="-12"/>
      <point x="211" y="6"/>
      <point x="169" y="42" type="curve" smooth="yes"/>
      <point x="127" y="78"/>
      <point x="98" y="123"/>
      <point x="79" y="176" type="curve" smooth="yes"/>
      <point x="60" y="229"/>
      <point x="50" y="288"/>
      <point x="50" y="350" type="curve" smooth="yes"/>
      <point x="50" y="412"/>
      <point x="60" y="471"/>
      <point x="79" y="524" type="curve" smooth="yes"/>
      <point x="98" y="577"/>
      <point x="127" y="622"/>
      <point x="169" y="658" type="curve" smooth="yes"/>
      <point x="211" y="694"/>
      <point x="261" y="712"/>
    </contour>
  </outline>
</glyph>
<glyph name="one" format="2">
  <advance width="405"/>
  <unicode hex="0031"/>
  <outline>
    <contour>
      <point x="226" y="700" type="line"/>
      <point x="286" y="700" type="line"/>
      <point x="286" y="0" type="line"/>
      <point x="226" y="0" type="line"/>
      <point x="226" y="622" type="line"/>
      <point x="104" y="519" type="line"/>
      <point x="65" y="565" type="line"/>
    </contour>
  </outline>
</glyph>
<glyph name="two" format="2">
  <advance width="520"/>
  <unicode hex="0032"/>
  <outline>
    <contour>
      <point x="241" y="712" type="curve" smooth="yes"/>
      <point x="299" y="712"/>
      <point x="348" y="692"/>
      <point x="389" y="651" type="curve" smooth="yes"/>
      <point x="430" y="610"/>
      <point x="450" y="560"/>
      <point x="450" y="502" type="curve" smooth="yes"/>
      <point x="450" y="454"/>
      <point x="426" y="404"/>
      <point x="379" y="351" type="curve" smooth="yes"/>
      <point x="110" y="60" type="line"/>
      <point x="456" y="60" type="line"/>
      <point x="456" y="0" type="line"/>
      <point x="30" y="0" type="line"/>
      <point x="30" y="60" type="line"/>
      <point x="334" y="388" type="line" smooth="yes"/>
      <point x="371" y="428"/>
      <point x="390" y="466"/>
      <point x="390" y="502" type="curve" smooth="yes"/>
      <point x="390" y="545"/>
      <point x="376" y="581"/>
      <point x="348" y="609" type="curve" smooth="yes"/>
      <point x="320" y="637"/>
      <point x="284" y="652"/>
      <point x="241" y="652" type="curve" smooth="yes"/>
      <point x="206" y="652"/>
      <point x="175" y="643"/>
      <point x="149" y="623" type="curve" smooth="yes"/>
      <point x="123" y="603"/>
      <point x="106" y="576"/>
      <point x="97" y="542" type="curve"/>
      <point x="39" y="559" type="line"/>
      <point x="52" y="604"/>
      <point x="77" y="641"/>
      <point x="114" y="669" type="curve" smooth="yes"/>
      <point x="151" y="697"/>
      <point x="194" y="712"/>
    </contour>
  </outline>
</glyph>
<glyph name="four" format="2">
  <advance width="575"/>
  <unicode hex="0034"/>
  <outline>
    <contour>
      <point x="265" y="701" type="line"/>
      <point x="319" y="676" type="line"/>
      <point x="116" y="242" type="line"/>
      <point x="352" y="242" type="line"/>
      <point x="352" y="440" type="line"/>
      <point x="412" y="440" type="line"/>
      <point x="412" y="242" type="line"/>
      <point x="546" y="242" type="line"/>
      <point x="546" y="182" type="line"/>
      <point x="412" y="182" type="line"/>
      <point x="412" y="0" type="line"/>
      <point x="352" y="0" type="line"/>
      <point x="352" y="182" type="line"/>
      <point x="50" y="182" type="line"/>
      <point x="50" y="242" type="line"/>
    </contour>
  </outline>
</glyph>
<glyph name="five" format="2">
  <advance width="533"/>
  <unicode hex="0035"/>
  <outline>
    <contour>
      <point x="108" y="700" type="line"/>
      <point x="446" y="700" type="line"/>
      <point x="446" y="640" type="line"/>
      <point x="168" y="640" type="line"/>
      <point x="168" y="442" type="line"/>
      <point x="264" y="442" type="line" smooth="yes"/>
      <point x="325" y="441"/>
      <point x="376" y="418"/>
      <point x="419" y="373" type="curve" smooth="yes"/>
      <point x="462" y="328"/>
      <point x="484" y="275"/>
      <point x="484" y="213" type="curve" smooth="yes"/>
      <point x="484" y="151"/>
      <point x="462" y="98"/>
      <point x="418" y="54" type="curve" smooth="yes"/>
      <point x="374" y="10"/>
      <point x="321" y="-12"/>
      <point x="259" y="-12" type="curve" smooth="yes"/>
      <point x="219" y="-12"/>
      <point x="182" y="-2"/>
      <point x="148" y="18" type="curve" smooth="yes"/>
      <point x="114" y="38"/>
      <point x="86" y="63"/>
      <point x="64" y="95" type="curve"/>
      <point x="110" y="133" type="line"/>
      <point x="147" y="76"/>
      <point x="197" y="48"/>
      <point x="259" y="48" type="curve" smooth="yes"/>
      <point x="306" y="48"/>
      <point x="344" y="64"/>
      <point x="376" y="96" type="curve" smooth="yes"/>
      <point x="408" y="128"/>
      <point x="424" y="166"/>
      <point x="424" y="213" type="curve" smooth="yes"/>
      <point x="424" y="259"/>
      <point x="409" y="298"/>
      <point x="378" y="331" type="curve" smooth="yes"/>
      <point x="347" y="364"/>
      <point x="309" y="381"/>
      <point x="264" y="382" type="curve" smooth="yes"/>
      <point x="108" y="382" type="line"/>
    </contour>
  </outline>
</glyph>
<glyph name="six" format="2">
  <advance width="542"/>
  <unicode hex="0036"/>
  <outline>
    <contour>
      <point x="280" y="387" type="curve" smooth="yes"/>
      <point x="233" y="387"/>
      <point x="193" y="371"/>
      <point x="160" y="338" type="curve" smooth="yes"/>
      <point x="127" y="305"/>
      <point x="111" y="264"/>
      <point x="111" y="217" type="curve" smooth="yes"/>
      <point x="111" y="170"/>
      <point x="127" y="130"/>
      <point x="160" y="97" type="curve" smooth="yes"/>
      <point x="193" y="64"/>
      <point x="233" y="48"/>
      <point x="280" y="48" type="curve" smooth="yes"/>
      <point x="327" y="48"/>
      <point x="368" y="64"/>
      <point x="401" y="97" type="curve" smooth="yes"/>
      <point x="434" y="130"/>
      <point x="450" y="170"/>
      <point x="450" y="217" type="curve" smooth="yes"/>
      <point x="450" y="264"/>
      <point x="434" y="305"/>
      <point x="401" y="338" type="curve" smooth="yes"/>
      <point x="368" y="371"/>
      <point x="327" y="387"/>
    </contour>
    <contour>
      <point x="301" y="712" type="line"/>
      <point x="370" y="712" type="line"/>
      <point x="210" y="435" type="line"/>
      <point x="233" y="443"/>
      <point x="257" y="447"/>
      <point x="280" y="447" type="curve" smooth="yes"/>
      <point x="343" y="447"/>
      <point x="398" y="425"/>
      <point x="443" y="380" type="curve" smooth="yes"/>
      <point x="488" y="335"/>
      <point x="510" y="280"/>
      <point x="510" y="217" type="curve" smooth="yes"/>
      <point x="510" y="154"/>
      <point x="488" y="100"/>
      <point x="443" y="55" type="curve" smooth="yes"/>
      <point x="398" y="10"/>
      <point x="343" y="-12"/>
      <point x="280" y="-12" type="curve" smooth="yes"/>
      <point x="217" y="-12"/>
      <point x="163" y="10"/>
      <point x="118" y="55" type="curve" smooth="yes"/>
      <point x="73" y="100"/>
      <point x="51" y="154"/>
      <point x="51" y="217" type="curve" smooth="yes"/>
      <point x="51" y="258"/>
      <point x="61" y="296"/>
      <point x="81" y="331" type="curve" smooth="yes"/>
    </contour>
  </outline>
</glyph>
<glyph name="seven" format="2">
  <advance width="529"/>
  <unicode hex="0037"/>
  <outline>
    <contour>
      <point x="45" y="640" type="line"/>
      <point x="45" y="700" type="line"/>
      <point x="500" y="700" type="line"/>
      <point x="500" y="640" type="line"/>
      <point x="148" y="0" type="line"/>
      <point x="79" y="0" type="line"/>
      <point x="432" y="640" type="line"/>
    </contour>
  </outline>
</glyph>
<glyph name="eight" format="2">
  <advance width="573"/>
  <unicode hex="0038"/>
  <outline>
    <contour>
      <point x="287" y="349" type="curve" smooth="yes"/>
      <point x="244" y="349"/>
      <point x="205" y="334"/>
      <point x="172" y="306" type="curve" smooth="yes"/>
      <point x="139" y="278"/>
      <point x="123" y="241"/>
      <point x="123" y="198" type="curve" smooth="yes"/>
      <point x="123" y="155"/>
      <point x="139" y="118"/>
      <point x="172" y="90" type="curve" smooth="yes"/>
      <point x="205" y="62"/>
      <point x="244" y="48"/>
      <point x="287" y="48" type="curve" smooth="yes"/>
      <point x="330" y="48"/>
      <point x="369" y="62"/>
      <point x="402" y="90" type="curve" smooth="yes"/>
      <point x="435" y="118"/>
      <point x="451" y="155"/>
      <point x="451" y="198" type="curve" smooth="yes"/>
      <point x="451" y="241"/>
      <point x="435" y="278"/>
      <point x="402" y="306" type="curve" smooth="yes"/>
      <point x="369" y="334"/>
      <point x="330" y="349"/>
    </contour>
    <contour>
      <point x="287" y="652" type="curve" smooth="yes"/>
      <point x="251" y="652"/>
      <point x="220" y="640"/>
      <point x="193" y="618" type="curve" smooth="yes"/>
      <point x="166" y="596"/>
      <point x="152" y="567"/>
      <point x="152" y="532" type="curve" smooth="yes"/>
      <point x="152" y="497"/>
      <point x="166" y="467"/>
      <point x="193" y="444" type="curve" smooth="yes"/>
      <point x="220" y="421"/>
      <point x="252" y="409"/>
      <point x="287" y="409" type="curve" smooth="yes"/>
      <point x="322" y="409"/>
      <point x="354" y="421"/>
      <point x="381" y="444" type="curve" smooth="yes"/>
      <point x="408" y="467"/>
      <point x="421" y="497"/>
      <point x="421" y="532" type="curve" smooth="yes"/>
      <point x="421" y="567"/>
      <point x="408" y="596"/>
      <point x="381" y="618" type="curve" smooth="yes"/>
      <point x="354" y="640"/>
      <point x="323" y="652"/>
    </contour>
    <contour>
      <point x="287" y="712" type="curve" smooth="yes"/>
      <point x="339" y="712"/>
      <point x="384" y="695"/>
      <point x="423" y="660" type="curve" smooth="yes"/>
      <point x="462" y="625"/>
      <point x="482" y="583"/>
      <point x="482" y="532" type="curve" smooth="yes"/>
      <point x="482" y="481"/>
      <point x="462" y="438"/>
      <point x="423" y="403" type="curve" smooth="yes"/>
      <point x="414" y="395"/>
      <point x="405" y="387"/>
      <point x="395" y="381" type="curve"/>
      <point x="413" y="372"/>
      <point x="428" y="361"/>
      <point x="444" y="347" type="curve" smooth="yes"/>
      <point x="489" y="307"/>
      <point x="511" y="258"/>
      <point x="511" y="198" type="curve" smooth="yes"/>
      <point x="511" y="138"/>
      <point x="489" y="88"/>
      <point x="444" y="48" type="curve" smooth="yes"/>
      <point x="399" y="8"/>
      <point x="347" y="-12"/>
      <point x="287" y="-12" type="curve" smooth="yes"/>
      <point x="227" y="-12"/>
      <point x="175" y="8"/>
      <point x="130" y="48" type="curve" smooth="yes"/>
      <point x="85" y="88"/>
      <point x="63" y="138"/>
      <point x="63" y="198" type="curve" smooth="yes"/>
      <point x="63" y="258"/>
      <point x="85" y="307"/>
      <point x="130" y="347" type="curve" smooth="yes"/>
      <point x="146" y="361"/>
      <point x="162" y="372"/>
      <point x="180" y="381" type="curve"/>
      <point x="170" y="387"/>
      <point x="160" y="395"/>
      <point x="151" y="403" type="curve" smooth="yes"/>
      <point x="112" y="438"/>
      <point x="92" y="481"/>
      <point x="92" y="532" type="curve" smooth="yes"/>
      <point x="92" y="583"/>
      <point x="112" y="625"/>
      <point x="151" y="660" type="curve" smooth="yes"/>
      <point x="190" y="695"/>
      <point x="235" y="712"/>
    </contour>
  </outline>
</glyph>
<glyph name="nine" format="2">
  <advance width="542"/>
  <unicode hex="0039"/>
  <outline>
    <contour>
      <point x="262" y="313" type="curve" smooth="yes"/>
      <point x="309" y="313"/>
      <point x="350" y="329"/>
      <point x="383" y="362" type="curve" smooth="yes"/>
      <point x="416" y="395"/>
      <point x="432" y="435"/>
      <point x="432" y="482" type="curve" smooth="yes"/>
      <point x="432" y="529"/>
      <point x="416" y="570"/>
      <point x="383" y="603" type="curve" smooth="yes"/>
      <point x="350" y="636"/>
      <point x="309" y="652"/>
      <point x="262" y="652" type="curve" smooth="yes"/>
      <point x="215" y="652"/>
      <point x="175" y="636"/>
      <point x="142" y="603" type="curve" smooth="yes"/>
      <point x="109" y="570"/>
      <point x="93" y="529"/>
      <point x="93" y="482" type="curve" smooth="yes"/>
      <point x="93" y="435"/>
      <point x="109" y="395"/>
      <point x="142" y="362" type="curve" smooth="yes"/>
      <point x="175" y="329"/>
      <point x="215" y="313"/>
    </contour>
    <contour>
      <point x="247" y="0" type="line"/>
      <point x="178" y="0" type="line"/>
      <point x="333" y="265" type="line"/>
      <point x="309" y="257"/>
      <point x="285" y="253"/>
      <point x="262" y="253" type="curve" smooth="yes"/>
      <point x="199" y="253"/>
      <point x="145" y="275"/>
      <point x="100" y="320" type="curve" smooth="yes"/>
      <point x="55" y="364"/>
      <point x="33" y="419"/>
      <point x="33" y="482" type="curve" smooth="yes"/>
      <point x="33" y="545"/>
      <point x="55" y="601"/>
      <point x="100" y="645" type="curve" smooth="yes"/>
      <point x="145" y="690"/>
      <point x="199" y="712"/>
      <point x="262" y="712" type="curve" smooth="yes"/>
      <point x="325" y="712"/>
      <point x="380" y="690"/>
      <point x="425" y="645" type="curve" smooth="yes"/>
      <point x="470" y="601"/>
      <point x="492" y="545"/>
      <point x="492" y="482" type="curve" smooth="yes"/>
      <point x="492" y="440"/>
      <point x="482" y="403"/>
      <point x="462" y="369" type="curve" smooth="yes"/>
    </contour>
  </outline>
</glyph>
<glyph name="colon" format="2">
  <advance width="239"/>
  <unicode hex="003A"/>
  <outline>
    <contour>
      <point x="119" y="410" type="curve" smooth="yes"/>
      <point x="106" y="410"/>
      <point x="95" y="414"/>
      <point x="86" y="423" type="curve" smooth="yes"/>
      <point x="77" y="432"/>
      <point x="73" y="443"/>
      <point x="73" y="456" type="curve" smooth="yes"/>
      <point x="73" y="469"/>
      <point x="77" y="479"/>
      <point x="86" y="488" type="curve" smooth="yes"/>
      <point x="95" y="497"/>
      <point x="106" y="502"/>
      <point x="119" y="502" type="curve" smooth="yes"/>
      <point x="132" y="502"/>
      <point x="142" y="497"/>
      <point x="151" y="488" type="curve" smooth="yes"/>
      <point x="160" y="479"/>
      <point x="165" y="469"/>
      <point x="165" y="456" type="curve" smooth="yes"/>
      <point x="165" y="443"/>
      <point x="160" y="432"/>
      <point x="151" y="423" type="curve" smooth="yes"/>
      <point x="142" y="414"/>
      <point x="132" y="410"/>
    </contour>
    <contour>
      <point x="121" y="-2" type="curve" smooth="yes"/>
      <point x="108" y="-2"/>
      <point x="97" y="3"/>
      <point x="88" y="12" type="curve" smooth="yes"/>
      <point x="79" y="21"/>
      <point x="75" y="31"/>
      <point x="75" y="44" type="curve" smooth="yes"/>
      <point x="75" y="57"/>
      <point x="79" y="68"/>
      <point x="88" y="77" type="curve" smooth="yes"/>
      <point x="97" y="86"/>
      <point x="108" y="90"/>
      <point x="121" y="90" type="curve" smooth="yes"/>
      <point x="134" y="90"/>
      <point x="144" y="86"/>
      <point x="153" y="77" type="curve" smooth="yes"/>
      <point x="162" y="68"/>
      <point x="167" y="57"/>
      <point x="167" y="44" type="curve" smooth="yes"/>
      <point x="167" y="31"/>
      <point x="162" y="21"/>
      <point x="153" y="12" type="curve" smooth="yes"/>
      <point x="144" y="3"/>
      <point x="134" y="-2"/>
    </contour>
  </outline>
</glyph>
<glyph name="semicolon" format="2">
  <advance width="243"/>
  <unicode hex="003B"/>
  <outline>
    <contour>
      <point x="103" y="86" type="curve"/>
      <point x="164" y="86" type="line"/>
      <point x="164" y="9"/>
      <point x="146" y="-59"/>
      <point x="109" y="-116" type="curve"/>
      <point x="48" y="-116" type="line"/>
      <point x="85" y="-55"/>
      <point x="103" y="12"/>
    </contour>
    <contour>
      <point x="125" y="410" type="curve" smooth="yes"/>
      <point x="112" y="410"/>
      <point x="101" y="414"/>
      <point x="92" y="423" type="curve" smooth="yes"/>
      <point x="83" y="432"/>
      <point x="79" y="443"/>
      <point x="79" y="456" type="curve" smooth="yes"/>
      <point x="79" y="469"/>
      <point x="83" y="479"/>
      <point x="92" y="488" type="curve" smooth="yes"/>
      <point x="101" y="497"/>
      <point x="112" y="502"/>
      <point x="125" y="502" type="curve" smooth="yes"/>
      <point x="138" y="502"/>
      <point x="148" y="497"/>
      <point x="157" y="488" type="curve" smooth="yes"/>
      <point x="166" y="479"/>
      <point x="171" y="469"/>
      <point x="171" y="456" type="curve" smooth="yes"/>
      <point x="171" y="443"/>
      <point x="166" y="432"/>
      <point x="157" y="423" type="curve" smooth="yes"/>
      <point x="148" y="414"/>
      <point x="138" y="410"/>
    </contour>
  </outline>
</glyph>
<glyph name="less" format="2">
  <advance width="619"/>
  <unicode hex="003C"/>
  <outline>
    <contour>
      <point x="470" y="489" type="line"/>
      <point x="470" y="423" type="line"/>
      <point x="208" y="298" type="line"/>
      <point x="470" y="173" type="line"/>
      <point x="470" y="106" type="line"/>
      <point x="139" y="265" type="line"/>
      <point x="139" y="331" type="line"/>
    </contour>
  </outline>
</glyph>
<glyph name="equal" format="2">
  <advance width="625"/>
  <unicode hex="003D"/>
  <outline>
    <contour>
      <point x="113" y="368" type="line"/>
      <point x="113" y="428" type="line"/>
      <point x="513" y="428" type="line"/>
      <point x="513" y="368" type="line"/>
    </contour>
    <contour>
      <point x="113" y="167" type="line"/>
      <point x="113" y="228" type="line"/>
      <point x="513" y="228" type="line"/>
      <point x="513" y="167" type="line"/>
    </contour>
  </outline>
</glyph>
<glyph name="greater" format="2">
  <advance width="625"/>
  <unicode hex="003E"/>
  <outline>
    <contour>
      <point x="153" y="489" type="line"/>
      <point x="153" y="423" type="line"/>
      <point x="415" y="298" type="line"/>
      <point x="153" y="173" type="line"/>
      <point x="153" y="106" type="line"/>
      <point x="484" y="265" type="line"/>
      <point x="484" y="331" type="line"/>
    </contour>
  </outline>
</glyph>
<glyph name="question" format="2">
  <advance width="498"/>
  <unicode hex="003F"/>
  <outline>
    <contour>
      <point x="265" y="32" type="curve" smooth="yes"/>
      <point x="265" y="19"/>
      <point x="260" y="9"/>
      <point x="251" y="-0" type="curve" smooth="yes"/>
      <point x="242" y="-9"/>
      <point x="232" y="-14"/>
      <point x="219" y="-14" type="curve" smooth="yes"/>
      <point x="206" y="-14"/>
      <point x="196" y="-9"/>
      <point x="187" y="-0" type="curve" smooth="yes"/>
      <point x="178" y="9"/>
      <point x="173" y="19"/>
      <point x="173" y="32" type="curve" smooth="yes"/>
      <point x="173" y="45"/>
      <point x="178" y="55"/>
      <point x="187" y="64" type="curve" smooth="yes"/>
      <point x="196" y="73"/>
      <point x="206" y="78"/>
      <point x="219" y="78" type="curve" smooth="yes"/>
      <point x="232" y="78"/>
      <point x="242" y="73"/>
      <point x="251" y="64" type="curve" smooth="yes"/>
      <point x="260" y="55"/>
      <point x="265" y="45"/>
    </contour>
    <contour>
      <point x="239" y="712" type="curve" smooth="yes"/>
      <point x="297" y="712"/>
      <point x="347" y="691"/>
      <point x="388" y="650" type="curve" smooth="yes"/>
      <point x="429" y="609"/>
      <point x="449" y="560"/>
      <point x="449" y="502" type="curve" smooth="yes"/>
      <point x="449" y="462"/>
      <point x="438" y="426"/>
      <point x="416" y="392" type="curve" smooth="yes"/>
      <point x="394" y="358"/>
      <point x="365" y="332"/>
      <point x="328" y="314" type="curve" smooth="yes"/>
      <point x="304" y="302"/>
      <point x="284" y="285"/>
      <point x="269" y="261" type="curve" smooth="yes"/>
      <point x="254" y="237"/>
      <point x="247" y="211"/>
      <point x="247" y="183" type="curve"/>
      <point x="187" y="183" type="line"/>
      <point x="187" y="223"/>
      <point x="198" y="259"/>
      <point x="219" y="293" type="curve" smooth="yes"/>
      <point x="240" y="327"/>
      <point x="268" y="352"/>
      <point x="304" y="369" type="curve" smooth="yes"/>
      <point x="330" y="381"/>
      <point x="350" y="400"/>
      <point x="366" y="424" type="curve" smooth="yes"/>
      <point x="382" y="448"/>
      <point x="389" y="474"/>
      <point x="389" y="502" type="curve" smooth="yes"/>
      <point x="389" y="543"/>
      <point x="375" y="577"/>
      <point x="345" y="607" type="curve" smooth="yes"/>
      <point x="315" y="637"/>
      <point x="280" y="652"/>
      <point x="239" y="652" type="curve" smooth="yes"/>
      <point x="205" y="652"/>
      <point x="174" y="641"/>
      <point x="147" y="620" type="curve" smooth="yes"/>
      <point x="120" y="599"/>
      <point x="102" y="572"/>
      <point x="94" y="539" type="curve"/>
      <point x="35" y="549" type="line"/>
      <point x="46" y="596"/>
      <point x="70" y="636"/>
      <point x="108" y="666" type="curve" smooth="yes"/>
      <point x="146" y="696"/>
      <point x="190" y="712"/>
    </contour>
  </outline>
</glyph>
<glyph name="at" format="2">
  <advance width="987"/>
  <unicode hex="0040"/>
  <outline>
    <contour>
      <point x="514" y="715" type="curve" smooth="yes"/>
      <point x="576" y="715"/>
      <point x="634" y="703"/>
      <point x="691" y="680" type="curve" smooth="yes"/>
      <point x="748" y="657"/>
      <point x="799" y="622"/>
      <point x="842" y="579" type="curve" smooth="yes"/>
      <point x="885" y="536"/>
      <point x="920" y="486"/>
      <point x="943" y="429" type="curve" smooth="yes"/>
      <point x="966" y="372"/>
      <point x="978" y="313"/>
      <point x="978" y="251" type="curve" smooth="yes"/>
      <point x="978" y="193"/>
      <point x="969" y="138"/>
      <point x="949" y="87" type="curve" smooth="yes"/>
      <point x="931" y="40"/>
      <point x="905" y="-4"/>
      <point x="870" y="-46" type="curve" smooth="yes"/>
      <point x="849" y="-71"/>
      <point x="823" y="-83"/>
      <point x="792" y="-83" type="curve" smooth="yes"/>
      <point x="764" y="-83"/>
      <point x="739" y="-73"/>
      <point x="719" y="-53" type="curve" smooth="yes"/>
      <point x="699" y="-33"/>
      <point x="689" y="-9"/>
      <point x="689" y="19" type="curve" smooth="yes"/>
      <point x="689" y="90" type="line"/>
      <point x="642" y="39"/>
      <point x="583" y="13"/>
      <point x="514" y="13" type="curve" smooth="yes"/>
      <point x="448" y="13"/>
      <point x="392" y="37"/>
      <point x="346" y="83" type="curve" smooth="yes"/>
      <point x="300" y="129"/>
      <point x="276" y="185"/>
      <point x="276" y="251" type="curve" smooth="yes"/>
      <point x="276" y="317"/>
      <point x="300" y="373"/>
      <point x="346" y="419" type="curve" smooth="yes"/>
      <point x="392" y="465"/>
      <point x="448" y="489"/>
      <point x="514" y="489" type="curve" smooth="yes"/>
      <point x="580" y="489"/>
      <point x="637" y="465"/>
      <point x="683" y="419" type="curve" smooth="yes"/>
      <point x="729" y="373"/>
      <point x="752" y="317"/>
      <point x="752" y="251" type="curve" smooth="yes"/>
      <point x="752" y="19" type="line" smooth="yes"/>
      <point x="752" y="8"/>
      <point x="756" y="-1"/>
      <point x="764" y="-9" type="curve" smooth="yes"/>
      <point x="772" y="-17"/>
      <point x="781" y="-21"/>
      <point x="792" y="-21" type="curve" smooth="yes"/>
      <point x="804" y="-21"/>
      <point x="814" y="-15"/>
      <point x="822" y="-6" type="curve" smooth="yes"/>
      <point x="885" y="69"/>
      <point x="917" y="154"/>
      <point x="917" y="251" type="curve" smooth="yes"/>
      <point x="917" y="304"/>
      <point x="907" y="356"/>
      <point x="886" y="405" type="curve" smooth="yes"/>
      <point x="865" y="454"/>
      <point x="837" y="498"/>
      <point x="799" y="536" type="curve" smooth="yes"/>
      <point x="761" y="574"/>
      <point x="717" y="602"/>
      <point x="668" y="623" type="curve" smooth="yes"/>
      <point x="619" y="644"/>
      <point x="567" y="653"/>
      <point x="514" y="653" type="curve" smooth="yes"/>
      <point x="441" y="653"/>
      <point x="374" y="636"/>
      <point x="312" y="600" type="curve" smooth="yes"/>
      <point x="250" y="564"/>
      <point x="202" y="515"/>
      <point x="166" y="453" type="curve" smooth="yes"/>
      <point x="130" y="391"/>
      <point x="111" y="324"/>
      <point x="111" y="251" type="curve" smooth="yes"/>
      <point x="111" y="198"/>
      <point x="121" y="146"/>
      <point x="142" y="97" type="curve" smooth="yes"/>
      <point x="163" y="48"/>
      <point x="191" y="4"/>
      <point x="229" y="-34" type="curve" smooth="yes"/>
      <point x="267" y="-72"/>
      <point x="311" y="-100"/>
      <point x="360" y="-121" type="curve" smooth="yes"/>
      <point x="409" y="-142"/>
      <point x="461" y="-151"/>
      <point x="514" y="-151" type="curve" smooth="yes"/>
      <point x="562" y="-151"/>
      <point x="610" y="-143"/>
      <point x="656" y="-125" type="curve"/>
      <point x="678" y="-182" type="line"/>
      <point x="624" y="-203"/>
      <point x="570" y="-213"/>
      <point x="514" y="-213" type="curve" smooth="yes"/>
      <point x="452" y="-213"/>
      <point x="393" y="-201"/>
      <point x="336" y="-178" type="curve" smooth="yes"/>
      <point x="279" y="-155"/>
      <point x="229" y="-120"/>
      <point x="186" y="-77" type="curve" smooth="yes"/>
      <point x="143" y="-34"/>
      <point x="108" y="16"/>
      <point x="85" y="73" type="curve" smooth="yes"/>
      <point x="62" y="130"/>
      <point x="50" y="189"/>
      <point x="50" y="251" type="curve" smooth="yes"/>
      <point x="50" y="313"/>
      <point x="62" y="372"/>
      <point x="85" y="429" type="curve" smooth="yes"/>
      <point x="108" y="486"/>
      <point x="143" y="536"/>
      <point x="186" y="579" type="curve" smooth="yes"/>
      <point x="229" y="622"/>
      <point x="279" y="657"/>
      <point x="336" y="680" type="curve" smooth="yes"/>
      <point x="393" y="703"/>
      <point x="452" y="715"/>
    </contour>
    <contour>
      <point x="514" y="426" type="curve" smooth="yes"/>
      <point x="466" y="426"/>
      <point x="425" y="409"/>
      <point x="391" y="375" type="curve" smooth="yes"/>
      <point x="357" y="341"/>
      <point x="339" y="299"/>
      <point x="339" y="251" type="curve" smooth="yes"/>
      <point x="339" y="203"/>
      <point x="357" y="161"/>
      <point x="391" y="127" type="curve" smooth="yes"/>
      <point x="425" y="93"/>
      <point x="466" y="76"/>
      <point x="514" y="76" type="curve" smooth="yes"/>
      <point x="562" y="76"/>
      <point x="604" y="93"/>
      <point x="638" y="127" type="curve" smooth="yes"/>
      <point x="672" y="161"/>
      <point x="689" y="203"/>
      <point x="689" y="251" type="curve" smooth="yes"/>
      <point x="689" y="299"/>
      <point x="672" y="341"/>
      <point x="638" y="375" type="curve" smooth="yes"/>
      <point x="604" y="409"/>
      <point x="562" y="426"/>
    </contour>
  </outline>
</glyph>
<glyph name="B" format="2">
  <advance width="625"/>
  <unicode hex="0042"/>
  <outline>
    <contour>
      <point x="160" y="326" type="line"/>
      <point x="160" y="62" type="line"/>
      <point x="363" y="62" type="line" smooth="yes"/>
      <point x="399" y="62"/>
      <point x="430" y="75"/>
      <point x="456" y="101" type="curve" smooth="yes"/>
      <point x="482" y="127"/>
      <point x="495" y="158"/>
      <point x="495" y="194" type="curve" smooth="yes"/>
      <point x="495" y="230"/>
      <point x="482" y="261"/>
      <point x="456" y="287" type="curve" smooth="yes"/>
      <point x="430" y="313"/>
      <point x="399" y="326"/>
      <point x="363" y="326" type="curve" smooth="yes"/>
    </contour>
    <contour>
      <point x="160" y="638" type="line"/>
      <point x="160" y="388" type="line"/>
      <point x="327" y="388" type="line" smooth="yes"/>
      <point x="362" y="388"/>
      <point x="392" y="400"/>
      <point x="416" y="424" type="curve" smooth="yes"/>
      <point x="440" y="448"/>
      <point x="452" y="478"/>
      <point x="452" y="513" type="curve" smooth="yes"/>
      <point x="452" y="548"/>
      <point x="440" y="578"/>
      <point x="416" y="602" type="curve" smooth="yes"/>
      <point x="392" y="626"/>
      <point x="362" y="638"/>
      <point x="327" y="638" type="curve" smooth="yes"/>
    </contour>
    <contour>
      <point x="100" y="700" type="line"/>
      <point x="327" y="700" type="line" smooth="yes"/>
      <point x="378" y="700"/>
      <point x="422" y="682"/>
      <point x="459" y="645" type="curve" smooth="yes"/>
      <point x="496" y="608"/>
      <point x="514" y="564"/>
      <point x="514" y="513" type="curve" smooth="yes"/>
      <point x="514" y="454"/>
      <point x="491" y="407"/>
      <point x="446" y="369" type="curve"/>
      <point x="479" y="353"/>
      <point x="505" y="329"/>
      <point x="526" y="298" type="curve" smooth="yes"/>
      <point x="547" y="267"/>
      <point x="557" y="232"/>
      <point x="557" y="194" type="curve" smooth="yes"/>
      <point x="557" y="141"/>
      <point x="538" y="95"/>
      <point x="500" y="57" type="curve" smooth="yes"/>
      <point x="462" y="19"/>
      <point x="416" y="0"/>
      <point x="363" y="0" type="curve" smooth="yes"/>
      <point x="100" y="0" type="line"/>
    </contour>
  </outline>
</glyph>
<glyph name="C" format="2">
  <advance width="683"/>
  <unicode hex="0043"/>
  <outline>
    <contour>
      <point x="392" y="712" type="curve" smooth="yes"/>
      <point x="442" y="712"/>
      <point x="489" y="703"/>
      <point x="531" y="683" type="curve" smooth="yes"/>
      <point x="573" y="663"/>
      <point x="610" y="636"/>
      <point x="641" y="600" type="curve"/>
      <point x="598" y="556" type="line"/>
      <point x="544" y="620"/>
      <point x="476" y="652"/>
      <point x="392" y="652" type="curve" smooth="yes"/>
      <point x="311" y="652"/>
      <point x="244" y="623"/>
      <point x="192" y="564" type="curve" smooth="yes"/>
      <point x="140" y="505"/>
      <point x="113" y="434"/>
      <point x="113" y="350" type="curve" smooth="yes"/>
      <point x="113" y="266"/>
      <point x="140" y="195"/>
      <point x="192" y="136" type="curve" smooth="yes"/>
      <point x="244" y="77"/>
      <point x="311" y="48"/>
      <point x="392" y="48" type="curve" smooth="yes"/>
      <point x="476" y="48"/>
      <point x="544" y="80"/>
      <point x="598" y="144" type="curve"/>
      <point x="641" y="101" type="line"/>
      <point x="610" y="65"/>
      <point x="573" y="38"/>
      <point x="531" y="18" type="curve" smooth="yes"/>
      <point x="489" y="-2"/>
      <point x="442" y="-12"/>
      <point x="392" y="-12" type="curve" smooth="yes"/>
      <point x="293" y="-12"/>
      <point x="212" y="23"/>
      <point x="149" y="93" type="curve" smooth="yes"/>
      <point x="86" y="163"/>
      <point x="53" y="248"/>
      <point x="53" y="350" type="curve" smooth="yes"/>
      <point x="53" y="452"/>
      <point x="86" y="537"/>
      <point x="149" y="607" type="curve" smooth="yes"/>
      <point x="212" y="677"/>
      <point x="293" y="712"/>
    </contour>
  </outline>
</glyph>
<glyph name="F" format="2">
  <advance width="538"/>
  <unicode hex="0046"/>
  <outline>
    <contour>
      <point x="100" y="0" type="line"/>
      <point x="100" y="700" type="line"/>
      <point x="503" y="700" type="line"/>
      <point x="503" y="640" type="line"/>
      <point x="160" y="640" type="line"/>
      <point x="160" y="378" type="line"/>
      <point x="444" y="378" type="line"/>
      <point x="444" y="318" type="line"/>
      <point x="160" y="318" type="line"/>
      <point x="160" y="0" type="line"/>
    </contour>
  </outline>
</glyph>
<glyph name="M" format="2">
  <advance width="792"/>
  <unicode hex="004D"/>
  <outline>
    <contour>
      <point x="139" y="700" type="line"/>
      <point x="205" y="700" type="line"/>
      <point x="397" y="175" type="line"/>
      <point x="588" y="700" type="line"/>
      <point x="654" y="700" type="line"/>
      <point x="778" y="0" type="line"/>
      <point x="717" y="0" type="line"/>
      <point x="612" y="593" type="line"/>
      <point x="431" y="93" type="line"/>
      <point x="362" y="93" type="line"/>
      <point x="181" y="593" type="line"/>
      <point x="76" y="0" type="line"/>
      <point x="15" y="0" type="line"/>
    </contour>
  </outline>
</glyph>
<glyph name="N" format="2">
  <advance width="739"/>
  <unicode hex="004E"/>
  <outline>
    <contour>
      <point x="103" y="700" type="line"/>
      <point x="163" y="700" type="line"/>
      <point x="577" y="106" type="line"/>
      <point x="577" y="700" type="line"/>
      <point x="637" y="700" type="line"/>
      <point x="637" y="0" type="line"/>
      <point x="577" y="0" type="line"/>
      <point x="163" y="594" type="line"/>
      <point x="163" y="0" type="line"/>
      <point x="103" y="0" type="line"/>
    </contour>
  </outline>
</glyph>
<glyph name="O" format="2">
  <advance width="775"/>
  <unicode hex="004F"/>
  <outline>
    <contour>
      <point x="388" y="652" type="curve" smooth="yes"/>
      <point x="307" y="652"/>
      <point x="240" y="623"/>
      <point x="188" y="564" type="curve" smooth="yes"/>
      <point x="136" y="505"/>
      <point x="110" y="434"/>
      <point x="110" y="350" type="curve" smooth="yes"/>
      <point x="110" y="266"/>
      <point x="136" y="195"/>
      <point x="188" y="136" type="curve" smooth="yes"/>
      <point x="240" y="77"/>
      <point x="307" y="48"/>
      <point x="388" y="48" type="curve" smooth="yes"/>
      <point x="469" y="48"/>
      <point x="535" y="77"/>
      <point x="587" y="136" type="curve" smooth="yes"/>
      <point x="639" y="195"/>
      <point x="666" y="266"/>
      <point x="666" y="350" type="curve" smooth="yes"/>
      <point x="666" y="434"/>
      <point x="639" y="505"/>
      <point x="587" y="564" type="curve" smooth="yes"/>
      <point x="535" y="623"/>
      <point x="469" y="652"/>
    </contour>
    <contour>
      <point x="388" y="712" type="curve" smooth="yes"/>
      <point x="487" y="712"/>
      <point x="568" y="677"/>
      <point x="631" y="607" type="curve" smooth="yes"/>
      <point x="694" y="537"/>
      <point x="726" y="452"/>
      <point x="726" y="350" type="curve" smooth="yes"/>
      <point x="726" y="248"/>
      <point x="694" y="163"/>
      <point x="631" y="93" type="curve" smooth="yes"/>
      <point x="568" y="23"/>
      <point x="487" y="-12"/>
      <point x="388" y="-12" type="curve" smooth="yes"/>
      <point x="289" y="-12"/>
      <point x="208" y="23"/>
      <point x="145" y="93" type="curve" smooth="yes"/>
      <point x="82" y="163"/>
      <point x="50" y="248"/>
      <point x="50" y="350" type="curve" smooth="yes"/>
      <point x="50" y="452"/>
      <point x="82" y="537"/>
      <point x="145" y="607" type="curve" smooth="yes"/>
      <point x="208" y="677"/>
      <point x="289" y="712"/>
    </contour>
  </outline>
</glyph>
<glyph name="Q" format="2">
  <advance width="781"/>
  <unicode hex="0051"/>
  <outline>
    <contour>
      <point x="391" y="652" type="curve" smooth="yes"/>
      <point x="310" y="652"/>
      <point x="243" y="623"/>
      <point x="191" y="564" type="curve" smooth="yes"/>
      <point x="139" y="505"/>
      <point x="113" y="434"/>
      <point x="113" y="350" type="curve" smooth="yes"/>
      <point x="113" y="266"/>
      <point x="139" y="195"/>
      <point x="191" y="136" type="curve" smooth="yes"/>
      <point x="243" y="77"/>
      <point x="310" y="48"/>
      <point x="391" y="48" type="curve" smooth="yes"/>
      <point x="459" y="48"/>
      <point x="517" y="68"/>
      <point x="565" y="110" type="curve"/>
      <point x="488" y="186" type="line"/>
      <point x="531" y="229" type="line"/>
      <point x="606" y="154" type="line"/>
      <point x="648" y="209"/>
      <point x="669" y="274"/>
      <point x="669" y="350" type="curve" smooth="yes"/>
      <point x="669" y="434"/>
      <point x="642" y="505"/>
      <point x="590" y="564" type="curve" smooth="yes"/>
      <point x="538" y="623"/>
      <point x="472" y="652"/>
    </contour>
    <contour>
      <point x="391" y="712" type="curve" smooth="yes"/>
      <point x="490" y="712"/>
      <point x="571" y="677"/>
      <point x="634" y="607" type="curve" smooth="yes"/>
      <point x="697" y="537"/>
      <point x="729" y="452"/>
      <point x="729" y="350" type="curve" smooth="yes"/>
      <point x="729" y="257"/>
      <point x="702" y="176"/>
      <point x="649" y="110" type="curve"/>
      <point x="729" y="30" type="line"/>
      <point x="687" y="-12" type="line"/>
      <point x="607" y="67" type="line"/>
      <point x="548" y="14"/>
      <point x="476" y="-12"/>
      <point x="391" y="-12" type="curve" smooth="yes"/>
      <point x="292" y="-12"/>
      <point x="211" y="23"/>
      <point x="148" y="93" type="curve" smooth="yes"/>
      <point x="85" y="163"/>
      <point x="53" y="248"/>
      <point x="53" y="350" type="curve" smooth="yes"/>
      <point x="53" y="452"/>
      <point x="85" y="537"/>
      <point x="148" y="607" type="curve" smooth="yes"/>
      <point x="211" y="677"/>
      <point x="292" y="712"/>
    </contour>
  </outline>
</glyph>
<glyph name="V" format="2">
  <advance width="622"/>
  <unicode hex="0056"/>
  <outline>
    <contour>
      <point x="13" y="700" type="line"/>
      <point x="77" y="700" type="line"/>
      <point x="311" y="84" type="line"/>
      <point x="543" y="700" type="line"/>
      <point x="607" y="700" type="line"/>
      <point x="342" y="0" type="line"/>
      <point x="279" y="0" type="line"/>
    </contour>
  </outline>
</glyph>
<glyph name="W" format="2">
  <advance width="917"/>
  <unicode hex="0057"/>
  <outline>
    <contour>
      <point x="840" y="700" type="line"/>
      <point x="905" y="700" type="line"/>
      <point x="698" y="0" type="line"/>
      <point x="635" y="0" type="line"/>
      <point x="459" y="591" type="line"/>
      <point x="284" y="0" type="line"/>
      <point x="221" y="0" type="line"/>
      <point x="13" y="700" type="line"/>
      <point x="77" y="700" type="line"/>
      <point x="252" y="107" type="line"/>
      <point x="427" y="700" type="line"/>
      <point x="491" y="700" type="line"/>
      <point x="666" y="107" type="line"/>
    </contour>
  </outline>
</glyph>
<glyph name="Z" format="2">
  <advance width="608"/>
  <unicode hex="005A"/>
  <outline>
    <contour>
      <point x="53" y="0" type="line"/>
      <point x="53" y="60" type="line"/>
      <point x="481" y="640" type="line"/>
      <point x="56" y="640" type="line"/>
      <point x="56" y="700" type="line"/>
      <point x="556" y="700" type="line"/>
      <point x="556" y="640" type="line"/>
      <point x="128" y="60" type="line"/>
      <point x="553" y="60" type="line"/>
      <point x="553" y="0" type="line"/>
    </contour>
  </outline>
</glyph>
<glyph name="bracketleft" format="2">
  <advance width="315"/>
  <unicode hex="005B"/>
  <outline>
    <contour>
      <point x="165" y="800" type="line" smooth="yes"/>
      <point x="147" y="800"/>
      <point x="132" y="794"/>
      <point x="119" y="781" type="curve" smooth="yes"/>
      <point x="106" y="768"/>
      <point x="100" y="753"/>
      <point x="100" y="735" type="curve" smooth="yes"/>
      <point x="100" y="-35" type="line" smooth="yes"/>
      <point x="100" y="-53"/>
      <point x="106" y="-68"/>
      <point x="119" y="-81" type="curve" smooth="yes"/>
      <point x="132" y="-94"/>
      <point x="147" y="-100"/>
      <point x="165" y="-100" type="curve" smooth="yes"/>
      <point x="236" y="-100" type="line"/>
      <point x="236" y="-40" type="line"/>
      <point x="165" y="-40" type="line" smooth="yes"/>
      <point x="162" y="-40"/>
      <point x="160" y="-38"/>
      <point x="160" y="-35" type="curve" smooth="yes"/>
      <point x="160" y="735" type="line" smooth="yes"/>
      <point x="160" y="738"/>
      <point x="162" y="740"/>
      <point x="165" y="740" type="curve" smooth="yes"/>
      <point x="236" y="740" type="line"/>
      <point x="236" y="800" type="line"/>
    </contour>
  </outline>
</glyph>
<glyph name="backslash" format="2">
  <advance width="364"/>
  <unicode hex="005C"/>
  <outline>
    <contour>
      <point x="75" y="747" type="line"/>
      <point x="18" y="727" type="line"/>
      <point x="288" y="-84" type="line"/>
      <point x="344" y="-64" type="line"/>
    </contour>
  </outline>
</glyph>
<glyph name="bracketright" format="2">
  <advance width="315"/>
  <unicode hex="005D"/>
  <outline>
    <contour>
      <point x="161" y="800" type="line" smooth="yes"/>
      <point x="179" y="800"/>
      <point x="194" y="794"/>
      <point x="207" y="781" type="curve" smooth="yes"/>
      <point x="220" y="768"/>
      <point x="226" y="753"/>
      <point x="226" y="735" type="curve" smooth="yes"/>
      <point x="226" y="-35" type="line" smooth="yes"/>
      <point x="226" y="-53"/>
      <point x="220" y="-68"/>
      <point x="207" y="-81" type="curve" smooth="yes"/>
      <point x="194" y="-94"/>
      <point x="179" y="-100"/>
      <point x="161" y="-100" type="curve" smooth="yes"/>
      <point x="90" y="-100" type="line"/>
      <point x="90" y="-40" type="line"/>
      <point x="161" y="-40" type="line" smooth="yes"/>
      <point x="164" y="-40"/>
      <point x="166" y="-38"/>
      <point x="166" y="-35" type="curve" smooth="yes"/>
      <point x="166" y="735" type="line" smooth="yes"/>
      <point x="166" y="738"/>
      <point x="164" y="740"/>
      <point x="161" y="740" type="curve" smooth="yes"/>
      <point x="90" y="740" type="line"/>
      <point x="90" y="800" type="line"/>
    </contour>
  </outline>
</glyph>
<glyph name="asciicircum" format="2">
  <advance width="541"/>
  <unicode hex="005E"/>
  <outline>
    <contour>
      <point x="396" y="373" type="line"/>
      <point x="236" y="700" type="line"/>
      <point x="304" y="700" type="line"/>
      <point x="462" y="373" type="line"/>
    </contour>
    <contour>
      <point x="81" y="373" type="line"/>
      <point x="236" y="700" type="line"/>
      <point x="304" y="700" type="line"/>
      <point x="145" y="373" type="line"/>
    </contour>
  </outline>
</glyph>
<glyph name="underscore" format="2">
  <advance width="479"/>
  <unicode hex="005F"/>
  <outline>
    <contour>
      <point x="30" y="-60" type="line"/>
      <point x="30" y="0" type="line"/>
      <point x="450" y="0" type="line"/>
      <point x="450" y="-60" type="line"/>
    </contour>
  </outline>
</glyph>
<glyph name="grave" format="2">
  <advance width="210"/>
  <unicode hex="0060"/>
  <outline>
    <contour>
      <point x="133" y="574" type="line"/>
      <point x="9" y="701" type="line"/>
      <point x="98" y="701" type="line"/>
      <point x="209" y="574" type="line"/>
    </contour>
  </outline>
</glyph>
<glyph name="b" format="2">
  <advance width="608"/>
  <unicode hex="0062"/>
  <outline>
    <contour>
      <point x="316" y="452" type="curve" smooth="yes"/>
      <point x="262" y="452"/>
      <point x="219" y="433"/>
      <point x="187" y="394" type="curve" smooth="yes"/>
      <point x="155" y="355"/>
      <point x="138" y="308"/>
      <point x="138" y="250" type="curve" smooth="yes"/>
      <point x="138" y="192"/>
      <point x="155" y="145"/>
      <point x="187" y="106" type="curve" smooth="yes"/>
      <point x="219" y="67"/>
      <point x="262" y="48"/>
      <point x="316" y="48" type="curve" smooth="yes"/>
      <point x="371" y="48"/>
      <point x="416" y="67"/>
      <point x="450" y="106" type="curve" smooth="yes"/>
      <point x="484" y="145"/>
      <point x="501" y="193"/>
      <point x="501" y="250" type="curve" smooth="yes"/>
      <point x="501" y="307"/>
      <point x="484" y="355"/>
      <point x="450" y="394" type="curve" smooth="yes"/>
      <point x="416" y="433"/>
      <point x="371" y="452"/>
    </contour>
    <contour>
      <point x="316" y="512" type="curve" smooth="yes"/>
      <point x="387" y="512"/>
      <point x="446" y="487"/>
      <point x="492" y="436" type="curve" smooth="yes"/>
      <point x="538" y="385"/>
      <point x="561" y="324"/>
      <point x="561" y="250" type="curve" smooth="yes"/>
      <point x="561" y="176"/>
      <point x="538" y="115"/>
      <point x="492" y="64" type="curve" smooth="yes"/>
      <point x="446" y="13"/>
      <point x="387" y="-12"/>
      <point x="316" y="-12" type="curve" smooth="yes"/>
      <point x="246" y="-12"/>
      <point x="193" y="13"/>
      <point x="154" y="62" type="curve" smooth="yes"/>
      <point x="148" y="69"/>
      <point x="143" y="77"/>
      <point x="138" y="85" type="curve"/>
      <point x="138" y="0" type="line"/>
      <point x="78" y="0" type="line"/>
      <point x="78" y="700" type="line"/>
      <point x="138" y="700" type="line"/>
      <point x="138" y="415" type="line"/>
      <point x="143" y="423"/>
      <point x="148" y="431"/>
      <point x="154" y="438" type="curve" smooth="yes"/>
      <point x="193" y="487"/>
      <point x="246" y="512"/>
    </contour>
  </outline>
</glyph>
<glyph name="e" format="2">
  <advance width="554"/>
  <unicode hex="0065"/>
  <outline>
    <contour>
      <point x="517" y="220" type="line"/>
      <point x="110" y="220" type="line"/>
      <point x="116" y="170"/>
      <point x="136" y="129"/>
      <point x="169" y="97" type="curve" smooth="yes"/>
      <point x="202" y="65"/>
      <point x="244" y="48"/>
      <point x="293" y="48" type="curve" smooth="yes"/>
      <point x="363" y="48"/>
      <point x="417" y="68"/>
      <point x="456" y="107" type="curve"/>
      <point x="497" y="63" type="line"/>
      <point x="447" y="13"/>
      <point x="379" y="-12"/>
      <point x="293" y="-12" type="curve" smooth="yes"/>
      <point x="222" y="-12"/>
      <point x="163" y="13"/>
      <point x="117" y="64" type="curve" smooth="yes"/>
      <point x="71" y="115"/>
      <point x="48" y="177"/>
      <point x="48" y="250" type="curve" smooth="yes"/>
      <point x="48" y="323"/>
      <point x="71" y="385"/>
      <point x="117" y="436" type="curve" smooth="yes"/>
      <point x="163" y="487"/>
      <point x="222" y="512"/>
      <point x="293" y="512" type="curve" smooth="yes"/>
      <point x="363" y="512"/>
      <point x="417" y="488"/>
      <point x="457" y="438" type="curve" smooth="yes"/>
      <point x="497" y="388"/>
      <point x="517" y="325"/>
      <point x="517" y="250" type="curve" smooth="yes"/>
    </contour>
    <contour>
      <point x="293" y="452" type="curve" smooth="yes"/>
      <point x="244" y="452"/>
      <point x="202" y="435"/>
      <point x="169" y="403" type="curve" smooth="yes"/>
      <point x="136" y="371"/>
      <point x="116" y="330"/>
      <point x="110" y="280" type="curve"/>
      <point x="456" y="280" type="line"/>
      <point x="451" y="331"/>
      <point x="435" y="372"/>
      <point x="407" y="404" type="curve" smooth="yes"/>
      <point x="379" y="436"/>
      <point x="341" y="452"/>
    </contour>
  </outline>
</glyph>
<glyph name="f" format="2">
  <advance width="338"/>
  <unicode hex="0066"/>
  <outline>
    <contour>
      <point x="282" y="712" type="curve" smooth="yes"/>
      <point x="334" y="712" type="line"/>
      <point x="334" y="652" type="line"/>
      <point x="282" y="652" type="line" smooth="yes"/>
      <point x="255" y="652"/>
      <point x="232" y="643"/>
      <point x="213" y="624" type="curve" smooth="yes"/>
      <point x="194" y="605"/>
      <point x="185" y="582"/>
      <point x="185" y="555" type="curve" smooth="yes"/>
      <point x="185" y="500" type="line"/>
      <point x="334" y="500" type="line"/>
      <point x="334" y="441" type="line"/>
      <point x="185" y="441" type="line"/>
      <point x="185" y="0" type="line"/>
      <point x="125" y="0" type="line"/>
      <point x="125" y="441" type="line"/>
      <point x="30" y="441" type="line"/>
      <point x="30" y="500" type="line"/>
      <point x="125" y="500" type="line"/>
      <point x="125" y="555" type="line" smooth="yes"/>
      <point x="125" y="598"/>
      <point x="140" y="635"/>
      <point x="171" y="666" type="curve" smooth="yes"/>
      <point x="202" y="697"/>
      <point x="239" y="712"/>
    </contour>
  </outline>
</glyph>
<glyph name="g" format="2">
  <advance width="608"/>
  <unicode hex="0067"/>
  <outline>
    <contour>
      <point x="293" y="512" type="curve" smooth="yes"/>
      <point x="363" y="512"/>
      <point x="416" y="487"/>
      <point x="455" y="438" type="curve" smooth="yes"/>
      <point x="461" y="431"/>
      <point x="466" y="423"/>
      <point x="471" y="415" type="curve"/>
      <point x="471" y="500" type="line"/>
      <point x="531" y="500" type="line"/>
      <point x="531" y="46" type="line" smooth="yes"/>
      <point x="531" y="-29"/>
      <point x="509" y="-92"/>
      <point x="464" y="-140" type="curve" smooth="yes"/>
      <point x="419" y="-188"/>
      <point x="361" y="-212"/>
      <point x="290" y="-212" type="curve" smooth="yes"/>
      <point x="225" y="-212"/>
      <point x="164" y="-195"/>
      <point x="107" y="-162" type="curve"/>
      <point x="132" y="-114" type="line"/>
      <point x="176" y="-143"/>
      <point x="229" y="-157"/>
      <point x="290" y="-157" type="curve" smooth="yes"/>
      <point x="349" y="-157"/>
      <point x="393" y="-138"/>
      <point x="424" y="-98" type="curve" smooth="yes"/>
      <point x="455" y="-58"/>
      <point x="471" y="-11"/>
      <point x="471" y="46" type="curve" smooth="yes"/>
      <point x="471" y="62"/>
      <point x="471" y="69"/>
      <point x="471" y="85" type="curve"/>
      <point x="466" y="77"/>
      <point x="461" y="69"/>
      <point x="455" y="62" type="curve" smooth="yes"/>
      <point x="416" y="13"/>
      <point x="363" y="-12"/>
      <point x="293" y="-12" type="curve" smooth="yes"/>
      <point x="222" y="-12"/>
      <point x="163" y="13"/>
      <point x="117" y="64" type="curve" smooth="yes"/>
      <point x="71" y="115"/>
      <point x="48" y="177"/>
      <point x="48" y="250" type="curve" smooth="yes"/>
      <point x="48" y="323"/>
      <point x="71" y="385"/>
      <point x="117" y="436" type="curve" smooth="yes"/>
      <point x="163" y="487"/>
      <point x="222" y="512"/>
    </contour>
    <contour>
      <point x="293" y="452" type="curve" smooth="yes"/>
      <point x="238" y="452"/>
      <point x="193" y="433"/>
      <point x="159" y="394" type="curve" smooth="yes"/>
      <point x="125" y="355"/>
      <point x="108" y="307"/>
      <point x="108" y="250" type="curve" smooth="yes"/>
      <point x="108" y="193"/>
      <point x="125" y="145"/>
      <point x="159" y="106" type="curve" smooth="yes"/>
      <point x="193" y="67"/>
      <point x="238" y="48"/>
      <point x="293" y="48" type="curve" smooth="yes"/>
      <point x="347" y="48"/>
      <point x="390" y="67"/>
      <point x="422" y="106" type="curve" smooth="yes"/>
      <point x="454" y="145"/>
      <point x="471" y="192"/>
      <point x="471" y="250" type="curve" smooth="yes"/>
      <point x="471" y="308"/>
      <point x="454" y="355"/>
      <point x="422" y="394" type="curve" smooth="yes"/>
      <point x="390" y="433"/>
      <point x="347" y="452"/>
    </contour>
  </outline>
</glyph>
<glyph name="i" format="2">
  <advance width="219"/>
  <unicode hex="0069"/>
  <outline>
    <contour>
      <point x="79" y="0" type="line"/>
      <point x="79" y="500" type="line"/>
      <point x="139" y="500" type="line"/>
      <point x="139" y="0" type="line"/>
    </contour>
    <contour>
      <point x="150" y="670" type="curve" smooth="yes"/>
      <point x="150" y="659"/>
      <point x="147" y="650"/>
      <point x="139" y="642" type="curve" smooth="yes"/>
      <point x="131" y="634"/>
      <point x="121" y="630"/>
      <point x="110" y="630" type="curve" smooth="yes"/>
      <point x="99" y="630"/>
      <point x="90" y="634"/>
      <point x="82" y="642" type="curve" smooth="yes"/>
      <point x="74" y="650"/>
      <point x="70" y="659"/>
      <point x="70" y="670" type="curve" smooth="yes"/>
      <point x="70" y="681"/>
      <point x="74" y="691"/>
      <point x="82" y="699" type="curve" smooth="yes"/>
      <point x="90" y="707"/>
      <point x="99" y="710"/>
      <point x="110" y="710" type="curve" smooth="yes"/>
      <point x="121" y="710"/>
      <point x="131" y="707"/>
      <point x="139" y="699" type="curve" smooth="yes"/>
      <point x="147" y="691"/>
      <point x="150" y="681"/>
    </contour>
  </outline>
</glyph>
<glyph name="j" format="2">
  <advance width="243"/>
  <unicode hex="006A"/>
  <outline>
    <contour>
      <point x="101" y="500" type="line"/>
      <point x="161" y="500" type="line"/>
      <point x="161" y="-7" type="line" smooth="yes"/>
      <point x="161" y="-64"/>
      <point x="141" y="-113"/>
      <point x="100" y="-154" type="curve" smooth="yes"/>
      <point x="59" y="-195"/>
      <point x="10" y="-215"/>
      <point x="-47" y="-215" type="curve"/>
      <point x="-47" y="-155" type="line"/>
      <point x="-6" y="-155"/>
      <point x="29" y="-140"/>
      <point x="58" y="-111" type="curve" smooth="yes"/>
      <point x="87" y="-82"/>
      <point x="101" y="-48"/>
      <point x="101" y="-7" type="curve" smooth="yes"/>
    </contour>
    <contour>
      <point x="171" y="672" type="curve" smooth="yes"/>
      <point x="171" y="661"/>
      <point x="168" y="652"/>
      <point x="160" y="644" type="curve" smooth="yes"/>
      <point x="152" y="636"/>
      <point x="142" y="632"/>
      <point x="131" y="632" type="curve" smooth="yes"/>
      <point x="120" y="632"/>
      <point x="111" y="636"/>
      <point x="103" y="644" type="curve" smooth="yes"/>
      <point x="95" y="652"/>
      <point x="91" y="661"/>
      <point x="91" y="672" type="curve" smooth="yes"/>
      <point x="91" y="683"/>
      <point x="95" y="693"/>
      <point x="103" y="701" type="curve" smooth="yes"/>
      <point x="111" y="709"/>
      <point x="120" y="712"/>
      <point x="131" y="712" type="curve" smooth="yes"/>
      <point x="142" y="712"/>
      <point x="152" y="709"/>
      <point x="160" y="701" type="curve" smooth="yes"/>
      <point x="168" y="693"/>
      <point x="171" y="683"/>
    </contour>
  </outline>
</glyph>
<glyph name="n" format="2">
  <advance width="559"/>
  <unicode hex="006E"/>
  <outline>
    <contour>
      <point x="497" y="0" type="line"/>
      <point x="437" y="0" type="line"/>
      <point x="437" y="268" type="line" smooth="yes"/>
      <point x="437" y="325"/>
      <point x="423" y="369"/>
      <point x="395" y="402" type="curve" smooth="yes"/>
      <point x="367" y="435"/>
      <point x="331" y="452"/>
      <point x="288" y="452" type="curve" smooth="yes"/>
      <point x="245" y="452"/>
      <point x="209" y="435"/>
      <point x="181" y="402" type="curve" smooth="yes"/>
      <point x="153" y="369"/>
      <point x="138" y="325"/>
      <point x="138" y="268" type="curve" smooth="yes"/>
      <point x="138" y="0" type="line"/>
      <point x="78" y="0" type="line"/>
      <point x="78" y="500" type="line"/>
      <point x="138" y="500" type="line"/>
      <point x="138" y="432" type="line"/>
      <point x="141" y="437"/>
      <point x="145" y="442"/>
      <point x="148" y="446" type="curve" smooth="yes"/>
      <point x="183" y="490"/>
      <point x="230" y="512"/>
      <point x="288" y="512" type="curve" smooth="yes"/>
      <point x="348" y="512"/>
      <point x="397" y="489"/>
      <point x="437" y="445" type="curve" smooth="yes"/>
      <point x="477" y="401"/>
      <point x="497" y="341"/>
      <point x="497" y="268" type="curve" smooth="yes"/>
    </contour>
  </outline>
</glyph>
<glyph name="o" format="2">
  <advance width="578"/>
  <unicode hex="006F"/>
  <outline>
    <contour>
      <point x="290" y="452" type="curve" smooth="yes"/>
      <point x="235" y="452"/>
      <point x="190" y="433"/>
      <point x="156" y="394" type="curve" smooth="yes"/>
      <point x="122" y="355"/>
      <point x="105" y="307"/>
      <point x="105" y="250" type="curve" smooth="yes"/>
      <point x="105" y="193"/>
      <point x="122" y="145"/>
      <point x="156" y="106" type="curve" smooth="yes"/>
      <point x="190" y="67"/>
      <point x="235" y="48"/>
      <point x="290" y="48" type="curve" smooth="yes"/>
      <point x="345" y="48"/>
      <point x="389" y="67"/>
      <point x="423" y="106" type="curve" smooth="yes"/>
      <point x="457" y="145"/>
      <point x="474" y="193"/>
      <point x="474" y="250" type="curve" smooth="yes"/>
      <point x="474" y="307"/>
      <point x="457" y="355"/>
      <point x="423" y="394" type="curve" smooth="yes"/>
      <point x="389" y="433"/>
      <point x="345" y="452"/>
    </contour>
    <contour>
      <point x="290" y="512" type="curve" smooth="yes"/>
      <point x="361" y="512"/>
      <point x="419" y="487"/>
      <point x="465" y="436" type="curve" smooth="yes"/>
      <point x="511" y="385"/>
      <point x="534" y="323"/>
      <point x="534" y="250" type="curve" smooth="yes"/>
      <point x="534" y="177"/>
      <point x="511" y="115"/>
      <point x="465" y="64" type="curve" smooth="yes"/>
      <point x="419" y="13"/>
      <point x="361" y="-12"/>
      <point x="290" y="-12" type="curve" smooth="yes"/>
      <point x="219" y="-12"/>
      <point x="160" y="13"/>
      <point x="114" y="64" type="curve" smooth="yes"/>
      <point x="68" y="115"/>
      <point x="45" y="177"/>
      <point x="45" y="250" type="curve" smooth="yes"/>
      <point x="45" y="323"/>
      <point x="68" y="385"/>
      <point x="114" y="436" type="curve" smooth="yes"/>
      <point x="160" y="487"/>
      <point x="219" y="512"/>
    </contour>
  </outline>
</glyph>
<glyph name="q" format="2">
  <advance width="598"/>
  <unicode hex="0071"/>
  <outline>
    <contour>
      <point x="471" y="500" type="line"/>
      <point x="531" y="500" type="line"/>
      <point x="531" y="-200" type="line"/>
      <point x="471" y="-200" type="line"/>
      <point x="471" y="85" type="line"/>
      <point x="466" y="77"/>
      <point x="461" y="69"/>
      <point x="455" y="62" type="curve" smooth="yes"/>
      <point x="416" y="13"/>
      <point x="363" y="-12"/>
      <point x="293" y="-12" type="curve" smooth="yes"/>
      <point x="222" y="-12"/>
      <point x="163" y="13"/>
      <point x="117" y="64" type="curve" smooth="yes"/>
      <point x="71" y="115"/>
      <point x="48" y="176"/>
      <point x="48" y="250" type="curve" smooth="yes"/>
      <point x="48" y="324"/>
      <point x="71" y="385"/>
      <point x="117" y="436" type="curve" smooth="yes"/>
      <point x="163" y="487"/>
      <point x="222" y="512"/>
      <point x="293" y="512" type="curve" smooth="yes"/>
      <point x="363" y="512"/>
      <point x="416" y="487"/>
      <point x="455" y="438" type="curve" smooth="yes"/>
      <point x="461" y="431"/>
      <point x="466" y="423"/>
      <point x="471" y="415" type="curve"/>
    </contour>
    <contour>
      <point x="293" y="48" type="curve" smooth="yes"/>
      <point x="347" y="48"/>
      <point x="390" y="67"/>
      <point x="422" y="106" type="curve" smooth="yes"/>
      <point x="454" y="145"/>
      <point x="471" y="192"/>
      <point x="471" y="250" type="curve" smooth="yes"/>
      <point x="471" y="308"/>
      <point x="454" y="355"/>
      <point x="422" y="394" type="curve" smooth="yes"/>
      <point x="390" y="433"/>
      <point x="347" y="452"/>
      <point x="293" y="452" type="curve" smooth="yes"/>
      <point x="238" y="452"/>
      <point x="193" y="433"/>
      <point x="159" y="394" type="curve" smooth="yes"/>
      <point x="125" y="355"/>
      <point x="108" y="307"/>
      <point x="108" y="250" type="curve" smooth="yes"/>
      <point x="108" y="193"/>
      <point x="125" y="145"/>
      <point x="159" y="106" type="curve" smooth="yes"/>
      <point x="193" y="67"/>
      <point x="238" y="48"/>
    </contour>
  </outline>
</glyph>
<glyph name="v" format="2">
  <advance width="487"/>
  <unicode hex="0076"/>
  <outline>
    <contour>
      <point x="10" y="500" type="line"/>
      <point x="75" y="500" type="line"/>
      <point x="244" y="80" type="line"/>
      <point x="413" y="500" type="line"/>
      <point x="478" y="500" type="line"/>
      <point x="276" y="0" type="line"/>
      <point x="212" y="0" type="line"/>
    </contour>
  </outline>
</glyph>
<glyph name="z" format="2">
  <advance width="477"/>
  <unicode hex="007A"/>
  <outline>
    <contour>
      <point x="50" y="0" type="line"/>
      <point x="50" y="60" type="line"/>
      <point x="352" y="440" type="line"/>
      <point x="50" y="440" type="line"/>
      <point x="50" y="500" type="line"/>
      <point x="428" y="500" type="line"/>
      <point x="428" y="440" type="line"/>
      <point x="126" y="60" type="line"/>
      <point x="428" y="60" type="line"/>
      <point x="428" y="0" type="line"/>
    </contour>
  </outline>
</glyph>
<glyph name="braceleft" format="2">
  <advance width="381"/>
  <unicode hex="007B"/>
  <outline>
    <contour>
      <point x="322" y="-100" type="line"/>
      <point x="270" y="-100"/>
      <point x="230" y="-77"/>
      <point x="203" y="-32" type="curve" smooth="yes"/>
      <point x="175" y="16"/>
      <point x="160" y="89"/>
      <point x="160" y="188" type="curve" smooth="yes"/>
      <point x="160" y="232"/>
      <point x="151" y="266"/>
      <point x="134" y="288" type="curve" smooth="yes"/>
      <point x="117" y="309"/>
      <point x="93" y="320"/>
      <point x="60" y="320" type="curve"/>
      <point x="60" y="380" type="line"/>
      <point x="97" y="380"/>
      <point x="123" y="393"/>
      <point x="140" y="420" type="curve" smooth="yes"/>
      <point x="154" y="442"/>
      <point x="160" y="472"/>
      <point x="160" y="512" type="curve" smooth="yes"/>
      <point x="160" y="612"/>
      <point x="175" y="686"/>
      <point x="204" y="734" type="curve" smooth="yes"/>
      <point x="231" y="778"/>
      <point x="270" y="800"/>
      <point x="322" y="800" type="curve"/>
      <point x="322" y="740" type="line"/>
      <point x="291" y="739"/>
      <point x="267" y="723"/>
      <point x="250" y="692" type="curve" smooth="yes"/>
      <point x="229" y="654"/>
      <point x="220" y="595"/>
      <point x="220" y="513" type="curve" smooth="yes"/>
      <point x="220" y="459"/>
      <point x="209" y="416"/>
      <point x="188" y="386" type="curve" smooth="yes"/>
      <point x="178" y="371"/>
      <point x="166" y="359"/>
      <point x="150" y="350" type="curve"/>
      <point x="159" y="345"/>
      <point x="168" y="338"/>
      <point x="175" y="330" type="curve" smooth="yes"/>
      <point x="205" y="299"/>
      <point x="220" y="252"/>
      <point x="220" y="187" type="curve" smooth="yes"/>
      <point x="220" y="98"/>
      <point x="232" y="35"/>
      <point x="256" y="-2" type="curve" smooth="yes"/>
      <point x="272" y="-26"/>
      <point x="295" y="-39"/>
      <point x="322" y="-40" type="curve"/>
    </contour>
  </outline>
</glyph>
<glyph name="bar" format="2">
  <advance width="257"/>
  <unicode hex="007C"/>
  <outline>
    <contour>
      <point x="99" y="790" type="line"/>
      <point x="159" y="790" type="line"/>
      <point x="159" y="-220" type="line"/>
      <point x="99" y="-220" type="line"/>
    </contour>
  </outline>
</glyph>
<glyph name="braceright" format="2">
  <advance width="387"/>
  <unicode hex="007D"/>
  <outline>
    <contour>
      <point x="63" y="-100" type="line"/>
      <point x="115" y="-100"/>
      <point x="155" y="-77"/>
      <point x="182" y="-32" type="curve" smooth="yes"/>
      <point x="210" y="16"/>
      <point x="225" y="89"/>
      <point x="225" y="188" type="curve" smooth="yes"/>
      <point x="225" y="232"/>
      <point x="234" y="266"/>
      <point x="251" y="288" type="curve" smooth="yes"/>
      <point x="268" y="309"/>
      <point x="292" y="320"/>
      <point x="325" y="320" type="curve"/>
      <point x="325" y="380" type="line"/>
      <point x="288" y="380"/>
      <point x="262" y="393"/>
      <point x="245" y="420" type="curve" smooth="yes"/>
      <point x="231" y="442"/>
      <point x="225" y="472"/>
      <point x="225" y="512" type="curve" smooth="yes"/>
      <point x="225" y="612"/>
      <point x="210" y="686"/>
      <point x="181" y="734" type="curve" smooth="yes"/>
      <point x="154" y="778"/>
      <point x="115" y="800"/>
      <point x="63" y="800" type="curve"/>
      <point x="63" y="740" type="line"/>
      <point x="94" y="739"/>
      <point x="117" y="723"/>
      <point x="134" y="692" type="curve" smooth="yes"/>
      <point x="155" y="654"/>
      <point x="165" y="595"/>
      <point x="165" y="513" type="curve" smooth="yes"/>
      <point x="165" y="459"/>
      <point x="175" y="416"/>
      <point x="196" y="386" type="curve" smooth="yes"/>
      <point x="206" y="371"/>
      <point x="219" y="359"/>
      <point x="235" y="350" type="curve"/>
      <point x="226" y="345"/>
      <point x="217" y="338"/>
      <point x="210" y="330" type="curve" smooth="yes"/>
      <point x="180" y="299"/>
      <point x="165" y="252"/>
      <point x="165" y="187" type="curve" smooth="yes"/>
      <point x="165" y="98"/>
      <point x="152" y="35"/>
      <point x="128" y="-2" type="curve" smooth="yes"/>
      <point x="112" y="-26"/>
      <point x="90" y="-39"/>
      <point x="63" y="-40" type="curve"/>
    </contour>
  </outline>
</glyph>
<glyph name="asciitilde" format="2">
  <advance width="528"/>
  <unicode hex="007E"/>
  <outline>
    <contour>
      <point x="177" y="396" type="curve" smooth="yes"/>
      <point x="214" y="396"/>
      <point x="250" y="377"/>
      <point x="284" y="340" type="curve" smooth="yes"/>
      <point x="293" y="331"/>
      <point x="301" y="323"/>
      <point x="308" y="317" type="curve" smooth="yes"/>
      <point x="323" y="303"/>
      <point x="338" y="297"/>
      <point x="351" y="297" type="curve" smooth="yes"/>
      <point x="369" y="297"/>
      <point x="382" y="302"/>
      <point x="390" y="311" type="curve" smooth="yes"/>
      <point x="400" y="322"/>
      <point x="407" y="341"/>
      <point x="409" y="368" type="curve"/>
      <point x="469" y="368" type="line"/>
      <point x="464" y="320"/>
      <point x="448" y="284"/>
      <point x="425" y="263" type="curve" smooth="yes"/>
      <point x="406" y="246"/>
      <point x="382" y="237"/>
      <point x="351" y="237" type="curve" smooth="yes"/>
      <point x="315" y="237"/>
      <point x="280" y="255"/>
      <point x="247" y="291" type="curve" smooth="yes"/>
      <point x="231" y="309"/>
      <point x="217" y="321"/>
      <point x="204" y="328" type="curve" smooth="yes"/>
      <point x="194" y="333"/>
      <point x="185" y="336"/>
      <point x="177" y="336" type="curve" smooth="yes"/>
      <point x="159" y="336"/>
      <point x="147" y="331"/>
      <point x="138" y="321" type="curve" smooth="yes"/>
      <point x="128" y="310"/>
      <point x="122" y="291"/>
      <point x="120" y="265" type="curve"/>
      <point x="60" y="265" type="line"/>
      <point x="64" y="313"/>
      <point x="78" y="348"/>
      <point x="101" y="369" type="curve" smooth="yes"/>
      <point x="120" y="387"/>
      <point x="145" y="396"/>
    </contour>
  </outline>
</glyph>
<glyph name="exclamdown" format="2">
  <advance width="297"/>
  <unicode hex="00A1"/>
  <outline>
    <contour>
      <point x="149" y="420" type="curve" smooth="yes"/>
      <point x="162" y="420"/>
      <point x="173" y="425"/>
      <point x="182" y="434" type="curve" smooth="yes"/>
      <point x="191" y="443"/>
      <point x="195" y="453"/>
      <point x="195" y="466" type="curve" smooth="yes"/>
      <point x="195" y="479"/>
      <point x="191" y="490"/>
      <point x="182" y="499" type="curve" smooth="yes"/>
      <point x="173" y="508"/>
      <point x="162" y="512"/>
      <point x="149" y="512" type="curve" smooth="yes"/>
      <point x="136" y="512"/>
      <point x="125" y="508"/>
      <point x="116" y="499" type="curve" smooth="yes"/>
      <point x="107" y="490"/>
      <point x="103" y="479"/>
      <point x="103" y="466" type="curve" smooth="yes"/>
      <point x="103" y="453"/>
      <point x="107" y="443"/>
      <point x="116" y="434" type="curve" smooth="yes"/>
      <point x="125" y="425"/>
      <point x="136" y="420"/>
    </contour>
    <contour>
      <point x="119" y="-202" type="line"/>
      <point x="179" y="-202" type="line"/>
      <point x="179" y="305" type="line"/>
      <point x="119" y="305" type="line"/>
    </contour>
  </outline>
</glyph>
<glyph name="cent" format="2">
  <advance width="493"/>
  <unicode hex="00A2"/>
  <outline>
    <contour>
      <point x="304" y="612" type="line"/>
      <point x="367" y="609"/>
      <point x="421" y="583"/>
      <point x="464" y="537" type="curve"/>
      <point x="423" y="493" type="line"/>
      <point x="392" y="528"/>
      <point x="351" y="548"/>
      <point x="304" y="551" type="curve"/>
      <point x="304" y="149" type="line"/>
      <point x="351" y="152"/>
      <point x="392" y="172"/>
      <point x="423" y="207" type="curve"/>
      <point x="464" y="163" type="line"/>
      <point x="421" y="117"/>
      <point x="367" y="91"/>
      <point x="304" y="88" type="curve"/>
      <point x="304" y="0" type="line"/>
      <point x="245" y="0" type="line"/>
      <point x="245" y="92" type="line"/>
      <point x="194" y="101"/>
      <point x="150" y="124"/>
      <point x="114" y="164" type="curve" smooth="yes"/>
      <point x="68" y="215"/>
      <point x="45" y="276"/>
      <point x="45" y="350" type="curve" smooth="yes"/>
      <point x="45" y="424"/>
      <point x="68" y="485"/>
      <point x="114" y="536" type="curve" smooth="yes"/>
      <point x="150" y="576"/>
      <point x="194" y="599"/>
      <point x="245" y="608" type="curve"/>
      <point x="245" y="700" type="line"/>
      <point x="304" y="700" type="line"/>
    </contour>
    <contour>
      <point x="245" y="546" type="line"/>
      <point x="210" y="538"/>
      <point x="180" y="521"/>
      <point x="156" y="494" type="curve" smooth="yes"/>
      <point x="122" y="455"/>
      <point x="105" y="407"/>
      <point x="105" y="350" type="curve" smooth="yes"/>
      <point x="105" y="293"/>
      <point x="122" y="246"/>
      <point x="156" y="207" type="curve" smooth="yes"/>
      <point x="180" y="180"/>
      <point x="210" y="161"/>
      <point x="245" y="153" type="curve"/>
    </contour>
  </outline>
</glyph>
<glyph name="sterling" format="2">
  <advance width="569"/>
  <unicode hex="00A3"/>
  <outline>
    <contour>
      <point x="519" y="63" type="line"/>
      <point x="519" y="0" type="line"/>
      <point x="50" y="0" type="line"/>
      <point x="50" y="63" type="line"/>
      <point x="72" y="63"/>
      <point x="90" y="70"/>
      <point x="106" y="86" type="curve" smooth="yes"/>
      <point x="122" y="102"/>
      <point x="130" y="121"/>
      <point x="130" y="143" type="curve" smooth="yes"/>
      <point x="130" y="287" type="line"/>
      <point x="50" y="287" type="line"/>
      <point x="50" y="350" type="line"/>
      <point x="130" y="350" type="line"/>
      <point x="130" y="517" type="line" smooth="yes"/>
      <point x="130" y="571"/>
      <point x="149" y="617"/>
      <point x="187" y="655" type="curve" smooth="yes"/>
      <point x="225" y="693"/>
      <point x="271" y="712"/>
      <point x="325" y="712" type="curve" smooth="yes"/>
      <point x="379" y="712"/>
      <point x="425" y="693"/>
      <point x="463" y="655" type="curve" smooth="yes"/>
      <point x="501" y="617"/>
      <point x="520" y="571"/>
      <point x="520" y="517" type="curve"/>
      <point x="456" y="517" type="line"/>
      <point x="456" y="553"/>
      <point x="443" y="583"/>
      <point x="417" y="609" type="curve" smooth="yes"/>
      <point x="391" y="635"/>
      <point x="361" y="648"/>
      <point x="325" y="648" type="curve" smooth="yes"/>
      <point x="289" y="648"/>
      <point x="258" y="635"/>
      <point x="232" y="609" type="curve" smooth="yes"/>
      <point x="206" y="583"/>
      <point x="194" y="553"/>
      <point x="194" y="517" type="curve" smooth="yes"/>
      <point x="194" y="350" type="line"/>
      <point x="392" y="350" type="line"/>
      <point x="392" y="287" type="line"/>
      <point x="194" y="287" type="line"/>
      <point x="194" y="143" type="line" smooth="yes"/>
      <point x="194" y="115"/>
      <point x="185" y="88"/>
      <point x="168" y="63" type="curve"/>
    </contour>
  </outline>
</glyph>
<glyph name="currency" format="2">
  <advance width="538"/>
  <unicode hex="00A4"/>
  <outline>
    <contour>
      <point x="339" y="419" type="curve" smooth="yes"/>
      <point x="320" y="438"/>
      <point x="297" y="448"/>
      <point x="270" y="448" type="curve" smooth="yes"/>
      <point x="243" y="448"/>
      <point x="219" y="438"/>
      <point x="200" y="419" type="curve" smooth="yes"/>
      <point x="181" y="400"/>
      <point x="171" y="377"/>
      <point x="171" y="350" type="curve" smooth="yes"/>
      <point x="171" y="323"/>
      <point x="181" y="300"/>
      <point x="200" y="281" type="curve" smooth="yes"/>
      <point x="219" y="262"/>
      <point x="243" y="252"/>
      <point x="270" y="252" type="curve" smooth="yes"/>
      <point x="297" y="252"/>
      <point x="320" y="262"/>
      <point x="339" y="281" type="curve" smooth="yes"/>
      <point x="358" y="300"/>
      <point x="368" y="323"/>
      <point x="368" y="350" type="curve" smooth="yes"/>
      <point x="368" y="377"/>
      <point x="358" y="400"/>
    </contour>
    <contour>
      <point x="417" y="540" type="line"/>
      <point x="459" y="497" type="line"/>
      <point x="400" y="438" type="line"/>
      <point x="418" y="412"/>
      <point x="428" y="383"/>
      <point x="428" y="350" type="curve" smooth="yes"/>
      <point x="428" y="317"/>
      <point x="418" y="287"/>
      <point x="400" y="261" type="curve"/>
      <point x="459" y="203" type="line"/>
      <point x="417" y="161" type="line"/>
      <point x="358" y="219" type="line"/>
      <point x="332" y="201"/>
      <point x="303" y="192"/>
      <point x="270" y="192" type="curve" smooth="yes"/>
      <point x="237" y="192"/>
      <point x="207" y="201"/>
      <point x="181" y="219" type="curve"/>
      <point x="123" y="161" type="line"/>
      <point x="80" y="203" type="line"/>
      <point x="138" y="261" type="line"/>
      <point x="120" y="287"/>
      <point x="111" y="317"/>
      <point x="111" y="350" type="curve" smooth="yes"/>
      <point x="111" y="383"/>
      <point x="120" y="412"/>
      <point x="138" y="438" type="curve"/>
      <point x="80" y="497" type="line"/>
      <point x="123" y="540" type="line"/>
      <point x="181" y="481" type="line"/>
      <point x="207" y="499"/>
      <point x="237" y="508"/>
      <point x="270" y="508" type="curve" smooth="yes"/>
      <point x="303" y="508"/>
      <point x="332" y="499"/>
      <point x="358" y="481" type="curve"/>
    </contour>
  </outline>
</glyph>
<glyph name="yen" format="2">
  <advance width="521"/>
  <unicode hex="00A5"/>
  <outline>
    <contour>
      <point x="91" y="282" type="line"/>
      <point x="91" y="342" type="line"/>
      <point x="206" y="342" type="line"/>
      <point x="13" y="712" type="line"/>
      <point x="81" y="712" type="line"/>
      <point x="261" y="365" type="line"/>
      <point x="441" y="712" type="line"/>
      <point x="509" y="712" type="line"/>
      <point x="316" y="342" type="line"/>
      <point x="431" y="342" type="line"/>
      <point x="431" y="282" type="line"/>
      <point x="291" y="282" type="line"/>
      <point x="291" y="205" type="line"/>
      <point x="431" y="205" type="line"/>
      <point x="431" y="145" type="line"/>
      <point x="291" y="145" type="line"/>
      <point x="291" y="0" type="line"/>
      <point x="231" y="0" type="line"/>
      <point x="231" y="145" type="line"/>
      <point x="91" y="145" type="line"/>
      <point x="91" y="205" type="line"/>
      <point x="231" y="205" type="line"/>
      <point x="231" y="282" type="line"/>
    </contour>
  </outline>
</glyph>
<glyph name="brokenbar" format="2">
  <advance width="259"/>
  <unicode hex="00A6"/>
  <outline>
    <contour>
      <point x="100" y="-220" type="line"/>
      <point x="100" y="220" type="line"/>
      <point x="160" y="220" type="line"/>
      <point x="160" y="-220" type="line"/>
    </contour>
    <contour>
      <point x="100" y="350" type="line"/>
      <point x="100" y="790" type="line"/>
      <point x="160" y="790" type="line"/>
      <point x="160" y="350" type="line"/>
    </contour>
  </outline>
</glyph>
<glyph name="section" format="2">
  <advance width="525"/>
  <unicode hex="00A7"/>
  <outline>
    <contour>
      <point x="263" y="712" type="curve" smooth="yes"/>
      <point x="307" y="712"/>
      <point x="346" y="697"/>
      <point x="378" y="667" type="curve" smooth="yes"/>
      <point x="410" y="637"/>
      <point x="425" y="602"/>
      <point x="425" y="560" type="curve"/>
      <point x="369" y="560" type="line"/>
      <point x="369" y="586"/>
      <point x="358" y="608"/>
      <point x="337" y="627" type="curve" smooth="yes"/>
      <point x="316" y="646"/>
      <point x="292" y="655"/>
      <point x="263" y="655" type="curve" smooth="yes"/>
      <point x="234" y="655"/>
      <point x="209" y="646"/>
      <point x="188" y="627" type="curve" smooth="yes"/>
      <point x="167" y="608"/>
      <point x="158" y="586"/>
      <point x="158" y="560" type="curve" smooth="yes"/>
      <point x="158" y="534"/>
      <point x="167" y="511"/>
      <point x="188" y="492" type="curve" smooth="yes"/>
      <point x="209" y="473"/>
      <point x="234" y="464"/>
      <point x="263" y="464" type="curve" smooth="yes"/>
      <point x="307" y="464"/>
      <point x="346" y="449"/>
      <point x="378" y="419" type="curve" smooth="yes"/>
      <point x="410" y="389"/>
      <point x="426" y="353"/>
      <point x="426" y="311" type="curve" smooth="yes"/>
      <point x="426" y="269"/>
      <point x="410" y="233"/>
      <point x="378" y="203" type="curve" smooth="yes"/>
      <point x="372" y="197"/>
      <point x="364" y="192"/>
      <point x="357" y="187" type="curve"/>
      <point x="364" y="182"/>
      <point x="372" y="176"/>
      <point x="378" y="170" type="curve" smooth="yes"/>
      <point x="410" y="140"/>
      <point x="425" y="104"/>
      <point x="425" y="62" type="curve" smooth="yes"/>
      <point x="425" y="20"/>
      <point x="410" y="-15"/>
      <point x="378" y="-45" type="curve" smooth="yes"/>
      <point x="346" y="-75"/>
      <point x="307" y="-90"/>
      <point x="263" y="-90" type="curve" smooth="yes"/>
      <point x="219" y="-90"/>
      <point x="180" y="-75"/>
      <point x="148" y="-45" type="curve" smooth="yes"/>
      <point x="116" y="-15"/>
      <point x="101" y="20"/>
      <point x="101" y="62" type="curve"/>
      <point x="158" y="62" type="line"/>
      <point x="158" y="36"/>
      <point x="167" y="14"/>
      <point x="188" y="-5" type="curve" smooth="yes"/>
      <point x="209" y="-24"/>
      <point x="234" y="-33"/>
      <point x="263" y="-33" type="curve" smooth="yes"/>
      <point x="292" y="-33"/>
      <point x="316" y="-24"/>
      <point x="337" y="-5" type="curve" smooth="yes"/>
      <point x="358" y="14"/>
      <point x="369" y="36"/>
      <point x="369" y="62" type="curve" smooth="yes"/>
      <point x="369" y="88"/>
      <point x="358" y="111"/>
      <point x="337" y="130" type="curve" smooth="yes"/>
      <point x="316" y="149"/>
      <point x="292" y="158"/>
      <point x="263" y="158" type="curve" smooth="yes"/>
      <point x="219" y="158"/>
      <point x="180" y="173"/>
      <point x="148" y="203" type="curve" smooth="yes"/>
      <point x="116" y="233"/>
      <point x="100" y="269"/>
      <point x="100" y="311" type="curve" smooth="yes"/>
      <point x="100" y="353"/>
      <point x="116" y="389"/>
      <point x="148" y="419" type="curve" smooth="yes"/>
      <point x="154" y="425"/>
      <point x="161" y="431"/>
      <point x="168" y="436" type="curve"/>
      <point x="161" y="441"/>
      <point x="154" y="446"/>
      <point x="148" y="452" type="curve" smooth="yes"/>
      <point x="116" y="482"/>
      <point x="101" y="518"/>
      <point x="101" y="560" type="curve" smooth="yes"/>
      <point x="101" y="602"/>
      <point x="116" y="637"/>
      <point x="148" y="667" type="curve" smooth="yes"/>
      <point x="180" y="697"/>
      <point x="219" y="712"/>
    </contour>
    <contour>
      <point x="263" y="407" type="curve" smooth="yes"/>
      <point x="234" y="407"/>
      <point x="209" y="398"/>
      <point x="188" y="379" type="curve" smooth="yes"/>
      <point x="167" y="360"/>
      <point x="157" y="338"/>
      <point x="157" y="311" type="curve" smooth="yes"/>
      <point x="157" y="284"/>
      <point x="167" y="262"/>
      <point x="188" y="243" type="curve" smooth="yes"/>
      <point x="209" y="224"/>
      <point x="234" y="215"/>
      <point x="263" y="215" type="curve" smooth="yes"/>
      <point x="292" y="215"/>
      <point x="317" y="224"/>
      <point x="338" y="243" type="curve" smooth="yes"/>
      <point x="359" y="262"/>
      <point x="369" y="284"/>
      <point x="369" y="311" type="curve" smooth="yes"/>
      <point x="369" y="338"/>
      <point x="359" y="360"/>
      <point x="338" y="379" type="curve" smooth="yes"/>
      <point x="317" y="398"/>
      <point x="292" y="407"/>
    </contour>
  </outline>
</glyph>
<glyph name="dieresis" format="2">
  <advance width="421"/>
  <unicode hex="00A8"/>
  <outline>
    <contour>
      <point x="90" y="710" type="curve" smooth="yes"/>
      <point x="101" y="710"/>
      <point x="111" y="707"/>
      <point x="119" y="699" type="curve" smooth="yes"/>
      <point x="127" y="691"/>
      <point x="130" y="681"/>
      <point x="130" y="670" type="curve" smooth="yes"/>
      <point x="130" y="659"/>
      <point x="127" y="650"/>
      <point x="119" y="642" type="curve" smooth="yes"/>
      <point x="111" y="634"/>
      <point x="101" y="630"/>
      <point x="90" y="630" type="curve" smooth="yes"/>
      <point x="79" y="630"/>
      <point x="70" y="634"/>
      <point x="62" y="642" type="curve" smooth="yes"/>
      <point x="54" y="650"/>
      <point x="50" y="659"/>
      <point x="50" y="670" type="curve" smooth="yes"/>
      <point x="50" y="681"/>
      <point x="54" y="691"/>
      <point x="62" y="699" type="curve" smooth="yes"/>
      <point x="70" y="707"/>
      <point x="79" y="710"/>
    </contour>
    <contour>
      <point x="332" y="710" type="curve" smooth="yes"/>
      <point x="343" y="710"/>
      <point x="352" y="707"/>
      <point x="360" y="699" type="curve" smooth="yes"/>
      <point x="368" y="691"/>
      <point x="372" y="681"/>
      <point x="372" y="670" type="curve" smooth="yes"/>
      <point x="372" y="659"/>
      <point x="368" y="650"/>
      <point x="360" y="642" type="curve" smooth="yes"/>
      <point x="352" y="634"/>
      <point x="343" y="630"/>
      <point x="332" y="630" type="curve" smooth="yes"/>
      <point x="321" y="630"/>
      <point x="312" y="634"/>
      <point x="304" y="642" type="curve" smooth="yes"/>
      <point x="296" y="650"/>
      <point x="292" y="659"/>
      <point x="292" y="670" type="curve" smooth="yes"/>
      <point x="292" y="681"/>
      <point x="296" y="691"/>
      <point x="304" y="699" type="curve" smooth="yes"/>
      <point x="312" y="707"/>
      <point x="321" y="710"/>
    </contour>
  </outline>
</glyph>
<glyph name="copyright" format="2">
  <advance width="828"/>
  <unicode hex="00A9"/>
  <outline>
    <contour>
      <point x="415" y="712" type="curve" smooth="yes"/>
      <point x="480" y="712"/>
      <point x="540" y="696"/>
      <point x="596" y="664" type="curve" smooth="yes"/>
      <point x="652" y="632"/>
      <point x="696" y="588"/>
      <point x="728" y="532" type="curve" smooth="yes"/>
      <point x="760" y="476"/>
      <point x="776" y="416"/>
      <point x="776" y="351" type="curve" smooth="yes"/>
      <point x="776" y="286"/>
      <point x="760" y="225"/>
      <point x="728" y="169" type="curve" smooth="yes"/>
      <point x="696" y="113"/>
      <point x="652" y="70"/>
      <point x="596" y="38" type="curve" smooth="yes"/>
      <point x="540" y="6"/>
      <point x="480" y="-11"/>
      <point x="415" y="-11" type="curve" smooth="yes"/>
      <point x="350" y="-11"/>
      <point x="289" y="6"/>
      <point x="233" y="38" type="curve" smooth="yes"/>
      <point x="177" y="70"/>
      <point x="133" y="113"/>
      <point x="101" y="169" type="curve" smooth="yes"/>
      <point x="69" y="225"/>
      <point x="53" y="286"/>
      <point x="53" y="351" type="curve" smooth="yes"/>
      <point x="53" y="416"/>
      <point x="69" y="476"/>
      <point x="101" y="532" type="curve" smooth="yes"/>
      <point x="133" y="588"/>
      <point x="177" y="632"/>
      <point x="233" y="664" type="curve" smooth="yes"/>
      <point x="289" y="696"/>
      <point x="350" y="712"/>
    </contour>
    <contour>
      <point x="415" y="652" type="curve" smooth="yes"/>
      <point x="332" y="652"/>
      <point x="260" y="622"/>
      <point x="201" y="563" type="curve" smooth="yes"/>
      <point x="142" y="504"/>
      <point x="113" y="434"/>
      <point x="113" y="351" type="curve" smooth="yes"/>
      <point x="113" y="268"/>
      <point x="142" y="196"/>
      <point x="201" y="137" type="curve" smooth="yes"/>
      <point x="260" y="78"/>
      <point x="332" y="49"/>
      <point x="415" y="49" type="curve" smooth="yes"/>
      <point x="498" y="49"/>
      <point x="569" y="78"/>
      <point x="628" y="137" type="curve" smooth="yes"/>
      <point x="687" y="196"/>
      <point x="716" y="268"/>
      <point x="716" y="351" type="curve" smooth="yes"/>
      <point x="716" y="434"/>
      <point x="687" y="504"/>
      <point x="628" y="563" type="curve" smooth="yes"/>
      <point x="569" y="622"/>
      <point x="498" y="652"/>
    </contour>
    <contour>
      <point x="419" y="548" type="curve" smooth="yes"/>
      <point x="472" y="548"/>
      <point x="516" y="529"/>
      <point x="551" y="491" type="curve"/>
      <point x="508" y="448" type="line"/>
      <point x="485" y="475"/>
      <point x="456" y="488"/>
      <point x="419" y="488" type="curve" smooth="yes"/>
      <point x="382" y="488"/>
      <point x="352" y="474"/>
      <point x="329" y="448" type="curve" smooth="yes"/>
      <point x="306" y="422"/>
      <point x="294" y="389"/>
      <point x="294" y="350" type="curve" smooth="yes"/>
      <point x="294" y="311"/>
      <point x="306" y="278"/>
      <point x="329" y="252" type="curve" smooth="yes"/>
      <point x="352" y="226"/>
      <point x="382" y="212"/>
      <point x="419" y="212" type="curve" smooth="yes"/>
      <point x="456" y="212"/>
      <point x="485" y="225"/>
      <point x="508" y="252" type="curve"/>
      <point x="551" y="208" type="line"/>
      <point x="516" y="170"/>
      <point x="472" y="152"/>
      <point x="419" y="152" type="curve" smooth="yes"/>
      <point x="365" y="152"/>
      <point x="321" y="171"/>
      <point x="286" y="209" type="curve" smooth="yes"/>
      <point x="251" y="247"/>
      <point x="234" y="294"/>
      <point x="234" y="350" type="curve" smooth="yes"/>
      <point x="234" y="406"/>
      <point x="251" y="453"/>
      <point x="286" y="491" type="curve" smooth="yes"/>
      <point x="321" y="529"/>
      <point x="365" y="548"/>
    </contour>
  </outline>
</glyph>
<glyph name="ordfeminine" format="2">
  <advance width="377"/>
  <unicode hex="00AA"/>
  <outline>
    <contour>
      <point x="281" y="700" type="line"/>
      <point x="333" y="700" type="line"/>
      <point x="333" y="400" type="line"/>
      <point x="281" y="400" type="line"/>
      <point x="281" y="439" type="line"/>
      <point x="258" y="408"/>
      <point x="225" y="393"/>
      <point x="182" y="393" type="curve" smooth="yes"/>
      <point x="140" y="393"/>
      <point x="104" y="408"/>
      <point x="76" y="438" type="curve" smooth="yes"/>
      <point x="48" y="469"/>
      <point x="35" y="506"/>
      <point x="35" y="550" type="curve" smooth="yes"/>
      <point x="35" y="594"/>
      <point x="48" y="632"/>
      <point x="76" y="662" type="curve" smooth="yes"/>
      <point x="104" y="692"/>
      <point x="139" y="707"/>
      <point x="182" y="707" type="curve" smooth="yes"/>
      <point x="224" y="707"/>
      <point x="258" y="691"/>
      <point x="281" y="659" type="curve"/>
    </contour>
    <contour>
      <point x="185" y="651" type="curve" smooth="yes"/>
      <point x="157" y="651"/>
      <point x="135" y="642"/>
      <point x="117" y="622" type="curve" smooth="yes"/>
      <point x="99" y="602"/>
      <point x="91" y="579"/>
      <point x="91" y="550" type="curve" smooth="yes"/>
      <point x="91" y="521"/>
      <point x="99" y="498"/>
      <point x="117" y="478" type="curve" smooth="yes"/>
      <point x="135" y="458"/>
      <point x="157" y="448"/>
      <point x="185" y="448" type="curve" smooth="yes"/>
      <point x="212" y="448"/>
      <point x="235" y="458"/>
      <point x="252" y="478" type="curve" smooth="yes"/>
      <point x="269" y="498"/>
      <point x="277" y="521"/>
      <point x="277" y="550" type="curve" smooth="yes"/>
      <point x="277" y="579"/>
      <point x="269" y="602"/>
      <point x="252" y="622" type="curve" smooth="yes"/>
      <point x="235" y="642"/>
      <point x="212" y="651"/>
    </contour>
  </outline>
</glyph>
<glyph name="guillemotleft" format="2">
  <advance width="549"/>
  <unicode hex="00AB"/>
  <outline>
    <contour>
      <point x="272" y="515" type="line"/>
      <point x="315" y="473" type="line"/>
      <point x="140" y="298" type="line"/>
      <point x="315" y="124" type="line"/>
      <point x="272" y="81" type="line"/>
      <point x="55" y="298" type="line"/>
    </contour>
    <contour>
      <point x="449" y="515" type="line"/>
      <point x="492" y="473" type="line"/>
      <point x="317" y="298" type="line"/>
      <point x="492" y="124" type="line"/>
      <point x="449" y="81" type="line"/>
      <point x="232" y="298" type="line"/>
    </contour>
  </outline>
</glyph>
<glyph name="logicalnot" format="2">
  <advance width="625"/>
  <unicode hex="00AC"/>
  <outline>
    <contour>
      <point x="133" y="296" type="line"/>
      <point x="133" y="356" type="line"/>
      <point x="493" y="356" type="line"/>
      <point x="493" y="201" type="line"/>
      <point x="433" y="201" type="line"/>
      <point x="433" y="296" type="line"/>
    </contour>
  </outline>
</glyph>
<glyph name="uni00AD" format="2">
  <advance width="419"/>
  <unicode hex="00AD"/>
  <outline>
    <contour>
      <point x="60" y="268" type="line"/>
      <point x="60" y="328" type="line"/>
      <point x="360" y="328" type="line"/>
      <point x="360" y="268" type="line"/>
    </contour>
  </outline>
</glyph>
<glyph name="registered" format="2">
  <advance width="631"/>
  <unicode hex="00AE"/>
  <outline>
    <contour>
      <point x="316" y="712" type="curve" smooth="yes"/>
      <point x="390" y="712"/>
      <point x="453" y="685"/>
      <point x="505" y="633" type="curve" smooth="yes"/>
      <point x="557" y="581"/>
      <point x="584" y="518"/>
      <point x="584" y="444" type="curve" smooth="yes"/>
      <point x="584" y="370"/>
      <point x="557" y="306"/>
      <point x="505" y="254" type="curve" smooth="yes"/>
      <point x="453" y="202"/>
      <point x="390" y="176"/>
      <point x="316" y="176" type="curve" smooth="yes"/>
      <point x="242" y="176"/>
      <point x="179" y="202"/>
      <point x="127" y="254" type="curve" smooth="yes"/>
      <point x="75" y="306"/>
      <point x="48" y="370"/>
      <point x="48" y="444" type="curve" smooth="yes"/>
      <point x="48" y="518"/>
      <point x="75" y="581"/>
      <point x="127" y="633" type="curve" smooth="yes"/>
      <point x="179" y="685"/>
      <point x="242" y="712"/>
    </contour>
    <contour>
      <point x="316" y="652" type="curve" smooth="yes"/>
      <point x="259" y="652"/>
      <point x="210" y="632"/>
      <point x="169" y="591" type="curve" smooth="yes"/>
      <point x="128" y="550"/>
      <point x="108" y="501"/>
      <point x="108" y="444" type="curve" smooth="yes"/>
      <point x="108" y="387"/>
      <point x="128" y="338"/>
      <point x="169" y="297" type="curve" smooth="yes"/>
      <point x="210" y="256"/>
      <point x="259" y="236"/>
      <point x="316" y="236" type="curve" smooth="yes"/>
      <point x="373" y="236"/>
      <point x="422" y="256"/>
      <point x="463" y="297" type="curve" smooth="yes"/>
      <point x="504" y="338"/>
      <point x="524" y="387"/>
      <point x="524" y="444" type="curve" smooth="yes"/>
      <point x="524" y="501"/>
      <point x="504" y="550"/>
      <point x="463" y="591" type="curve" smooth="yes"/>
      <point x="422" y="632"/>
      <point x="373" y="652"/>
    </contour>
    <contour>
      <point x="228" y="590" type="line"/>
      <point x="336" y="590" type="line" smooth="yes"/>
      <point x="359" y="590"/>
      <point x="380" y="581"/>
      <point x="398" y="563" type="curve" smooth="yes"/>
      <point x="416" y="545"/>
      <point x="424" y="524"/>
      <point x="424" y="501" type="curve" smooth="yes"/>
      <point x="424" y="480"/>
      <point x="418" y="462"/>
      <point x="408" y="447" type="curve" smooth="yes"/>
      <point x="398" y="432"/>
      <point x="386" y="421"/>
      <point x="373" y="415" type="curve"/>
      <point x="424" y="297" type="line"/>
      <point x="360" y="297" type="line"/>
      <point x="311" y="411" type="line"/>
      <point x="288" y="411" type="line"/>
      <point x="288" y="297" type="line"/>
      <point x="228" y="297" type="line"/>
    </contour>
    <contour>
      <point x="288" y="531" type="line"/>
      <point x="288" y="471" type="line"/>
      <point x="332" y="471" type="line" smooth="yes"/>
      <point x="341" y="471"/>
      <point x="349" y="474"/>
      <point x="355" y="479" type="curve" smooth="yes"/>
      <point x="361" y="484"/>
      <point x="364" y="492"/>
      <point x="364" y="501" type="curve" smooth="yes"/>
      <point x="364" y="510"/>
      <point x="361" y="517"/>
      <point x="355" y="522" type="curve" smooth="yes"/>
      <point x="349" y="527"/>
      <point x="341" y="531"/>
      <point x="332" y="531" type="curve" smooth="yes"/>
    </contour>
  </outline>
</glyph>
<glyph name="degree" format="2">
  <advance width="364"/>
  <unicode hex="00B0"/>
  <outline>
    <contour>
      <point x="183" y="717" type="curve" smooth="yes"/>
      <point x="220" y="717"/>
      <point x="250" y="705"/>
      <point x="276" y="679" type="curve" smooth="yes"/>
      <point x="302" y="653"/>
      <point x="315" y="622"/>
      <point x="315" y="585" type="curve" smooth="yes"/>
      <point x="315" y="548"/>
      <point x="302" y="517"/>
      <point x="276" y="491" type="curve" smooth="yes"/>
      <point x="250" y="465"/>
      <point x="220" y="453"/>
      <point x="183" y="453" type="curve" smooth="yes"/>
      <point x="146" y="453"/>
      <point x="115" y="465"/>
      <point x="89" y="491" type="curve" smooth="yes"/>
      <point x="63" y="517"/>
      <point x="50" y="548"/>
      <point x="50" y="585" type="curve" smooth="yes"/>
      <point x="50" y="622"/>
      <point x="63" y="653"/>
      <point x="89" y="679" type="curve" smooth="yes"/>
      <point x="115" y="705"/>
      <point x="146" y="717"/>
    </contour>
    <contour>
      <point x="183" y="658" type="curve" smooth="yes"/>
      <point x="163" y="658"/>
      <point x="145" y="650"/>
      <point x="131" y="636" type="curve" smooth="yes"/>
      <point x="117" y="622"/>
      <point x="110" y="605"/>
      <point x="110" y="585" type="curve" smooth="yes"/>
      <point x="110" y="565"/>
      <point x="117" y="548"/>
      <point x="131" y="534" type="curve" smooth="yes"/>
      <point x="145" y="520"/>
      <point x="163" y="513"/>
      <point x="183" y="513" type="curve" smooth="yes"/>
      <point x="203" y="513"/>
      <point x="220" y="520"/>
      <point x="234" y="534" type="curve" smooth="yes"/>
      <point x="248" y="548"/>
      <point x="255" y="565"/>
      <point x="255" y="585" type="curve" smooth="yes"/>
      <point x="255" y="605"/>
      <point x="248" y="622"/>
      <point x="234" y="636" type="curve" smooth="yes"/>
      <point x="220" y="650"/>
      <point x="203" y="658"/>
    </contour>
  </outline>
</glyph>
<glyph name="plusminus" format="2">
  <advance width="625"/>
  <unicode hex="00B1"/>
  <outline>
    <contour>
      <point x="88" y="0" type="line"/>
      <point x="88" y="60" type="line"/>
      <point x="538" y="60" type="line"/>
      <point x="538" y="0" type="line"/>
    </contour>
    <contour>
      <point x="118" y="312" type="line"/>
      <point x="118" y="373" type="line"/>
      <point x="283" y="373" type="line"/>
      <point x="283" y="547" type="line"/>
      <point x="343" y="547" type="line"/>
      <point x="343" y="373" type="line"/>
      <point x="508" y="373" type="line"/>
      <point x="508" y="312" type="line"/>
      <point x="343" y="312" type="line"/>
      <point x="343" y="139" type="line"/>
      <point x="283" y="139" type="line"/>
      <point x="283" y="312" type="line"/>
    </contour>
  </outline>
</glyph>
<glyph name="uni00B2" format="2">
  <advance width="364"/>
  <unicode hex="00B2"/>
  <outline>
    <contour>
      <point x="168" y="807" type="curve" smooth="yes"/>
      <point x="205" y="807"/>
      <point x="237" y="794"/>
      <point x="263" y="769" type="curve" smooth="yes"/>
      <point x="289" y="744"/>
      <point x="301" y="712"/>
      <point x="301" y="676" type="curve" smooth="yes"/>
      <point x="301" y="644"/>
      <point x="286" y="612"/>
      <point x="257" y="581" type="curve" smooth="yes"/>
      <point x="121" y="439" type="line"/>
      <point x="303" y="439" type="line"/>
      <point x="303" y="379" type="line"/>
      <point x="37" y="379" type="line"/>
      <point x="37" y="439" type="line"/>
      <point x="213" y="622" type="line" smooth="yes"/>
      <point x="233" y="643"/>
      <point x="242" y="660"/>
      <point x="242" y="676" type="curve" smooth="yes"/>
      <point x="242" y="698"/>
      <point x="233" y="715"/>
      <point x="219" y="728" type="curve" smooth="yes"/>
      <point x="205" y="741"/>
      <point x="189" y="747"/>
      <point x="170" y="747" type="curve" smooth="yes"/>
      <point x="152" y="747"/>
      <point x="137" y="741"/>
      <point x="124" y="731" type="curve" smooth="yes"/>
      <point x="111" y="721"/>
      <point x="103" y="708"/>
      <point x="99" y="692" type="curve"/>
      <point x="41" y="705" type="line"/>
      <point x="46" y="734"/>
      <point x="61" y="758"/>
      <point x="85" y="778" type="curve" smooth="yes"/>
      <point x="109" y="798"/>
      <point x="137" y="807"/>
    </contour>
  </outline>
</glyph>
<glyph name="uni00B3" format="2">
  <advance width="359"/>
  <unicode hex="00B3"/>
  <outline>
    <contour>
      <point x="181" y="807" type="curve" smooth="yes"/>
      <point x="216" y="807"/>
      <point x="246" y="795"/>
      <point x="271" y="773" type="curve" smooth="yes"/>
      <point x="296" y="751"/>
      <point x="308" y="723"/>
      <point x="308" y="690" type="curve" smooth="yes"/>
      <point x="308" y="675"/>
      <point x="303" y="660"/>
      <point x="295" y="645" type="curve" smooth="yes"/>
      <point x="287" y="630"/>
      <point x="274" y="617"/>
      <point x="257" y="603" type="curve"/>
      <point x="275" y="591"/>
      <point x="289" y="577"/>
      <point x="300" y="561" type="curve" smooth="yes"/>
      <point x="313" y="542"/>
      <point x="320" y="522"/>
      <point x="320" y="501" type="curve" smooth="yes"/>
      <point x="320" y="465"/>
      <point x="306" y="435"/>
      <point x="279" y="410" type="curve" smooth="yes"/>
      <point x="252" y="385"/>
      <point x="220" y="373"/>
      <point x="182" y="373" type="curve" smooth="yes"/>
      <point x="154" y="373"/>
      <point x="128" y="380"/>
      <point x="105" y="395" type="curve" smooth="yes"/>
      <point x="82" y="410"/>
      <point x="64" y="429"/>
      <point x="55" y="452" type="curve"/>
      <point x="112" y="472" type="line"/>
      <point x="118" y="460"/>
      <point x="128" y="450"/>
      <point x="141" y="443" type="curve" smooth="yes"/>
      <point x="154" y="436"/>
      <point x="168" y="433"/>
      <point x="183" y="433" type="curve" smooth="yes"/>
      <point x="204" y="433"/>
      <point x="223" y="439"/>
      <point x="238" y="452" type="curve" smooth="yes"/>
      <point x="253" y="465"/>
      <point x="260" y="481"/>
      <point x="260" y="501" type="curve" smooth="yes"/>
      <point x="260" y="521"/>
      <point x="253" y="539"/>
      <point x="237" y="552" type="curve" smooth="yes"/>
      <point x="222" y="564"/>
      <point x="205" y="570"/>
      <point x="183" y="570" type="curve" smooth="yes"/>
      <point x="147" y="570" type="line"/>
      <point x="147" y="630" type="line"/>
      <point x="183" y="630" type="line" smooth="yes"/>
      <point x="200" y="630"/>
      <point x="215" y="636"/>
      <point x="229" y="647" type="curve" smooth="yes"/>
      <point x="242" y="658"/>
      <point x="249" y="673"/>
      <point x="249" y="690" type="curve" smooth="yes"/>
      <point x="249" y="708"/>
      <point x="242" y="721"/>
      <point x="229" y="731" type="curve" smooth="yes"/>
      <point x="216" y="741"/>
      <point x="201" y="747"/>
      <point x="182" y="747" type="curve" smooth="yes"/>
      <point x="166" y="747"/>
      <point x="153" y="744"/>
      <point x="141" y="737" type="curve" smooth="yes"/>
      <point x="130" y="731"/>
      <point x="122" y="722"/>
      <point x="118" y="711" type="curve"/>
      <point x="61" y="730" type="line"/>
      <point x="69" y="752"/>
      <point x="85" y="772"/>
      <point x="107" y="786" type="curve" smooth="yes"/>
      <point x="129" y="800"/>
      <point x="155" y="807"/>
    </contour>
  </outline>
</glyph>
<glyph name="acute" format="2">
  <advance width="204"/>
  <unicode hex="00B4"/>
  <outline>
    <contour>
      <point x="1" y="574" type="line"/>
      <point x="110" y="700" type="line"/>
      <point x="199" y="700" type="line"/>
      <point x="77" y="574" type="line"/>
    </contour>
  </outline>
</glyph>
<glyph name="mu" format="2">
  <advance width="553"/>
  <unicode hex="00B5"/>
  <outline>
    <contour>
      <point x="479" y="500" type="line"/>
      <point x="479" y="0" type="line"/>
      <point x="419" y="0" type="line"/>
      <point x="419" y="63" type="line"/>
      <point x="382" y="13"/>
      <point x="332" y="-12"/>
      <point x="270" y="-12" type="curve" smooth="yes"/>
      <point x="208" y="-12"/>
      <point x="157" y="13"/>
      <point x="120" y="63" type="curve"/>
      <point x="120" y="-200" type="line"/>
      <point x="60" y="-200" type="line"/>
      <point x="60" y="500" type="line"/>
      <point x="120" y="500" type="line"/>
      <point x="120" y="232" type="line" smooth="yes"/>
      <point x="120" y="175"/>
      <point x="135" y="131"/>
      <point x="163" y="98" type="curve" smooth="yes"/>
      <point x="191" y="65"/>
      <point x="227" y="48"/>
      <point x="270" y="48" type="curve" smooth="yes"/>
      <point x="313" y="48"/>
      <point x="348" y="65"/>
      <point x="376" y="98" type="curve" smooth="yes"/>
      <point x="404" y="131"/>
      <point x="419" y="175"/>
      <point x="419" y="232" type="curve" smooth="yes"/>
      <point x="419" y="500" type="line"/>
    </contour>
  </outline>
</glyph>
<glyph name="paragraph" format="2">
  <advance width="536"/>
  <unicode hex="00B6"/>
  <outline>
    <contour>
      <point x="250" y="700" type="curve" smooth="yes"/>
      <point x="260" y="700" type="line"/>
      <point x="434" y="700" type="line"/>
      <point x="434" y="-84" type="line"/>
      <point x="374" y="-84" type="line"/>
      <point x="374" y="640" type="line"/>
      <point x="320" y="640" type="line"/>
      <point x="320" y="-84" type="line"/>
      <point x="260" y="-84" type="line"/>
      <point x="260" y="266" type="line"/>
      <point x="250" y="266" type="line" smooth="yes"/>
      <point x="190" y="266"/>
      <point x="138" y="288"/>
      <point x="96" y="330" type="curve" smooth="yes"/>
      <point x="54" y="372"/>
      <point x="33" y="423"/>
      <point x="33" y="483" type="curve" smooth="yes"/>
      <point x="33" y="543"/>
      <point x="54" y="595"/>
      <point x="96" y="637" type="curve" smooth="yes"/>
      <point x="138" y="679"/>
      <point x="190" y="700"/>
    </contour>
  </outline>
</glyph>
<glyph name="periodcentered" format="2">
  <advance width="257"/>
  <unicode hex="00B7"/>
  <outline>
    <contour>
      <point x="175" y="321" type="curve" smooth="yes"/>
      <point x="175" y="308"/>
      <point x="171" y="298"/>
      <point x="162" y="289" type="curve" smooth="yes"/>
      <point x="153" y="280"/>
      <point x="142" y="275"/>
      <point x="129" y="275" type="curve" smooth="yes"/>
      <point x="116" y="275"/>
      <point x="105" y="280"/>
      <point x="96" y="289" type="curve" smooth="yes"/>
      <point x="87" y="298"/>
      <point x="83" y="308"/>
      <point x="83" y="321" type="curve" smooth="yes"/>
      <point x="83" y="334"/>
      <point x="87" y="345"/>
      <point x="96" y="354" type="curve" smooth="yes"/>
      <point x="105" y="363"/>
      <point x="116" y="367"/>
      <point x="129" y="367" type="curve" smooth="yes"/>
      <point x="142" y="367"/>
      <point x="153" y="363"/>
      <point x="162" y="354" type="curve" smooth="yes"/>
      <point x="171" y="345"/>
      <point x="175" y="334"/>
    </contour>
  </outline>
</glyph>
<glyph name="cedilla" format="2">
  <advance width="211"/>
  <unicode hex="00B8"/>
  <outline>
    <contour>
      <point x="187" y="33" type="line"/>
      <point x="217" y="5"/>
      <point x="232" y="-29"/>
      <point x="232" y="-70" type="curve" smooth="yes"/>
      <point x="232" y="-109"/>
      <point x="218" y="-142"/>
      <point x="191" y="-169" type="curve" smooth="yes"/>
      <point x="164" y="-196"/>
      <point x="131" y="-210"/>
      <point x="92" y="-210" type="curve" smooth="yes"/>
      <point x="60" y="-210"/>
      <point x="32" y="-201"/>
      <point x="7" y="-181" type="curve"/>
      <point x="31" y="-152"/>
      <point x="44" y="-137"/>
      <point x="44" y="-137" type="curve"/>
      <point x="58" y="-147"/>
      <point x="74" y="-153"/>
      <point x="92" y="-153" type="curve" smooth="yes"/>
      <point x="114" y="-153"/>
      <point x="134" y="-144"/>
      <point x="150" y="-128" type="curve" smooth="yes"/>
      <point x="166" y="-112"/>
      <point x="175" y="-92"/>
      <point x="175" y="-70" type="curve" smooth="yes"/>
      <point x="175" y="-54"/>
      <point x="171" y="-39"/>
      <point x="163" y="-26" type="curve" smooth="yes"/>
      <point x="155" y="-13"/>
      <point x="144" y="-3"/>
      <point x="130" y="4" type="curve"/>
    </contour>
  </outline>
</glyph>
<glyph name="uni00B9" format="2">
  <advance width="281"/>
  <unicode hex="00B9"/>
  <outline>
    <contour>
      <point x="132" y="800" type="line"/>
      <point x="192" y="800" type="line"/>
      <point x="192" y="380" type="line"/>
      <point x="132" y="380" type="line"/>
      <point x="132" y="722" type="line"/>
      <point x="64" y="665" type="line"/>
      <point x="26" y="711" type="line"/>
    </contour>
  </outline>
</glyph>
<glyph name="ordmasculine" format="2">
  <advance width="370"/>
  <unicode hex="00BA"/>
  <outline>
    <contour>
      <point x="186" y="707" type="curve" smooth="yes"/>
      <point x="230" y="707"/>
      <point x="266" y="692"/>
      <point x="294" y="662" type="curve" smooth="yes"/>
      <point x="322" y="632"/>
      <point x="337" y="594"/>
      <point x="337" y="550" type="curve" smooth="yes"/>
      <point x="337" y="506"/>
      <point x="322" y="468"/>
      <point x="294" y="438" type="curve" smooth="yes"/>
      <point x="266" y="408"/>
      <point x="230" y="393"/>
      <point x="186" y="393" type="curve" smooth="yes"/>
      <point x="142" y="393"/>
      <point x="105" y="408"/>
      <point x="77" y="438" type="curve" smooth="yes"/>
      <point x="49" y="468"/>
      <point x="34" y="506"/>
      <point x="34" y="550" type="curve" smooth="yes"/>
      <point x="34" y="594"/>
      <point x="49" y="632"/>
      <point x="77" y="662" type="curve" smooth="yes"/>
      <point x="105" y="692"/>
      <point x="142" y="707"/>
    </contour>
    <contour>
      <point x="186" y="647" type="curve" smooth="yes"/>
      <point x="159" y="647"/>
      <point x="137" y="638"/>
      <point x="120" y="619" type="curve" smooth="yes"/>
      <point x="103" y="600"/>
      <point x="94" y="577"/>
      <point x="94" y="550" type="curve" smooth="yes"/>
      <point x="94" y="523"/>
      <point x="103" y="499"/>
      <point x="120" y="480" type="curve" smooth="yes"/>
      <point x="137" y="461"/>
      <point x="159" y="453"/>
      <point x="186" y="453" type="curve" smooth="yes"/>
      <point x="213" y="453"/>
      <point x="235" y="461"/>
      <point x="252" y="480" type="curve" smooth="yes"/>
      <point x="269" y="499"/>
      <point x="277" y="523"/>
      <point x="277" y="550" type="curve" smooth="yes"/>
      <point x="277" y="577"/>
      <point x="269" y="600"/>
      <point x="252" y="619" type="curve" smooth="yes"/>
      <point x="235" y="638"/>
      <point x="213" y="647"/>
    </contour>
  </outline>
</glyph>
<glyph name="guillemotright" format="2">
  <advance width="549"/>
  <unicode hex="00BB"/>
  <outline>
    <contour>
      <point x="98" y="515" type="line"/>
      <point x="55" y="473" type="line"/>
      <point x="230" y="298" type="line"/>
      <point x="55" y="124" type="line"/>
      <point x="98" y="81" type="line"/>
      <point x="315" y="298" type="line"/>
    </contour>
    <contour>
      <point x="274" y="515" type="line"/>
      <point x="232" y="473" type="line"/>
      <point x="407" y="298" type="line"/>
      <point x="232" y="124" type="line"/>
      <point x="274" y="81" type="line"/>
      <point x="492" y="298" type="line"/>
    </contour>
  </outline>
</glyph>
<glyph name="onequarter" format="2">
  <advance width="823"/>
  <unicode hex="00BC"/>
  <outline>
    <contour>
      <point x="614" y="420" type="line"/>
      <point x="668" y="394" type="line"/>
      <point x="554" y="151" type="line"/>
      <point x="673" y="151" type="line"/>
      <point x="673" y="270" type="line"/>
      <point x="733" y="270" type="line"/>
      <point x="733" y="151" type="line"/>
      <point x="802" y="151" type="line"/>
      <point x="802" y="91" type="line"/>
      <point x="733" y="91" type="line"/>
      <point x="733" y="0" type="line"/>
      <point x="673" y="0" type="line"/>
      <point x="673" y="91" type="line"/>
      <point x="488" y="91" type="line"/>
      <point x="488" y="151" type="line"/>
    </contour>
    <contour>
      <point x="604" y="700" type="line"/>
      <point x="653" y="666" type="line"/>
      <point x="187" y="0" type="line"/>
      <point x="138" y="34" type="line"/>
    </contour>
    <contour>
      <point x="132" y="700" type="line"/>
      <point x="192" y="700" type="line"/>
      <point x="192" y="280" type="line"/>
      <point x="132" y="280" type="line"/>
      <point x="132" y="622" type="line"/>
      <point x="64" y="565" type="line"/>
      <point x="26" y="611" type="line"/>
    </contour>
  </outline>
</glyph>
<glyph name="onehalf" format="2">
  <advance width="856"/>
  <unicode hex="00BD"/>
  <outline>
    <contour>
      <point x="663" y="427" type="curve" smooth="yes"/>
      <point x="700" y="427"/>
      <point x="732" y="414"/>
      <point x="758" y="389" type="curve" smooth="yes"/>
      <point x="784" y="364"/>
      <point x="796" y="332"/>
      <point x="796" y="296" type="curve" smooth="yes"/>
      <point x="796" y="264"/>
      <point x="781" y="232"/>
      <point x="752" y="201" type="curve" smooth="yes"/>
      <point x="616" y="60" type="line"/>
      <point x="798" y="60" type="line"/>
      <point x="798" y="-0" type="line"/>
      <point x="532" y="-0" type="line"/>
      <point x="532" y="60" type="line"/>
      <point x="708" y="242" type="line" smooth="yes"/>
      <point x="728" y="263"/>
      <point x="736" y="280"/>
      <point x="736" y="296" type="curve" smooth="yes"/>
      <point x="736" y="318"/>
      <point x="728" y="335"/>
      <point x="714" y="348" type="curve" smooth="yes"/>
      <point x="700" y="361"/>
      <point x="684" y="367"/>
      <point x="665" y="367" type="curve" smooth="yes"/>
      <point x="647" y="367"/>
      <point x="632" y="362"/>
      <point x="619" y="352" type="curve" smooth="yes"/>
      <point x="606" y="342"/>
      <point x="598" y="328"/>
      <point x="594" y="312" type="curve"/>
      <point x="536" y="325" type="line"/>
      <point x="541" y="354"/>
      <point x="556" y="377"/>
      <point x="580" y="397" type="curve" smooth="yes"/>
      <point x="604" y="417"/>
      <point x="632" y="427"/>
    </contour>
    <contour>
      <point x="604" y="700" type="line"/>
      <point x="653" y="666" type="line"/>
      <point x="187" y="0" type="line"/>
      <point x="138" y="34" type="line"/>
    </contour>
    <contour>
      <point x="132" y="700" type="line"/>
      <point x="192" y="700" type="line"/>
      <point x="192" y="280" type="line"/>
      <point x="132" y="280" type="line"/>
      <point x="132" y="622" type="line"/>
      <point x="64" y="565" type="line"/>
      <point x="26" y="611" type="line"/>
    </contour>
  </outline>
</glyph>
<glyph name="threequarters" format="2">
  <advance width="895"/>
  <unicode hex="00BE"/>
  <outline>
    <contour>
      <point x="686" y="420" type="line"/>
      <point x="740" y="394" type="line"/>
      <point x="626" y="151" type="line"/>
      <point x="745" y="151" type="line"/>
      <point x="745" y="270" type="line"/>
      <point x="805" y="270" type="line"/>
      <point x="805" y="151" type="line"/>
      <point x="874" y="151" type="line"/>
      <point x="874" y="91" type="line"/>
      <point x="805" y="91" type="line"/>
      <point x="805" y="0" type="line"/>
      <point x="745" y="0" type="line"/>
      <point x="745" y="91" type="line"/>
      <point x="560" y="91" type="line"/>
      <point x="560" y="151" type="line"/>
    </contour>
    <contour>
      <point x="676" y="700" type="line"/>
      <point x="725" y="666" type="line"/>
      <point x="259" y="0" type="line"/>
      <point x="210" y="34" type="line"/>
    </contour>
    <contour>
      <point x="178" y="707" type="curve" smooth="yes"/>
      <point x="213" y="707"/>
      <point x="243" y="695"/>
      <point x="268" y="673" type="curve" smooth="yes"/>
      <point x="293" y="651"/>
      <point x="305" y="623"/>
      <point x="305" y="590" type="curve" smooth="yes"/>
      <point x="305" y="575"/>
      <point x="300" y="560"/>
      <point x="292" y="545" type="curve" smooth="yes"/>
      <point x="284" y="530"/>
      <point x="271" y="516"/>
      <point x="254" y="502" type="curve"/>
      <point x="272" y="490"/>
      <point x="286" y="476"/>
      <point x="297" y="460" type="curve" smooth="yes"/>
      <point x="310" y="441"/>
      <point x="317" y="422"/>
      <point x="317" y="401" type="curve" smooth="yes"/>
      <point x="317" y="365"/>
      <point x="303" y="335"/>
      <point x="276" y="310" type="curve" smooth="yes"/>
      <point x="249" y="285"/>
      <point x="217" y="273"/>
      <point x="179" y="273" type="curve" smooth="yes"/>
      <point x="151" y="273"/>
      <point x="125" y="280"/>
      <point x="102" y="295" type="curve" smooth="yes"/>
      <point x="79" y="310"/>
      <point x="61" y="329"/>
      <point x="52" y="352" type="curve"/>
      <point x="109" y="372" type="line"/>
      <point x="115" y="360"/>
      <point x="125" y="350"/>
      <point x="138" y="343" type="curve" smooth="yes"/>
      <point x="151" y="336"/>
      <point x="165" y="333"/>
      <point x="180" y="333" type="curve" smooth="yes"/>
      <point x="201" y="333"/>
      <point x="220" y="339"/>
      <point x="235" y="352" type="curve" smooth="yes"/>
      <point x="250" y="365"/>
      <point x="257" y="382"/>
      <point x="257" y="402" type="curve" smooth="yes"/>
      <point x="257" y="422"/>
      <point x="250" y="439"/>
      <point x="234" y="452" type="curve" smooth="yes"/>
      <point x="219" y="464"/>
      <point x="202" y="470"/>
      <point x="180" y="470" type="curve" smooth="yes"/>
      <point x="144" y="470" type="line"/>
      <point x="144" y="530" type="line"/>
      <point x="180" y="530" type="line" smooth="yes"/>
      <point x="197" y="530"/>
      <point x="212" y="536"/>
      <point x="226" y="547" type="curve" smooth="yes"/>
      <point x="239" y="558"/>
      <point x="246" y="573"/>
      <point x="246" y="590" type="curve" smooth="yes"/>
      <point x="246" y="608"/>
      <point x="239" y="621"/>
      <point x="226" y="631" type="curve" smooth="yes"/>
      <point x="213" y="641"/>
      <point x="198" y="647"/>
      <point x="179" y="647" type="curve" smooth="yes"/>
      <point x="163" y="647"/>
      <point x="150" y="644"/>
      <point x="138" y="637" type="curve" smooth="yes"/>
      <point x="127" y="631"/>
      <point x="119" y="622"/>
      <point x="115" y="611" type="curve"/>
      <point x="58" y="630" type="line"/>
      <point x="66" y="652"/>
      <point x="82" y="672"/>
      <point x="104" y="686" type="curve" smooth="yes"/>
      <point x="126" y="700"/>
      <point x="152" y="707"/>
    </contour>
  </outline>
</glyph>
<glyph name="questiondown" format="2">
  <advance width="456"/>
  <unicode hex="00BF"/>
  <outline>
    <contour>
      <point x="207" y="467" type="curve" smooth="yes"/>
      <point x="207" y="480"/>
      <point x="211" y="491"/>
      <point x="220" y="500" type="curve" smooth="yes"/>
      <point x="229" y="509"/>
      <point x="240" y="513"/>
      <point x="253" y="513" type="curve" smooth="yes"/>
      <point x="266" y="513"/>
      <point x="276" y="509"/>
      <point x="285" y="500" type="curve" smooth="yes"/>
      <point x="294" y="491"/>
      <point x="299" y="480"/>
      <point x="299" y="467" type="curve" smooth="yes"/>
      <point x="299" y="454"/>
      <point x="294" y="444"/>
      <point x="285" y="435" type="curve" smooth="yes"/>
      <point x="276" y="426"/>
      <point x="266" y="421"/>
      <point x="253" y="421" type="curve" smooth="yes"/>
      <point x="240" y="421"/>
      <point x="229" y="426"/>
      <point x="220" y="435" type="curve" smooth="yes"/>
      <point x="211" y="444"/>
      <point x="207" y="454"/>
    </contour>
    <contour>
      <point x="233" y="-213" type="curve" smooth="yes"/>
      <point x="175" y="-213"/>
      <point x="126" y="-192"/>
      <point x="85" y="-151" type="curve" smooth="yes"/>
      <point x="44" y="-110"/>
      <point x="23" y="-61"/>
      <point x="23" y="-3" type="curve" smooth="yes"/>
      <point x="23" y="37"/>
      <point x="34" y="73"/>
      <point x="56" y="107" type="curve" smooth="yes"/>
      <point x="78" y="141"/>
      <point x="107" y="166"/>
      <point x="144" y="184" type="curve" smooth="yes"/>
      <point x="168" y="196"/>
      <point x="188" y="214"/>
      <point x="203" y="238" type="curve" smooth="yes"/>
      <point x="218" y="262"/>
      <point x="225" y="288"/>
      <point x="225" y="316" type="curve"/>
      <point x="285" y="316" type="line"/>
      <point x="285" y="276"/>
      <point x="274" y="240"/>
      <point x="253" y="206" type="curve" smooth="yes"/>
      <point x="232" y="172"/>
      <point x="205" y="147"/>
      <point x="169" y="130" type="curve" smooth="yes"/>
      <point x="143" y="118"/>
      <point x="123" y="99"/>
      <point x="107" y="75" type="curve" smooth="yes"/>
      <point x="91" y="51"/>
      <point x="83" y="25"/>
      <point x="83" y="-3" type="curve" smooth="yes"/>
      <point x="83" y="-44"/>
      <point x="98" y="-78"/>
      <point x="128" y="-108" type="curve" smooth="yes"/>
      <point x="158" y="-138"/>
      <point x="192" y="-153"/>
      <point x="233" y="-153" type="curve" smooth="yes"/>
      <point x="267" y="-153"/>
      <point x="297" y="-142"/>
      <point x="324" y="-121" type="curve" smooth="yes"/>
      <point x="351" y="-100"/>
      <point x="370" y="-73"/>
      <point x="378" y="-40" type="curve"/>
      <point x="437" y="-50" type="line"/>
      <point x="426" y="-97"/>
      <point x="401" y="-137"/>
      <point x="363" y="-167" type="curve" smooth="yes"/>
      <point x="325" y="-197"/>
      <point x="282" y="-213"/>
    </contour>
  </outline>
</glyph>
<glyph name="Atilde" format="2">
  <advance width="601"/>
  <unicode hex="00C3"/>
  <outline>
    <contour>
      <point x="356" y="742" type="curve" smooth="yes"/>
      <point x="327" y="742"/>
      <point x="303" y="754"/>
      <point x="283" y="778" type="curve" smooth="yes"/>
      <point x="275" y="787"/>
      <point x="268" y="796"/>
      <point x="261" y="803" type="curve" smooth="yes"/>
      <point x="254" y="810"/>
      <point x="247" y="814"/>
      <point x="239" y="814" type="curve" smooth="yes"/>
      <point x="218" y="814"/>
      <point x="205" y="802"/>
      <point x="199" y="777" type="curve"/>
      <point x="140" y="777" type="line"/>
      <point x="143" y="803"/>
      <point x="154" y="824"/>
      <point x="173" y="842" type="curve" smooth="yes"/>
      <point x="192" y="860"/>
      <point x="214" y="870"/>
      <point x="239" y="870" type="curve" smooth="yes"/>
      <point x="264" y="870"/>
      <point x="287" y="858"/>
      <point x="308" y="834" type="curve" smooth="yes"/>
      <point x="316" y="825"/>
      <point x="324" y="816"/>
      <point x="331" y="809" type="curve" smooth="yes"/>
      <point x="338" y="802"/>
      <point x="347" y="798"/>
      <point x="356" y="798" type="curve" smooth="yes"/>
      <point x="377" y="798"/>
      <point x="390" y="811"/>
      <point x="394" y="836" type="curve"/>
      <point x="453" y="836" type="line"/>
      <point x="449" y="809"/>
      <point x="438" y="787"/>
      <point x="420" y="769" type="curve" smooth="yes"/>
      <point x="402" y="751"/>
      <point x="381" y="742"/>
    </contour>
    <contour>
      <point x="171" y="265" type="line"/>
      <point x="431" y="265" type="line"/>
      <point x="301" y="619" type="line"/>
    </contour>
    <contour>
      <point x="149" y="205" type="line"/>
      <point x="75" y="0" type="line"/>
      <point x="10" y="0" type="line"/>
      <point x="271" y="700" type="line"/>
      <point x="331" y="700" type="line"/>
      <point x="592" y="0" type="line"/>
      <point x="527" y="0" type="line"/>
      <point x="453" y="205" type="line"/>
    </contour>
  </outline>
</glyph>
<glyph name="Adieresis" format="2">
  <advance width="601"/>
  <unicode hex="00C4"/>
  <outline>
    <contour>
      <point x="171" y="880" type="curve" smooth="yes"/>
      <point x="182" y="880"/>
      <point x="192" y="877"/>
      <point x="200" y="869" type="curve" smooth="yes"/>
      <point x="208" y="861"/>
      <point x="211" y="851"/>
      <point x="211" y="840" type="curve" smooth="yes"/>
      <point x="211" y="829"/>
      <point x="208" y="820"/>
      <point x="200" y="812" type="curve" smooth="yes"/>
      <point x="192" y="804"/>
      <point x="182" y="800"/>
      <point x="171" y="800" type="curve" smooth="yes"/>
      <point x="160" y="800"/>
      <point x="151" y="804"/>
      <point x="143" y="812" type="curve" smooth="yes"/>
      <point x="135" y="820"/>
      <point x="131" y="829"/>
      <point x="131" y="840" type="curve" smooth="yes"/>
      <point x="131" y="851"/>
      <point x="135" y="861"/>
      <point x="143" y="869" type="curve" smooth="yes"/>
      <point x="151" y="877"/>
      <point x="160" y="880"/>
    </contour>
    <contour>
      <point x="413" y="880" type="curve" smooth="yes"/>
      <point x="424" y="880"/>
      <point x="433" y="877"/>
      <point x="441" y="869" type="curve" smooth="yes"/>
      <point x="449" y="861"/>
      <point x="453" y="851"/>
      <point x="453" y="840" type="curve" smooth="yes"/>
      <point x="453" y="829"/>
      <point x="449" y="820"/>
      <point x="441" y="812" type="curve" smooth="yes"/>
      <point x="433" y="804"/>
      <point x="424" y="800"/>
      <point x="413" y="800" type="curve" smooth="yes"/>
      <point x="402" y="800"/>
      <point x="392" y="804"/>
      <point x="384" y="812" type="curve" smooth="yes"/>
      <point x="376" y="820"/>
      <point x="373" y="829"/>
      <point x="373" y="840" type="curve" smooth="yes"/>
      <point x="373" y="851"/>
      <point x="376" y="861"/>
      <point x="384" y="869" type="curve" smooth="yes"/>
      <point x="392" y="877"/>
      <point x="402" y="880"/>
    </contour>
    <contour>
      <point x="171" y="265" type="line"/>
      <point x="431" y="265" type="line"/>
      <point x="301" y="619" type="line"/>
    </contour>
    <contour>
      <point x="149" y="205" type="line"/>
      <point x="75" y="0" type="line"/>
      <point x="10" y="0" type="line"/>
      <point x="271" y="700" type="line"/>
      <point x="331" y="700" type="line"/>
      <point x="592" y="0" type="line"/>
      <point x="527" y="0" type="line"/>
      <point x="453" y="205" type="line"/>
    </contour>
  </outline>
</glyph>
<glyph name="Aring" format="2">
  <advance width="601"/>
  <unicode hex="00C5"/>
  <outline>
    <contour>
      <point x="300" y="904" type="curve" smooth="yes"/>
      <point x="323" y="904"/>
      <point x="344" y="896"/>
      <point x="361" y="879" type="curve" smooth="yes"/>
      <point x="378" y="862"/>
      <point x="386" y="842"/>
      <point x="386" y="819" type="curve" smooth="yes"/>
      <point x="386" y="796"/>
      <point x="378" y="776"/>
      <point x="361" y="759" type="curve" smooth="yes"/>
      <point x="344" y="742"/>
      <point x="323" y="733"/>
      <point x="300" y="733" type="curve" smooth="yes"/>
      <point x="277" y="733"/>
      <point x="257" y="742"/>
      <point x="240" y="759" type="curve" smooth="yes"/>
      <point x="223" y="776"/>
      <point x="215" y="796"/>
      <point x="215" y="819" type="curve" smooth="yes"/>
      <point x="215" y="842"/>
      <point x="223" y="862"/>
      <point x="240" y="879" type="curve" smooth="yes"/>
      <point x="257" y="896"/>
      <point x="277" y="904"/>
    </contour>
    <contour>
      <point x="300" y="859" type="curve" smooth="yes"/>
      <point x="289" y="859"/>
      <point x="280" y="855"/>
      <point x="272" y="847" type="curve" smooth="yes"/>
      <point x="264" y="839"/>
      <point x="261" y="830"/>
      <point x="261" y="819" type="curve" smooth="yes"/>
      <point x="261" y="808"/>
      <point x="264" y="799"/>
      <point x="272" y="791" type="curve" smooth="yes"/>
      <point x="280" y="783"/>
      <point x="289" y="779"/>
      <point x="300" y="779" type="curve" smooth="yes"/>
      <point x="311" y="779"/>
      <point x="321" y="783"/>
      <point x="329" y="791" type="curve" smooth="yes"/>
      <point x="337" y="799"/>
      <point x="340" y="808"/>
      <point x="340" y="819" type="curve" smooth="yes"/>
      <point x="340" y="830"/>
      <point x="337" y="839"/>
      <point x="329" y="847" type="curve" smooth="yes"/>
      <point x="321" y="855"/>
      <point x="311" y="859"/>
    </contour>
    <contour>
      <point x="171" y="265" type="line"/>
      <point x="431" y="265" type="line"/>
      <point x="301" y="619" type="line"/>
    </contour>
    <contour>
      <point x="149" y="205" type="line"/>
      <point x="75" y="0" type="line"/>
      <point x="10" y="0" type="line"/>
      <point x="271" y="700" type="line"/>
      <point x="331" y="700" type="line"/>
      <point x="592" y="0" type="line"/>
      <point x="527" y="0" type="line"/>
      <point x="453" y="205" type="line"/>
    </contour>
  </outline>
</glyph>
<glyph name="Ccedilla" format="2">
  <advance width="677"/>
  <unicode hex="00C7"/>
  <outline>
    <contour>
      <point x="444" y="33" type="line"/>
      <point x="474" y="5"/>
      <point x="489" y="-29"/>
      <point x="489" y="-70" type="curve" smooth="yes"/>
      <point x="489" y="-109"/>
      <point x="475" y="-142"/>
      <point x="448" y="-169" type="curve" smooth="yes"/>
      <point x="421" y="-196"/>
      <point x="388" y="-210"/>
      <point x="349" y="-210" type="curve" smooth="yes"/>
      <point x="317" y="-210"/>
      <point x="289" y="-201"/>
      <point x="264" y="-181" type="curve"/>
      <point x="288" y="-152"/>
      <point x="301" y="-137"/>
      <point x="301" y="-137" type="curve"/>
      <point x="315" y="-147"/>
      <point x="331" y="-153"/>
      <point x="349" y="-153" type="curve" smooth="yes"/>
      <point x="371" y="-153"/>
      <point x="391" y="-144"/>
      <point x="407" y="-128" type="curve" smooth="yes"/>
      <point x="423" y="-112"/>
      <point x="432" y="-92"/>
      <point x="432" y="-70" type="curve" smooth="yes"/>
      <point x="432" y="-54"/>
      <point x="427" y="-39"/>
      <point x="419" y="-26" type="curve" smooth="yes"/>
      <point x="411" y="-13"/>
      <point x="401" y="-3"/>
      <point x="387" y="4" type="curve"/>
    </contour>
    <contour>
      <point x="389" y="712" type="curve" smooth="yes"/>
      <point x="439" y="712"/>
      <point x="486" y="703"/>
      <point x="528" y="683" type="curve" smooth="yes"/>
      <point x="570" y="663"/>
      <point x="607" y="636"/>
      <point x="638" y="600" type="curve"/>
      <point x="595" y="556" type="line"/>
      <point x="541" y="620"/>
      <point x="473" y="652"/>
      <point x="389" y="652" type="curve" smooth="yes"/>
      <point x="308" y="652"/>
      <point x="241" y="623"/>
      <point x="189" y="564" type="curve" smooth="yes"/>
      <point x="137" y="505"/>
      <point x="110" y="434"/>
      <point x="110" y="350" type="curve" smooth="yes"/>
      <point x="110" y="266"/>
      <point x="137" y="195"/>
      <point x="189" y="136" type="curve" smooth="yes"/>
      <point x="241" y="77"/>
      <point x="308" y="48"/>
      <point x="389" y="48" type="curve" smooth="yes"/>
      <point x="473" y="48"/>
      <point x="541" y="80"/>
      <point x="595" y="144" type="curve"/>
      <point x="638" y="101" type="line"/>
      <point x="607" y="65"/>
      <point x="570" y="38"/>
      <point x="528" y="18" type="curve" smooth="yes"/>
      <point x="486" y="-2"/>
      <point x="439" y="-12"/>
      <point x="389" y="-12" type="curve" smooth="yes"/>
      <point x="290" y="-12"/>
      <point x="209" y="23"/>
      <point x="146" y="93" type="curve" smooth="yes"/>
      <point x="83" y="163"/>
      <point x="50" y="248"/>
      <point x="50" y="350" type="curve" smooth="yes"/>
      <point x="50" y="452"/>
      <point x="83" y="537"/>
      <point x="146" y="607" type="curve" smooth="yes"/>
      <point x="209" y="677"/>
      <point x="290" y="712"/>
    </contour>
  </outline>
</glyph>
<glyph name="Egrave" format="2">
  <advance width="592"/>
  <unicode hex="00C8"/>
  <outline>
    <contour>
      <point x="272" y="744" type="line"/>
      <point x="148" y="871" type="line"/>
      <point x="237" y="871" type="line"/>
      <point x="348" y="744" type="line"/>
    </contour>
    <contour>
      <point x="100" y="0" type="line"/>
      <point x="100" y="700" type="line"/>
      <point x="503" y="700" type="line"/>
      <point x="503" y="640" type="line"/>
      <point x="160" y="640" type="line"/>
      <point x="160" y="389" type="line"/>
      <point x="439" y="389" type="line"/>
      <point x="439" y="329" type="line"/>
      <point x="160" y="329" type="line"/>
      <point x="160" y="60" type="line"/>
      <point x="503" y="60" type="line"/>
      <point x="503" y="0" type="line"/>
    </contour>
  </outline>
</glyph>
<glyph name="Eacute" format="2">
  <advance width="598"/>
  <unicode hex="00C9"/>
  <outline>
    <contour>
      <point x="103" y="0" type="line"/>
      <point x="103" y="700" type="line"/>
      <point x="506" y="700" type="line"/>
      <point x="506" y="640" type="line"/>
      <point x="163" y="640" type="line"/>
      <point x="163" y="389" type="line"/>
      <point x="442" y="389" type="line"/>
      <point x="442" y="329" type="line"/>
      <point x="163" y="329" type="line"/>
      <point x="163" y="60" type="line"/>
      <point x="506" y="60" type="line"/>
      <point x="506" y="0" type="line"/>
    </contour>
    <contour>
      <point x="260" y="744" type="line"/>
      <point x="369" y="870" type="line"/>
      <point x="458" y="870" type="line"/>
      <point x="336" y="744" type="line"/>
    </contour>
  </outline>
</glyph>
<glyph name="Ecircumflex" format="2">
  <advance width="592"/>
  <unicode hex="00CA"/>
  <outline>
    <contour>
      <point x="146" y="744" type="line"/>
      <point x="266" y="870" type="line"/>
      <point x="348" y="870" type="line"/>
      <point x="468" y="744" type="line"/>
      <point x="386" y="744" type="line"/>
      <point x="307" y="824" type="line"/>
      <point x="228" y="744" type="line"/>
    </contour>
    <contour>
      <point x="100" y="0" type="line"/>
      <point x="100" y="700" type="line"/>
      <point x="503" y="700" type="line"/>
      <point x="503" y="640" type="line"/>
      <point x="160" y="640" type="line"/>
      <point x="160" y="389" type="line"/>
      <point x="439" y="389" type="line"/>
      <point x="439" y="329" type="line"/>
      <point x="160" y="329" type="line"/>
      <point x="160" y="60" type="line"/>
      <point x="503" y="60" type="line"/>
      <point x="503" y="0" type="line"/>
    </contour>
  </outline>
</glyph>
<glyph name="Edieresis" format="2">
  <advance width="598"/>
  <unicode hex="00CB"/>
  <outline>
    <contour>
      <point x="190" y="880" type="curve" smooth="yes"/>
      <point x="201" y="880"/>
      <point x="210" y="877"/>
      <point x="218" y="869" type="curve" smooth="yes"/>
      <point x="226" y="861"/>
      <point x="230" y="851"/>
      <point x="230" y="840" type="curve" smooth="yes"/>
      <point x="230" y="829"/>
      <point x="226" y="820"/>
      <point x="218" y="812" type="curve" smooth="yes"/>
      <point x="210" y="804"/>
      <point x="201" y="800"/>
      <point x="190" y="800" type="curve" smooth="yes"/>
      <point x="179" y="800"/>
      <point x="170" y="804"/>
      <point x="162" y="812" type="curve" smooth="yes"/>
      <point x="154" y="820"/>
      <point x="150" y="829"/>
      <point x="150" y="840" type="curve" smooth="yes"/>
      <point x="150" y="851"/>
      <point x="154" y="861"/>
      <point x="162" y="869" type="curve" smooth="yes"/>
      <point x="170" y="877"/>
      <point x="179" y="880"/>
    </contour>
    <contour>
      <point x="432" y="880" type="curve" smooth="yes"/>
      <point x="443" y="880"/>
      <point x="453" y="877"/>
      <point x="461" y="869" type="curve" smooth="yes"/>
      <point x="469" y="861"/>
      <point x="472" y="851"/>
      <point x="472" y="840" type="curve" smooth="yes"/>
      <point x="472" y="829"/>
      <point x="469" y="820"/>
      <point x="461" y="812" type="curve" smooth="yes"/>
      <point x="453" y="804"/>
      <point x="443" y="800"/>
      <point x="432" y="800" type="curve" smooth="yes"/>
      <point x="421" y="800"/>
      <point x="411" y="804"/>
      <point x="403" y="812" type="curve" smooth="yes"/>
      <point x="395" y="820"/>
      <point x="392" y="829"/>
      <point x="392" y="840" type="curve" smooth="yes"/>
      <point x="392" y="851"/>
      <point x="395" y="861"/>
      <point x="403" y="869" type="curve" smooth="yes"/>
      <point x="411" y="877"/>
      <point x="421" y="880"/>
    </contour>
    <contour>
      <point x="103" y="0" type="line"/>
      <point x="103" y="700" type="line"/>
      <point x="506" y="700" type="line"/>
      <point x="506" y="640" type="line"/>
      <point x="163" y="640" type="line"/>
      <point x="163" y="389" type="line"/>
      <point x="442" y="389" type="line"/>
      <point x="442" y="329" type="line"/>
      <point x="163" y="329" type="line"/>
      <point x="163" y="60" type="line"/>
      <point x="506" y="60" type="line"/>
      <point x="506" y="0" type="line"/>
    </contour>
  </outline>
</glyph>
<glyph name="Icircumflex" format="2">
  <advance width="259"/>
  <unicode hex="00CE"/>
  <outline>
    <contour>
      <point x="-32" y="744" type="line"/>
      <point x="88" y="870" type="line"/>
      <point x="170" y="870" type="line"/>
      <point x="290" y="744" type="line"/>
      <point x="208" y="744" type="line"/>
      <point x="129" y="824" type="line"/>
      <point x="50" y="744" type="line"/>
    </contour>
    <contour>
      <point x="100" y="0" type="line"/>
      <point x="100" y="700" type="line"/>
      <point x="160" y="700" type="line"/>
      <point x="160" y="0" type="line"/>
    </contour>
  </outline>
</glyph>
<glyph name="Idieresis" format="2">
  <advance width="265"/>
  <unicode hex="00CF"/>
  <outline>
    <contour>
      <point x="103" y="0" type="line"/>
      <point x="103" y="700" type="line"/>
      <point x="163" y="700" type="line"/>
      <point x="163" y="0" type="line"/>
    </contour>
    <contour>
      <point x="61" y="880" type="curve" smooth="yes"/>
      <point x="72" y="880"/>
      <point x="81" y="877"/>
      <point x="89" y="869" type="curve" smooth="yes"/>
      <point x="97" y="861"/>
      <point x="101" y="851"/>
      <point x="101" y="840" type="curve" smooth="yes"/>
      <point x="101" y="829"/>
      <point x="97" y="820"/>
      <point x="89" y="812" type="curve" smooth="yes"/>
      <point x="81" y="804"/>
      <point x="72" y="800"/>
      <point x="61" y="800" type="curve" smooth="yes"/>
      <point x="50" y="800"/>
      <point x="40" y="804"/>
      <point x="32" y="812" type="curve" smooth="yes"/>
      <point x="24" y="820"/>
      <point x="21" y="829"/>
      <point x="21" y="840" type="curve" smooth="yes"/>
      <point x="21" y="851"/>
      <point x="24" y="861"/>
      <point x="32" y="869" type="curve" smooth="yes"/>
      <point x="40" y="877"/>
      <point x="50" y="880"/>
    </contour>
    <contour>
      <point x="201" y="880" type="curve" smooth="yes"/>
      <point x="212" y="880"/>
      <point x="222" y="877"/>
      <point x="230" y="869" type="curve" smooth="yes"/>
      <point x="238" y="861"/>
      <point x="241" y="851"/>
      <point x="241" y="840" type="curve" smooth="yes"/>
      <point x="241" y="829"/>
      <point x="238" y="820"/>
      <point x="230" y="812" type="curve" smooth="yes"/>
      <point x="222" y="804"/>
      <point x="212" y="800"/>
      <point x="201" y="800" type="curve" smooth="yes"/>
      <point x="190" y="800"/>
      <point x="180" y="804"/>
      <point x="172" y="812" type="curve" smooth="yes"/>
      <point x="164" y="820"/>
      <point x="161" y="829"/>
      <point x="161" y="840" type="curve" smooth="yes"/>
      <point x="161" y="851"/>
      <point x="164" y="861"/>
      <point x="172" y="869" type="curve" smooth="yes"/>
      <point x="180" y="877"/>
      <point x="190" y="880"/>
    </contour>
  </outline>
</glyph>
<glyph name="Ntilde" format="2">
  <advance width="733"/>
  <unicode hex="00D1"/>
  <outline>
    <contour>
      <point x="422" y="742" type="curve" smooth="yes"/>
      <point x="393" y="742"/>
      <point x="369" y="754"/>
      <point x="349" y="778" type="curve" smooth="yes"/>
      <point x="341" y="787"/>
      <point x="334" y="796"/>
      <point x="327" y="803" type="curve" smooth="yes"/>
      <point x="320" y="810"/>
      <point x="313" y="814"/>
      <point x="305" y="814" type="curve" smooth="yes"/>
      <point x="284" y="814"/>
      <point x="271" y="802"/>
      <point x="265" y="777" type="curve"/>
      <point x="206" y="777" type="line"/>
      <point x="209" y="803"/>
      <point x="220" y="824"/>
      <point x="239" y="842" type="curve" smooth="yes"/>
      <point x="258" y="860"/>
      <point x="280" y="870"/>
      <point x="305" y="870" type="curve" smooth="yes"/>
      <point x="330" y="870"/>
      <point x="353" y="858"/>
      <point x="374" y="834" type="curve" smooth="yes"/>
      <point x="382" y="825"/>
      <point x="390" y="816"/>
      <point x="397" y="809" type="curve" smooth="yes"/>
      <point x="404" y="802"/>
      <point x="413" y="798"/>
      <point x="422" y="798" type="curve" smooth="yes"/>
      <point x="443" y="798"/>
      <point x="456" y="811"/>
      <point x="460" y="836" type="curve"/>
      <point x="519" y="836" type="line"/>
      <point x="515" y="809"/>
      <point x="504" y="787"/>
      <point x="486" y="769" type="curve" smooth="yes"/>
      <point x="468" y="751"/>
      <point x="447" y="742"/>
    </contour>
    <contour>
      <point x="100" y="700" type="line"/>
      <point x="160" y="700" type="line"/>
      <point x="574" y="106" type="line"/>
      <point x="574" y="700" type="line"/>
      <point x="634" y="700" type="line"/>
      <point x="634" y="0" type="line"/>
      <point x="574" y="0" type="line"/>
      <point x="160" y="594" type="line"/>
      <point x="160" y="0" type="line"/>
      <point x="100" y="0" type="line"/>
    </contour>
  </outline>
</glyph>
<glyph name="Oacute" format="2">
  <advance width="781"/>
  <unicode hex="00D3"/>
  <outline>
    <contour>
      <point x="391" y="652" type="curve" smooth="yes"/>
      <point x="310" y="652"/>
      <point x="243" y="623"/>
      <point x="191" y="564" type="curve" smooth="yes"/>
      <point x="139" y="505"/>
      <point x="113" y="434"/>
      <point x="113" y="350" type="curve" smooth="yes"/>
      <point x="113" y="266"/>
      <point x="139" y="195"/>
      <point x="191" y="136" type="curve" smooth="yes"/>
      <point x="243" y="77"/>
      <point x="310" y="48"/>
      <point x="391" y="48" type="curve" smooth="yes"/>
      <point x="472" y="48"/>
      <point x="538" y="77"/>
      <point x="590" y="136" type="curve" smooth="yes"/>
      <point x="642" y="195"/>
      <point x="669" y="266"/>
      <point x="669" y="350" type="curve" smooth="yes"/>
      <point x="669" y="434"/>
      <point x="642" y="505"/>
      <point x="590" y="564" type="curve" smooth="yes"/>
      <point x="538" y="623"/>
      <point x="472" y="652"/>
    </contour>
    <contour>
      <point x="391" y="712" type="curve" smooth="yes"/>
      <point x="490" y="712"/>
      <point x="571" y="677"/>
      <point x="634" y="607" type="curve" smooth="yes"/>
      <point x="697" y="537"/>
      <point x="729" y="452"/>
      <point x="729" y="350" type="curve" smooth="yes"/>
      <point x="729" y="248"/>
      <point x="697" y="163"/>
      <point x="634" y="93" type="curve" smooth="yes"/>
      <point x="571" y="23"/>
      <point x="490" y="-12"/>
      <point x="391" y="-12" type="curve" smooth="yes"/>
      <point x="292" y="-12"/>
      <point x="211" y="23"/>
      <point x="148" y="93" type="curve" smooth="yes"/>
      <point x="85" y="163"/>
      <point x="53" y="248"/>
      <point x="53" y="350" type="curve" smooth="yes"/>
      <point x="53" y="452"/>
      <point x="85" y="537"/>
      <point x="148" y="607" type="curve" smooth="yes"/>
      <point x="211" y="677"/>
      <point x="292" y="712"/>
    </contour>
    <contour>
      <point x="355" y="740" type="line"/>
      <point x="464" y="866" type="line"/>
      <point x="553" y="866" type="line"/>
      <point x="431" y="740" type="line"/>
    </contour>
  </outline>
</glyph>
<glyph name="Otilde" format="2">
  <advance width="775"/>
  <unicode hex="00D5"/>
  <outline>
    <contour>
      <point x="452" y="742" type="curve" smooth="yes"/>
      <point x="423" y="742"/>
      <point x="398" y="754"/>
      <point x="378" y="778" type="curve" smooth="yes"/>
      <point x="370" y="787"/>
      <point x="364" y="796"/>
      <point x="357" y="803" type="curve" smooth="yes"/>
      <point x="350" y="810"/>
      <point x="343" y="814"/>
      <point x="335" y="814" type="curve" smooth="yes"/>
      <point x="314" y="814"/>
      <point x="301" y="802"/>
      <point x="295" y="777" type="curve"/>
      <point x="236" y="777" type="line"/>
      <point x="239" y="803"/>
      <point x="250" y="824"/>
      <point x="269" y="842" type="curve" smooth="yes"/>
      <point x="288" y="860"/>
      <point x="310" y="870"/>
      <point x="335" y="870" type="curve" smooth="yes"/>
      <point x="360" y="870"/>
      <point x="383" y="858"/>
      <point x="404" y="834" type="curve" smooth="yes"/>
      <point x="412" y="825"/>
      <point x="420" y="816"/>
      <point x="427" y="809" type="curve" smooth="yes"/>
      <point x="434" y="802"/>
      <point x="443" y="798"/>
      <point x="452" y="798" type="curve" smooth="yes"/>
      <point x="473" y="798"/>
      <point x="486" y="811"/>
      <point x="490" y="836" type="curve"/>
      <point x="549" y="836" type="line"/>
      <point x="545" y="809"/>
      <point x="535" y="787"/>
      <point x="517" y="769" type="curve" smooth="yes"/>
      <point x="499" y="751"/>
      <point x="477" y="742"/>
    </contour>
    <contour>
      <point x="388" y="652" type="curve" smooth="yes"/>
      <point x="307" y="652"/>
      <point x="240" y="623"/>
      <point x="188" y="564" type="curve" smooth="yes"/>
      <point x="136" y="505"/>
      <point x="110" y="434"/>
      <point x="110" y="350" type="curve" smooth="yes"/>
      <point x="110" y="266"/>
      <point x="136" y="195"/>
      <point x="188" y="136" type="curve" smooth="yes"/>
      <point x="240" y="77"/>
      <point x="307" y="48"/>
      <point x="388" y="48" type="curve" smooth="yes"/>
      <point x="469" y="48"/>
      <point x="535" y="77"/>
      <point x="587" y="136" type="curve" smooth="yes"/>
      <point x="639" y="195"/>
      <point x="666" y="266"/>
      <point x="666" y="350" type="curve" smooth="yes"/>
      <point x="666" y="434"/>
      <point x="639" y="505"/>
      <point x="587" y="564" type="curve" smooth="yes"/>
      <point x="535" y="623"/>
      <point x="469" y="652"/>
    </contour>
    <contour>
      <point x="388" y="712" type="curve" smooth="yes"/>
      <point x="487" y="712"/>
      <point x="568" y="677"/>
      <point x="631" y="607" type="curve" smooth="yes"/>
      <point x="694" y="537"/>
      <point x="726" y="452"/>
      <point x="726" y="350" type="curve" smooth="yes"/>
      <point x="726" y="248"/>
      <point x="694" y="163"/>
      <point x="631" y="93" type="curve" smooth="yes"/>
      <point x="568" y="23"/>
      <point x="487" y="-12"/>
      <point x="388" y="-12" type="curve" smooth="yes"/>
      <point x="289" y="-12"/>
      <point x="208" y="23"/>
      <point x="145" y="93" type="curve" smooth="yes"/>
      <point x="82" y="163"/>
      <point x="50" y="248"/>
      <point x="50" y="350" type="curve" smooth="yes"/>
      <point x="50" y="452"/>
      <point x="82" y="537"/>
      <point x="145" y="607" type="curve" smooth="yes"/>
      <point x="208" y="677"/>
      <point x="289" y="712"/>
    </contour>
  </outline>
</glyph>
<glyph name="Odieresis" format="2">
  <advance width="781"/>
  <unicode hex="00D6"/>
  <outline>
    <contour>
      <point x="272" y="880" type="curve" smooth="yes"/>
      <point x="283" y="880"/>
      <point x="292" y="877"/>
      <point x="300" y="869" type="curve" smooth="yes"/>
      <point x="308" y="861"/>
      <point x="312" y="851"/>
      <point x="312" y="840" type="curve" smooth="yes"/>
      <point x="312" y="829"/>
      <point x="308" y="820"/>
      <point x="300" y="812" type="curve" smooth="yes"/>
      <point x="292" y="804"/>
      <point x="283" y="800"/>
      <point x="272" y="800" type="curve" smooth="yes"/>
      <point x="261" y="800"/>
      <point x="252" y="804"/>
      <point x="244" y="812" type="curve" smooth="yes"/>
      <point x="236" y="820"/>
      <point x="232" y="829"/>
      <point x="232" y="840" type="curve" smooth="yes"/>
      <point x="232" y="851"/>
      <point x="236" y="861"/>
      <point x="244" y="869" type="curve" smooth="yes"/>
      <point x="252" y="877"/>
      <point x="261" y="880"/>
    </contour>
    <contour>
      <point x="514" y="880" type="curve" smooth="yes"/>
      <point x="525" y="880"/>
      <point x="535" y="877"/>
      <point x="543" y="869" type="curve" smooth="yes"/>
      <point x="551" y="861"/>
      <point x="554" y="851"/>
      <point x="554" y="840" type="curve" smooth="yes"/>
      <point x="554" y="829"/>
      <point x="551" y="820"/>
      <point x="543" y="812" type="curve" smooth="yes"/>
      <point x="535" y="804"/>
      <point x="525" y="800"/>
      <point x="514" y="800" type="curve" smooth="yes"/>
      <point x="503" y="800"/>
      <point x="493" y="804"/>
      <point x="485" y="812" type="curve" smooth="yes"/>
      <point x="477" y="820"/>
      <point x="474" y="829"/>
      <point x="474" y="840" type="curve" smooth="yes"/>
      <point x="474" y="851"/>
      <point x="477" y="861"/>
      <point x="485" y="869" type="curve" smooth="yes"/>
      <point x="493" y="877"/>
      <point x="503" y="880"/>
    </contour>
    <contour>
      <point x="391" y="652" type="curve" smooth="yes"/>
      <point x="310" y="652"/>
      <point x="243" y="623"/>
      <point x="191" y="564" type="curve" smooth="yes"/>
      <point x="139" y="505"/>
      <point x="113" y="434"/>
      <point x="113" y="350" type="curve" smooth="yes"/>
      <point x="113" y="266"/>
      <point x="139" y="195"/>
      <point x="191" y="136" type="curve" smooth="yes"/>
      <point x="243" y="77"/>
      <point x="310" y="48"/>
      <point x="391" y="48" type="curve" smooth="yes"/>
      <point x="472" y="48"/>
      <point x="538" y="77"/>
      <point x="590" y="136" type="curve" smooth="yes"/>
      <point x="642" y="195"/>
      <point x="669" y="266"/>
      <point x="669" y="350" type="curve" smooth="yes"/>
      <point x="669" y="434"/>
      <point x="642" y="505"/>
      <point x="590" y="564" type="curve" smooth="yes"/>
      <point x="538" y="623"/>
      <point x="472" y="652"/>
    </contour>
    <contour>
      <point x="391" y="712" type="curve" smooth="yes"/>
      <point x="490" y="712"/>
      <point x="571" y="677"/>
      <point x="634" y="607" type="curve" smooth="yes"/>
      <point x="697" y="537"/>
      <point x="729" y="452"/>
      <point x="729" y="350" type="curve" smooth="yes"/>
      <point x="729" y="248"/>
      <point x="697" y="163"/>
      <point x="634" y="93" type="curve" smooth="yes"/>
      <point x="571" y="23"/>
      <point x="490" y="-12"/>
      <point x="391" y="-12" type="curve" smooth="yes"/>
      <point x="292" y="-12"/>
      <point x="211" y="23"/>
      <point x="148" y="93" type="curve" smooth="yes"/>
      <point x="85" y="163"/>
      <point x="53" y="248"/>
      <point x="53" y="350" type="curve" smooth="yes"/>
      <point x="53" y="452"/>
      <point x="85" y="537"/>
      <point x="148" y="607" type="curve" smooth="yes"/>
      <point x="211" y="677"/>
      <point x="292" y="712"/>
    </contour>
  </outline>
</glyph>
<glyph name="multiply" format="2">
  <advance width="619"/>
  <unicode hex="00D7"/>
  <outline>
    <contour>
      <point x="163" y="106" type="line"/>
      <point x="121" y="148" type="line"/>
      <point x="269" y="296" type="line"/>
      <point x="121" y="444" type="line"/>
      <point x="163" y="487" type="line"/>
      <point x="311" y="339" type="line"/>
      <point x="459" y="487" type="line"/>
      <point x="502" y="444" type="line"/>
      <point x="354" y="296" type="line"/>
      <point x="502" y="148" type="line"/>
      <point x="459" y="106" type="line"/>
      <point x="311" y="254" type="line"/>
    </contour>
  </outline>
</glyph>
<glyph name="Oslash" format="2">
  <advance width="781"/>
  <unicode hex="00D8"/>
  <outline>
    <contour>
      <point x="394" y="652" type="curve" smooth="yes"/>
      <point x="313" y="652"/>
      <point x="246" y="623"/>
      <point x="194" y="564" type="curve" smooth="yes"/>
      <point x="142" y="505"/>
      <point x="116" y="434"/>
      <point x="116" y="350" type="curve" smooth="yes"/>
      <point x="116" y="266"/>
      <point x="142" y="195"/>
      <point x="194" y="136" type="curve" smooth="yes"/>
      <point x="246" y="77"/>
      <point x="313" y="48"/>
      <point x="394" y="48" type="curve" smooth="yes"/>
      <point x="475" y="48"/>
      <point x="541" y="77"/>
      <point x="593" y="136" type="curve" smooth="yes"/>
      <point x="645" y="195"/>
      <point x="672" y="266"/>
      <point x="672" y="350" type="curve" smooth="yes"/>
      <point x="672" y="434"/>
      <point x="645" y="505"/>
      <point x="593" y="564" type="curve" smooth="yes"/>
      <point x="541" y="623"/>
      <point x="475" y="652"/>
    </contour>
    <contour>
      <point x="394" y="712" type="curve" smooth="yes"/>
      <point x="493" y="712"/>
      <point x="574" y="677"/>
      <point x="637" y="607" type="curve" smooth="yes"/>
      <point x="700" y="537"/>
      <point x="732" y="452"/>
      <point x="732" y="350" type="curve" smooth="yes"/>
      <point x="732" y="248"/>
      <point x="700" y="163"/>
      <point x="637" y="93" type="curve" smooth="yes"/>
      <point x="574" y="23"/>
      <point x="493" y="-12"/>
      <point x="394" y="-12" type="curve" smooth="yes"/>
      <point x="295" y="-12"/>
      <point x="214" y="23"/>
      <point x="151" y="93" type="curve" smooth="yes"/>
      <point x="88" y="163"/>
      <point x="56" y="248"/>
      <point x="56" y="350" type="curve" smooth="yes"/>
      <point x="56" y="452"/>
      <point x="88" y="537"/>
      <point x="151" y="607" type="curve" smooth="yes"/>
      <point x="214" y="677"/>
      <point x="295" y="712"/>
    </contour>
    <contour>
      <point x="130" y="-11" type="line"/>
      <point x="85" y="28" type="line"/>
      <point x="657" y="711" type="line"/>
      <point x="704" y="672" type="line"/>
    </contour>
  </outline>
</glyph>
<glyph name="Ugrave" format="2">
  <advance width="708"/>
  <unicode hex="00D9"/>
  <outline>
    <contour>
      <point x="318" y="744" type="line"/>
      <point x="194" y="871" type="line"/>
      <point x="283" y="871" type="line"/>
      <point x="394" y="744" type="line"/>
    </contour>
    <contour>
      <point x="90" y="700" type="line"/>
      <point x="150" y="700" type="line"/>
      <point x="150" y="283" type="line" smooth="yes"/>
      <point x="150" y="213"/>
      <point x="169" y="156"/>
      <point x="209" y="113" type="curve" smooth="yes"/>
      <point x="249" y="70"/>
      <point x="296" y="48"/>
      <point x="354" y="48" type="curve" smooth="yes"/>
      <point x="412" y="48"/>
      <point x="460" y="70"/>
      <point x="500" y="113" type="curve" smooth="yes"/>
      <point x="540" y="156"/>
      <point x="559" y="213"/>
      <point x="559" y="283" type="curve" smooth="yes"/>
      <point x="559" y="700" type="line"/>
      <point x="619" y="700" type="line"/>
      <point x="619" y="283" type="line" smooth="yes"/>
      <point x="619" y="195"/>
      <point x="593" y="123"/>
      <point x="543" y="69" type="curve" smooth="yes"/>
      <point x="493" y="15"/>
      <point x="430" y="-12"/>
      <point x="354" y="-12" type="curve" smooth="yes"/>
      <point x="278" y="-12"/>
      <point x="216" y="15"/>
      <point x="166" y="69" type="curve" smooth="yes"/>
      <point x="116" y="123"/>
      <point x="90" y="195"/>
      <point x="90" y="283" type="curve" smooth="yes"/>
    </contour>
  </outline>
</glyph>
<glyph name="Uacute" format="2">
  <advance width="714"/>
  <unicode hex="00DA"/>
  <outline>
    <contour>
      <point x="314" y="744" type="line"/>
      <point x="423" y="870" type="line"/>
      <point x="512" y="870" type="line"/>
      <point x="390" y="744" type="line"/>
    </contour>
    <contour>
      <point x="93" y="700" type="line"/>
      <point x="153" y="700" type="line"/>
      <point x="153" y="283" type="line" smooth="yes"/>
      <point x="153" y="213"/>
      <point x="172" y="156"/>
      <point x="212" y="113" type="curve" smooth="yes"/>
      <point x="252" y="70"/>
      <point x="299" y="48"/>
      <point x="357" y="48" type="curve" smooth="yes"/>
      <point x="415" y="48"/>
      <point x="463" y="70"/>
      <point x="503" y="113" type="curve" smooth="yes"/>
      <point x="543" y="156"/>
      <point x="562" y="213"/>
      <point x="562" y="283" type="curve" smooth="yes"/>
      <point x="562" y="700" type="line"/>
      <point x="622" y="700" type="line"/>
      <point x="622" y="283" type="line" smooth="yes"/>
      <point x="622" y="195"/>
      <point x="596" y="123"/>
      <point x="546" y="69" type="curve" smooth="yes"/>
      <point x="496" y="15"/>
      <point x="433" y="-12"/>
      <point x="357" y="-12" type="curve" smooth="yes"/>
      <point x="281" y="-12"/>
      <point x="219" y="15"/>
      <point x="169" y="69" type="curve" smooth="yes"/>
      <point x="119" y="123"/>
      <point x="93" y="195"/>
      <point x="93" y="283" type="curve" smooth="yes"/>
    </contour>
  </outline>
</glyph>
<glyph name="Udieresis" format="2">
  <advance width="714"/>
  <unicode hex="00DC"/>
  <outline>
    <contour>
      <point x="228" y="880" type="curve" smooth="yes"/>
      <point x="239" y="880"/>
      <point x="248" y="877"/>
      <point x="256" y="869" type="curve" smooth="yes"/>
      <point x="264" y="861"/>
      <point x="268" y="851"/>
      <point x="268" y="840" type="curve" smooth="yes"/>
      <point x="268" y="829"/>
      <point x="264" y="820"/>
      <point x="256" y="812" type="curve" smooth="yes"/>
      <point x="248" y="804"/>
      <point x="239" y="800"/>
      <point x="228" y="800" type="curve" smooth="yes"/>
      <point x="217" y="800"/>
      <point x="207" y="804"/>
      <point x="199" y="812" type="curve" smooth="yes"/>
      <point x="191" y="820"/>
      <point x="188" y="829"/>
      <point x="188" y="840" type="curve" smooth="yes"/>
      <point x="188" y="851"/>
      <point x="191" y="861"/>
      <point x="199" y="869" type="curve" smooth="yes"/>
      <point x="207" y="877"/>
      <point x="217" y="880"/>
    </contour>
    <contour>
      <point x="470" y="880" type="curve" smooth="yes"/>
      <point x="481" y="880"/>
      <point x="491" y="877"/>
      <point x="499" y="869" type="curve" smooth="yes"/>
      <point x="507" y="861"/>
      <point x="510" y="851"/>
      <point x="510" y="840" type="curve" smooth="yes"/>
      <point x="510" y="829"/>
      <point x="507" y="820"/>
      <point x="499" y="812" type="curve" smooth="yes"/>
      <point x="491" y="804"/>
      <point x="481" y="800"/>
      <point x="470" y="800" type="curve" smooth="yes"/>
      <point x="459" y="800"/>
      <point x="449" y="804"/>
      <point x="441" y="812" type="curve" smooth="yes"/>
      <point x="433" y="820"/>
      <point x="430" y="829"/>
      <point x="430" y="840" type="curve" smooth="yes"/>
      <point x="430" y="851"/>
      <point x="433" y="861"/>
      <point x="441" y="869" type="curve" smooth="yes"/>
      <point x="449" y="877"/>
      <point x="459" y="880"/>
    </contour>
    <contour>
      <point x="93" y="700" type="line"/>
      <point x="153" y="700" type="line"/>
      <point x="153" y="283" type="line" smooth="yes"/>
      <point x="153" y="213"/>
      <point x="172" y="156"/>
      <point x="212" y="113" type="curve" smooth="yes"/>
      <point x="252" y="70"/>
      <point x="299" y="48"/>
      <point x="357" y="48" type="curve" smooth="yes"/>
      <point x="415" y="48"/>
      <point x="463" y="70"/>
      <point x="503" y="113" type="curve" smooth="yes"/>
      <point x="543" y="156"/>
      <point x="562" y="213"/>
      <point x="562" y="283" type="curve" smooth="yes"/>
      <point x="562" y="700" type="line"/>
      <point x="622" y="700" type="line"/>
      <point x="622" y="283" type="line" smooth="yes"/>
      <point x="622" y="195"/>
      <point x="596" y="123"/>
      <point x="546" y="69" type="curve" smooth="yes"/>
      <point x="496" y="15"/>
      <point x="433" y="-12"/>
      <point x="357" y="-12" type="curve" smooth="yes"/>
      <point x="281" y="-12"/>
      <point x="219" y="15"/>
      <point x="169" y="69" type="curve" smooth="yes"/>
      <point x="119" y="123"/>
      <point x="93" y="195"/>
      <point x="93" y="283" type="curve" smooth="yes"/>
    </contour>
  </outline>
</glyph>
<glyph name="Yacute" format="2">
  <advance width="525"/>
  <unicode hex="00DD"/>
  <outline>
    <contour>
      <point x="209" y="744" type="line"/>
      <point x="318" y="870" type="line"/>
      <point x="408" y="870" type="line"/>
      <point x="286" y="744" type="line"/>
    </contour>
    <contour>
      <point x="10" y="700" type="line"/>
      <point x="81" y="700" type="line"/>
      <point x="263" y="390" type="line"/>
      <point x="445" y="700" type="line"/>
      <point x="516" y="700" type="line"/>
      <point x="293" y="321" type="line"/>
      <point x="293" y="0" type="line"/>
      <point x="233" y="0" type="line"/>
      <point x="233" y="321" type="line"/>
    </contour>
  </outline>
</glyph>
<glyph name="Thorn" format="2">
  <advance width="575"/>
  <unicode hex="00DE"/>
  <outline>
    <contour>
      <point x="103" y="701" type="line"/>
      <point x="163" y="701" type="line"/>
      <point x="163" y="578" type="line"/>
      <point x="326" y="578" type="line" smooth="yes"/>
      <point x="386" y="578"/>
      <point x="438" y="557"/>
      <point x="480" y="515" type="curve" smooth="yes"/>
      <point x="522" y="473"/>
      <point x="543" y="421"/>
      <point x="543" y="361" type="curve" smooth="yes"/>
      <point x="543" y="301"/>
      <point x="522" y="250"/>
      <point x="480" y="208" type="curve" smooth="yes"/>
      <point x="438" y="166"/>
      <point x="386" y="144"/>
      <point x="326" y="144" type="curve" smooth="yes"/>
      <point x="163" y="144" type="line"/>
      <point x="163" y="1" type="line"/>
      <point x="103" y="1" type="line"/>
    </contour>
    <contour>
      <point x="163" y="518" type="line"/>
      <point x="163" y="204" type="line"/>
      <point x="326" y="204" type="line" smooth="yes"/>
      <point x="369" y="204"/>
      <point x="406" y="219"/>
      <point x="437" y="250" type="curve" smooth="yes"/>
      <point x="468" y="281"/>
      <point x="483" y="318"/>
      <point x="483" y="361" type="curve" smooth="yes"/>
      <point x="483" y="404"/>
      <point x="468" y="441"/>
      <point x="437" y="472" type="curve" smooth="yes"/>
      <point x="406" y="503"/>
      <point x="369" y="518"/>
      <point x="326" y="518" type="curve" smooth="yes"/>
    </contour>
  </outline>
</glyph>
<glyph name="germandbls" format="2">
  <advance width="550"/>
  <unicode hex="00DF"/>
  <outline>
    <contour>
      <point x="278" y="712" type="curve" smooth="yes"/>
      <point x="334" y="712"/>
      <point x="381" y="693"/>
      <point x="421" y="655" type="curve" smooth="yes"/>
      <point x="461" y="617"/>
      <point x="481" y="572"/>
      <point x="481" y="519" type="curve" smooth="yes"/>
      <point x="481" y="486"/>
      <point x="473" y="456"/>
      <point x="458" y="428" type="curve" smooth="yes"/>
      <point x="443" y="400"/>
      <point x="423" y="378"/>
      <point x="397" y="360" type="curve"/>
      <point x="429" y="343"/>
      <point x="454" y="319"/>
      <point x="473" y="290" type="curve" smooth="yes"/>
      <point x="492" y="261"/>
      <point x="501" y="228"/>
      <point x="501" y="193" type="curve" smooth="yes"/>
      <point x="501" y="140"/>
      <point x="480" y="95"/>
      <point x="438" y="57" type="curve" smooth="yes"/>
      <point x="396" y="19"/>
      <point x="347" y="0"/>
      <point x="288" y="0" type="curve" smooth="yes"/>
      <point x="239" y="0" type="line"/>
      <point x="239" y="60" type="line"/>
      <point x="288" y="60" type="line" smooth="yes"/>
      <point x="330" y="60"/>
      <point x="366" y="73"/>
      <point x="396" y="99" type="curve" smooth="yes"/>
      <point x="426" y="125"/>
      <point x="441" y="156"/>
      <point x="441" y="193" type="curve" smooth="yes"/>
      <point x="441" y="230"/>
      <point x="426" y="262"/>
      <point x="396" y="288" type="curve" smooth="yes"/>
      <point x="366" y="314"/>
      <point x="330" y="327"/>
      <point x="288" y="327" type="curve" smooth="yes"/>
      <point x="244" y="327" type="line"/>
      <point x="244" y="387" type="line"/>
      <point x="288" y="387" type="line" smooth="yes"/>
      <point x="325" y="387"/>
      <point x="356" y="399"/>
      <point x="382" y="425" type="curve" smooth="yes"/>
      <point x="408" y="451"/>
      <point x="421" y="482"/>
      <point x="421" y="519" type="curve" smooth="yes"/>
      <point x="421" y="556"/>
      <point x="407" y="587"/>
      <point x="379" y="613" type="curve" smooth="yes"/>
      <point x="351" y="639"/>
      <point x="318" y="652"/>
      <point x="278" y="652" type="curve" smooth="yes"/>
      <point x="238" y="652"/>
      <point x="205" y="639"/>
      <point x="177" y="613" type="curve" smooth="yes"/>
      <point x="149" y="587"/>
      <point x="135" y="556"/>
      <point x="135" y="519" type="curve" smooth="yes"/>
      <point x="135" y="0" type="line"/>
      <point x="75" y="0" type="line"/>
      <point x="75" y="519" type="line" smooth="yes"/>
      <point x="75" y="572"/>
      <point x="94" y="617"/>
      <point x="134" y="655" type="curve" smooth="yes"/>
      <point x="174" y="693"/>
      <point x="222" y="712"/>
    </contour>
  </outline>
</glyph>
<glyph name="atilde" format="2">
  <advance width="602"/>
  <unicode hex="00E3"/>
  <outline>
    <contour>
      <point x="357" y="572" type="curve" smooth="yes"/>
      <point x="328" y="572"/>
      <point x="304" y="584"/>
      <point x="284" y="608" type="curve" smooth="yes"/>
      <point x="276" y="617"/>
      <point x="269" y="626"/>
      <point x="262" y="633" type="curve" smooth="yes"/>
      <point x="255" y="640"/>
      <point x="248" y="644"/>
      <point x="240" y="644" type="curve" smooth="yes"/>
      <point x="219" y="644"/>
      <point x="206" y="632"/>
      <point x="200" y="607" type="curve"/>
      <point x="141" y="607" type="line"/>
      <point x="144" y="633"/>
      <point x="155" y="654"/>
      <point x="174" y="672" type="curve" smooth="yes"/>
      <point x="193" y="690"/>
      <point x="215" y="700"/>
      <point x="240" y="700" type="curve" smooth="yes"/>
      <point x="265" y="700"/>
      <point x="288" y="688"/>
      <point x="309" y="664" type="curve" smooth="yes"/>
      <point x="317" y="655"/>
      <point x="325" y="646"/>
      <point x="332" y="639" type="curve" smooth="yes"/>
      <point x="339" y="632"/>
      <point x="348" y="628"/>
      <point x="357" y="628" type="curve" smooth="yes"/>
      <point x="378" y="628"/>
      <point x="391" y="641"/>
      <point x="395" y="666" type="curve"/>
      <point x="454" y="666" type="line"/>
      <point x="450" y="639"/>
      <point x="439" y="617"/>
      <point x="421" y="599" type="curve" smooth="yes"/>
      <point x="403" y="581"/>
      <point x="382" y="572"/>
    </contour>
    <contour>
      <point x="468" y="500" type="line"/>
      <point x="528" y="500" type="line"/>
      <point x="528" y="0" type="line"/>
      <point x="468" y="0" type="line"/>
      <point x="468" y="85" type="line"/>
      <point x="463" y="77"/>
      <point x="458" y="69"/>
      <point x="452" y="62" type="curve" smooth="yes"/>
      <point x="413" y="13"/>
      <point x="360" y="-12"/>
      <point x="290" y="-12" type="curve" smooth="yes"/>
      <point x="219" y="-12"/>
      <point x="160" y="13"/>
      <point x="114" y="64" type="curve" smooth="yes"/>
      <point x="68" y="115"/>
      <point x="45" y="177"/>
      <point x="45" y="250" type="curve" smooth="yes"/>
      <point x="45" y="323"/>
      <point x="68" y="385"/>
      <point x="114" y="436" type="curve" smooth="yes"/>
      <point x="160" y="487"/>
      <point x="219" y="512"/>
      <point x="290" y="512" type="curve" smooth="yes"/>
      <point x="360" y="512"/>
      <point x="413" y="487"/>
      <point x="452" y="438" type="curve" smooth="yes"/>
      <point x="458" y="431"/>
      <point x="463" y="423"/>
      <point x="468" y="415" type="curve"/>
    </contour>
    <contour>
      <point x="290" y="452" type="curve" smooth="yes"/>
      <point x="235" y="452"/>
      <point x="190" y="433"/>
      <point x="156" y="394" type="curve" smooth="yes"/>
      <point x="122" y="355"/>
      <point x="105" y="307"/>
      <point x="105" y="250" type="curve" smooth="yes"/>
      <point x="105" y="193"/>
      <point x="122" y="145"/>
      <point x="156" y="106" type="curve" smooth="yes"/>
      <point x="190" y="67"/>
      <point x="235" y="48"/>
      <point x="290" y="48" type="curve" smooth="yes"/>
      <point x="344" y="48"/>
      <point x="387" y="67"/>
      <point x="419" y="106" type="curve" smooth="yes"/>
      <point x="451" y="145"/>
      <point x="468" y="192"/>
      <point x="468" y="250" type="curve" smooth="yes"/>
      <point x="468" y="308"/>
      <point x="451" y="355"/>
      <point x="419" y="394" type="curve" smooth="yes"/>
      <point x="387" y="433"/>
      <point x="344" y="452"/>
    </contour>
  </outline>
</glyph>
